
<svg width="144px" height="31px" viewBox="0 0 144 31" version="1.1" xmlns="http://www.w3.org/2000/svg" xmlns:xlink="http://www.w3.org/1999/xlink">
    <!-- Generator: Sketch 50.2 (55047) - http://www.bohemiancoding.com/sketch -->
    <desc>Created with Sketch.</desc>
    <defs></defs>
    <g id="Page-1" stroke="none" stroke-width="1" fill="none" fill-rule="evenodd">
        <g id="2-Project-&gt;-approved-A-2" transform="translate(-199.000000, -22.000000)">
            <g id="rsrLogo" transform="translate(199.000000, 22.000000)">
                <g id="Group" fill="#2F1A45">
                    <path d="M13.6511364,27.2893939 C14.0238636,29.5439394 15.0022727,30.6712121 16.9125,30.6712121 C18.6829545,30.6712121 19.9409091,30.2015152 20.9659091,29.6848485 L20.9659091,27.430303 C20.9659091,27.430303 20.5465909,27.430303 20.3602273,27.430303 C18.3568182,27.430303 18.0772727,26.7727273 18.0772727,25.5515152 L18.0772727,13.8090909 C18.0772727,9.11212121 14.9556818,6.95151515 9.50454545,6.95151515 C3.91363636,6.95151515 0.838636364,9.20606061 0.838636364,12.6348485 C0.838636364,13.7621212 0.978409091,14.2787879 1.21136364,15.1712121 L5.6375,14.8893939 C5.49772727,14.2318182 5.26477273,13.8090909 5.26477273,13.0106061 C5.26477273,11.6484848 5.87045455,10.1454545 9.27159091,10.1454545 C12.3,10.1454545 13.6045455,11.6484848 13.6045455,14.5136364 C13.2318182,15.6409091 10.3897727,16.5333333 6.24318182,17.5666667 C2.84204545,18.4121212 0,20.3848485 0,24.0015152 C0,28.0878788 2.05,30.8590909 6.75568182,30.8590909 C9.59772727,30.8590909 12.2534091,29.8727273 13.6511364,27.2893939 Z M13.5579545,18.1772727 L13.3715909,22.4984848 C13.2784091,25.4575758 11.275,27.2893939 9.03863636,27.4772727 C6.05681818,27.7590909 4.75227273,26.2090909 4.75227273,24.2363636 C4.75227273,21.9818182 6.28977273,20.7606061 9.92386364,19.9151515 C11.3215909,19.5863636 13.0920455,18.9287879 13.5579545,18.1772727 Z" id="Shape"></path>
                    <path d="M27.8613636,22.4045455 L30.5636364,19.2106061 L37.5056818,30.3424242 C37.5056818,30.3424242 42.6306818,30.3893939 42.6306818,30.3893939 L33.5920455,16.2045455 L40.1147727,7.7030303 L34.9897727,7.7030303 L27.8613636,17.6136364 L27.8613636,0 L23.3420455,0 L23.3420455,30.3893939 L27.8613636,30.3893939 L27.8613636,22.4045455 Z" id="Shape" fill-rule="nonzero"></path>
                    <path d="M48.8738636,30.3893939 L52.1818182,30.3893939 C53.8125,30.3893939 54.8375,29.3560606 55.35,27.7590909 L62.0590909,7.7030303 L57.6329545,7.7030303 L51.7159091,25.4106061 L46.3113636,7.65606061 L41.4193182,7.65606061 L48.8738636,30.3893939 Z" id="Shape" fill-rule="nonzero"></path>
                    <path d="M81.8136364,19.3984848 C81.8136364,11.3666667 78.6454545,6.99848485 72.2625,6.99848485 C66.0193182,6.99848485 62.7113636,10.9439394 62.7113636,19.3984848 C62.7113636,27.6181818 65.9727273,30.8590909 72.2625,30.8590909 C78.2727273,30.8590909 81.8136364,27.7121212 81.8136364,19.3984848 Z M67.6034091,19.2106061 C67.6034091,12.9166667 69.0477273,10.5681818 72.3090909,10.5681818 C75.4772727,10.5681818 77.0147727,12.9166667 77.0147727,19.2106061 C77.0147727,24.8469697 75.6636364,27.0075758 72.3090909,27.0075758 C68.9545455,27.0075758 67.6034091,24.9409091 67.6034091,19.2106061 Z" id="Shape"></path>
                </g>
                <g id="Group" transform="translate(86.000000, 7.000000)" fill="#57C1E8" fill-rule="nonzero">
                    <path d="M0.0467741935,23.2615385 L0.0467741935,0.969230769 L4.67741935,0.969230769 C4.67741935,0.969230769 4.67741935,4.70769231 4.67741935,6.04615385 C5.56612903,2.76923077 7.85806452,0.461538462 10.8516129,0.461538462 C14.6403226,0.461538462 16.9322581,2.44615385 16.9322581,5.49230769 C16.9322581,6.73846154 16.5580645,8.53846154 15.9967742,9.78461538 L11.7870968,10.5692308 C12.0209677,9.69230769 12.3016129,8.49230769 12.3016129,7.33846154 C12.3016129,5.53846154 11.2725806,4.43076923 9.35483871,4.43076923 C6.5483871,4.43076923 4.77096774,7.29230769 4.77096774,11.1692308 L4.77096774,23.2615385 L0.0467741935,23.2615385 Z" id="Shape"></path>
                    <path d="M23.6677419,15.5538462 C23.5274194,16.1076923 23.433871,16.5692308 23.433871,17.0307692 C23.433871,18.8769231 24.65,20.3538462 27.6435484,20.3538462 C30.4967742,20.3538462 31.9,19.2461538 31.9,17.3076923 C31.9,16.1538462 31.4790323,14.9538462 27.5032258,13.7538462 L24.3693548,12.7846154 C21.1419355,11.7692308 19.1774194,10.4307692 19.1774194,6.92307692 C19.1774194,2.90769231 22.5451613,0.369230769 27.316129,0.369230769 C32.8822581,0.369230769 35.8758065,2.86153846 35.8758065,5.86153846 C35.8758065,6.55384615 35.7354839,7.01538462 35.5483871,7.43076923 L30.9645161,7.75384615 C31.1048387,7.38461538 31.2451613,6.83076923 31.2451613,6.27692308 C31.2451613,4.93846154 29.9822581,3.73846154 27.4096774,3.73846154 C24.883871,3.73846154 23.8080645,5.26153846 23.8080645,6.41538462 C23.8080645,7.70769231 24.6032258,8.30769231 27.4096774,9.18461538 L30.7774194,10.2 C34.7064516,11.4 36.8580645,13.5230769 36.8580645,16.7076923 C36.8580645,20.9076923 33.9112903,23.7692308 27.6903226,23.7692308 C21.983871,23.7692308 18.8967742,21.2307692 18.8967742,18.0461538 C18.8967742,17.0769231 19.1774194,16.0615385 19.4580645,15.2769231 L23.6677419,15.5538462 Z" id="Shape"></path>
                    <path d="M40.7870968,23.2615385 L40.7870968,0.969230769 L45.4177419,0.969230769 C45.4177419,0.969230769 45.4177419,4.70769231 45.4177419,6.04615385 C46.3064516,2.76923077 48.5983871,0.461538462 51.5919355,0.461538462 C55.3806452,0.461538462 57.6725806,2.44615385 57.6725806,5.49230769 C57.6725806,6.73846154 57.2983871,8.53846154 56.7370968,9.78461538 L52.5274194,10.5692308 C52.7612903,9.69230769 53.0419355,8.49230769 53.0419355,7.33846154 C53.0419355,5.53846154 52.0129032,4.43076923 50.0951613,4.43076923 C47.2887097,4.43076923 45.5112903,7.29230769 45.5112903,11.1692308 L45.5112903,23.2615385 L40.7870968,23.2615385 Z" id="Shape"></path>
                </g>
            </g>
        </g>
    </g>
</svg>