<svg id="Layer_1" data-name="Layer 1" xmlns="http://www.w3.org/2000/svg" xmlns:xlink="http://www.w3.org/1999/xlink" viewBox="0 0 147 32"><defs><style>.cls-1{fill:none;}.cls-2{clip-path:url(#clip-path);}.cls-3{fill:#292929;fill-rule:evenodd;}.cls-4{fill:#51c8e8;}</style><clipPath id="clip-path"><rect class="cls-1" x="0.06" y="0.84" width="146.07" height="31.16"/></clipPath></defs><title>Artboard 1</title><g class="cls-2"><path class="cls-3" d="M13.9,28.41c.36,2.27,1.4,3.39,3.32,3.39a8.77,8.77,0,0,0,4.11-1V28.53h-.64c-2,0-2.31-.68-2.31-1.92V14.78c0-4.75-3.2-6.91-8.71-6.91C4,7.87.84,10.15.84,13.63a8.4,8.4,0,0,0,.36,2.55l4.51-.28A6.82,6.82,0,0,1,5.35,14c0-1.39.64-2.87,4.08-2.87,3.07,0,4.39,1.52,4.39,4.39-.36,1.16-3.27,2-7.51,3.08C2.88,19.46,0,21.41,0,25.09,0,29.2,2.08,32,6.87,32c2.88,0,5.59-1,7-3.59m-.08-9.23-.2,4.35a4.89,4.89,0,0,1-4.39,5c-3,.28-4.36-1.27-4.36-3.27,0-2.28,1.56-3.52,5.27-4.35C11.54,20.61,13.34,19.94,13.82,19.18Zm14.52,4.3v8H23.76V.84h4.58V18.62l7.27-10h5.23l-6.63,8.59,9.16,14.34s-5.22,0-5.23,0l-7-11.24Zm21.42,8L42.17,8.59h4.95l5.5,17.9,6.06-17.9h4.51L56.35,28.86a3.28,3.28,0,0,1-3.2,2.66Zm33.53-11.1c0-8.11-3.23-12.55-9.7-12.55s-9.71,4-9.71,12.55c0,8.3,3.31,11.58,9.71,11.58C79.66,32,83.29,28.81,83.29,20.42Zm-14.5-.16c0-6.35,1.48-8.71,4.8-8.71s4.79,2.36,4.79,8.71c0,5.67-1.4,7.87-4.79,7.87S68.79,26.05,68.79,20.26Z"/></g><path class="cls-4" d="M87,31.5v-23h4.71v5.24C92.61,10.42,95,8,98,8c3.84,0,6.2,2,6.2,5.2a12.45,12.45,0,0,1-1,4.4l-4.28.8a13.14,13.14,0,0,0,.52-3.32,2.73,2.73,0,0,0-3-3c-2.84,0-4.63,3-4.63,7V31.5H87"/><path class="cls-4" d="M111.21,23.54a8.21,8.21,0,0,0-.24,1.52c0,1.88,1.24,3.4,4.28,3.4,2.89,0,4.32-1.12,4.32-3.16,0-1.2-.44-2.44-4.48-3.68l-3.2-1c-3.28-1-5.28-2.44-5.28-6,0-4.12,3.41-6.76,8.28-6.76,5.64,0,8.72,2.56,8.72,5.68a4.41,4.41,0,0,1-.32,1.64l-4.64.32a5.42,5.42,0,0,0,.28-1.52c0-1.4-1.28-2.6-3.92-2.6s-3.67,1.56-3.67,2.76.8,2,3.63,2.84l3.4,1c4,1.24,6.2,3.4,6.2,6.72,0,4.32-3,7.28-9.32,7.28-5.79,0-8.91-2.6-8.91-5.88a8.69,8.69,0,0,1,.56-2.84l4.31.28"/><path class="cls-4" d="M128.93,31.5v-23h4.72v5.24c.88-3.36,3.24-5.76,6.28-5.76,3.84,0,6.2,2,6.2,5.2a12.45,12.45,0,0,1-1,4.4l-4.28.8a13.14,13.14,0,0,0,.52-3.32,2.74,2.74,0,0,0-3-3c-2.84,0-4.64,3-4.64,7V31.5h-4.84"/></svg>