<svg width="24" height="24" viewBox="0 0 24 24" fill="none" xmlns="http://www.w3.org/2000/svg">
<path d="M12.5648 6.39844H11.4375C11.3344 6.39844 11.25 6.48281 11.25 6.58594V13.0383C11.25 13.0992 11.2781 13.1555 11.3273 13.1906L15.2016 16.0195C15.2859 16.0805 15.4031 16.0641 15.4641 15.9797L16.1344 15.0656C16.1977 14.9789 16.1789 14.8617 16.0945 14.8031L12.7523 12.3867V6.58594C12.7523 6.48281 12.668 6.39844 12.5648 6.39844ZM17.7164 8.16094L21.3914 9.0586C21.5086 9.08672 21.6234 8.99766 21.6234 8.87813L21.6422 5.09297C21.6422 4.93594 21.4617 4.84688 21.3398 4.94532L17.6461 7.83047C17.6182 7.85207 17.5969 7.8811 17.5848 7.91424C17.5726 7.94738 17.5701 7.98327 17.5774 8.0178C17.5848 8.05232 17.6017 8.08407 17.6263 8.10939C17.6509 8.13471 17.6821 8.15258 17.7164 8.16094V8.16094ZM21.6469 15.218L20.318 14.7609C20.2716 14.7451 20.2209 14.7479 20.1767 14.769C20.1325 14.79 20.0982 14.8275 20.0813 14.8734C20.0367 14.993 19.9898 15.1102 19.9406 15.2273C19.5234 16.2141 18.9258 17.1023 18.1617 17.8641C17.4061 18.622 16.5107 19.2261 15.525 19.643C14.5039 20.0747 13.4063 20.2963 12.2977 20.2945C11.1773 20.2945 10.0922 20.0766 9.07031 19.643C8.08463 19.2261 7.18917 18.622 6.4336 17.8641C5.67188 17.1023 5.07422 16.2141 4.65469 15.2273C4.22535 14.2057 4.00539 13.1082 4.00781 12C4.00781 10.8797 4.22578 9.79219 4.65938 8.77032C5.07656 7.7836 5.67422 6.89532 6.43828 6.1336C7.19386 5.37567 8.08931 4.77154 9.075 4.35469C10.0922 3.9211 11.1797 3.70313 12.3 3.70313C13.4203 3.70313 14.5055 3.9211 15.5273 4.35469C16.513 4.77154 17.4085 5.37567 18.1641 6.1336C18.4031 6.375 18.6281 6.62578 18.8344 6.89063L20.2359 5.79375C18.3914 3.43594 15.5203 1.91953 12.2953 1.92188C6.67969 1.92422 2.17031 6.48516 2.22656 12.1031C2.28281 17.6227 6.7711 22.0781 12.3 22.0781C16.6477 22.0781 20.3508 19.3219 21.7617 15.4617C21.7969 15.3633 21.7453 15.2531 21.6469 15.218V15.218Z" fill="currentColor"/>
</svg>
