<svg xmlns="http://www.w3.org/2000/svg" xmlns:xlink="http://www.w3.org/1999/xlink" width="22" height="22" viewBox="0 0 35.291 35.246">
  <defs>
    <clipPath id="clip-path">
      <rect id="Rectangle_29" data-name="Rectangle 29" width="35.291" height="35.246" fill="#707070"/>
    </clipPath>
  </defs>
  <g id="editButton" data-name="editButton" clip-path="url(#clip-path)">
    <path id="Path_5" data-name="Path 5" d="M23.778,71.791H3.65A3.655,3.655,0,0,1,0,68.141V48.013a3.655,3.655,0,0,1,3.65-3.65H15.5a1.057,1.057,0,0,1,0,2.115H3.65a1.538,1.538,0,0,0-1.536,1.536V68.141A1.537,1.537,0,0,0,3.65,69.677H23.778a1.537,1.537,0,0,0,1.536-1.536V56.12a1.057,1.057,0,0,1,2.115,0V68.141a3.655,3.655,0,0,1-3.65,3.65" transform="translate(0 -36.545)" fill="#707070"/>
    <path id="Path_6" data-name="Path 6" d="M80.554,1.029l-16.3,16.3a1.055,1.055,0,0,0-.261.43L62.28,23.2a1.057,1.057,0,0,0,1.382,1.307l5.191-1.963a1.057,1.057,0,0,0,.374-.241L85.527,6a3.516,3.516,0,0,0-4.973-4.973m-15.6,20.729.982-3.117L79.725,4.849l1.982,1.982L67.892,20.645ZM84.031,4.506l-.829.829L81.22,3.353l.829-.829a1.4,1.4,0,0,1,1.982,1.982" transform="translate(-51.264 0)" fill="#707070"/>
  </g>
</svg>
