<svg width="24" height="24" viewBox="0 0 18 20" fill="none" xmlns="http://www.w3.org/2000/svg">
<path d="M3.43939 9.81299V0.867004C3.43939 0.637062 3.34805 0.416531 3.18546 0.253937C3.02286 0.0913427 2.80236 0 2.57242 0C2.34248 0 2.12194 0.0913427 1.95935 0.253937C1.79676 0.416531 1.70541 0.637062 1.70541 0.867004V9.81299C1.20631 9.99113 0.774491 10.3193 0.469177 10.7524C0.163864 11.1856 0 11.7025 0 12.2325C0 12.7624 0.163864 13.2794 0.469177 13.7126C0.774491 14.1457 1.20631 14.4739 1.70541 14.652V18.133C1.70541 18.3629 1.79676 18.5835 1.95935 18.7461C2.12194 18.9087 2.34248 19 2.57242 19C2.80236 19 3.02286 18.9087 3.18546 18.7461C3.34805 18.5835 3.43939 18.3629 3.43939 18.133V14.65C3.93849 14.4719 4.37032 14.1437 4.67563 13.7106C4.98094 13.2774 5.14481 12.7604 5.14481 12.2305C5.14481 11.7006 4.98094 11.1836 4.67563 10.7504C4.37032 10.3173 3.93849 9.98915 3.43939 9.811V9.81299ZM2.57242 13.069C2.40688 13.069 2.24504 13.0199 2.10739 12.9279C1.96975 12.836 1.86245 12.7052 1.7991 12.5523C1.73575 12.3994 1.7192 12.2311 1.7515 12.0687C1.78379 11.9063 1.8635 11.7572 1.98056 11.6401C2.09762 11.5231 2.24676 11.4434 2.40912 11.4111C2.57148 11.3788 2.73976 11.3954 2.8927 11.4587C3.04564 11.5221 3.17637 11.6293 3.26834 11.767C3.36031 11.9046 3.40939 12.0665 3.40939 12.232C3.40913 12.4539 3.32088 12.6666 3.16397 12.8235C3.00706 12.9805 2.79432 13.0687 2.57242 13.069V13.069Z" fill="#2B2F56"/>
<path d="M9.71286 3.71399V0.867004C9.71286 0.637062 9.62152 0.416531 9.45892 0.253937C9.29633 0.0913427 9.0758 0 8.84586 0C8.61591 0 8.39538 0.0913427 8.23279 0.253937C8.07019 0.416531 7.97885 0.637062 7.97885 0.867004V3.71399C7.47975 3.89213 7.04796 4.22026 6.74265 4.65341C6.43733 5.08657 6.27344 5.60354 6.27344 6.13348C6.27344 6.66343 6.43733 7.1804 6.74265 7.61356C7.04796 8.04671 7.47975 8.37487 7.97885 8.55301V18.134C7.97885 18.3639 8.07019 18.5845 8.23279 18.7471C8.39538 18.9097 8.61591 19.001 8.84586 19.001C9.0758 19.001 9.29633 18.9097 9.45892 18.7471C9.62152 18.5845 9.71286 18.3639 9.71286 18.134V8.54999C10.212 8.37184 10.6438 8.04372 10.9491 7.61057C11.2544 7.17741 11.4183 6.66043 11.4183 6.13049C11.4183 5.60055 11.2544 5.08357 10.9491 4.65042C10.6438 4.21727 10.212 3.88914 9.71286 3.711V3.71399ZM8.84485 6.97C8.67931 6.97 8.51747 6.92092 8.37982 6.82895C8.24218 6.73698 8.13491 6.60625 8.07156 6.45331C8.00821 6.30037 7.99163 6.13206 8.02393 5.9697C8.05622 5.80733 8.13593 5.65819 8.25299 5.54114C8.37005 5.42408 8.51919 5.34437 8.68155 5.31207C8.84391 5.27978 9.01222 5.29636 9.16516 5.35971C9.3181 5.42306 9.44883 5.53032 9.5408 5.66797C9.63277 5.80561 9.68185 5.96745 9.68185 6.133C9.68159 6.3549 9.59331 6.56764 9.4364 6.72455C9.27949 6.88146 9.06675 6.96974 8.84485 6.97V6.97Z" fill="#2B2F56"/>
<path d="M15.9843 9.078V0.867004C15.9843 0.637062 15.893 0.416531 15.7304 0.253937C15.5678 0.0913427 15.3473 0 15.1173 0C14.8874 0 14.6669 0.0913427 14.5043 0.253937C14.3417 0.416531 14.2503 0.637062 14.2503 0.867004V9.078C13.7512 9.25615 13.3194 9.58427 13.0141 10.0174C12.7088 10.4506 12.5449 10.9676 12.5449 11.4975C12.5449 12.0274 12.7088 12.5444 13.0141 12.9776C13.3194 13.4107 13.7512 13.7388 14.2503 13.917V18.133C14.2503 18.3629 14.3417 18.5835 14.5043 18.7461C14.6669 18.9087 14.8874 19 15.1173 19C15.3473 19 15.5678 18.9087 15.7304 18.7461C15.893 18.5835 15.9843 18.3629 15.9843 18.133V13.917C16.4834 13.7388 16.9152 13.4107 17.2206 12.9776C17.5259 12.5444 17.6898 12.0274 17.6898 11.4975C17.6898 10.9676 17.5259 10.4506 17.2206 10.0174C16.9152 9.58427 16.4834 9.25615 15.9843 9.078ZM15.1173 12.334C14.9518 12.334 14.7899 12.2849 14.6522 12.1929C14.5146 12.1009 14.4073 11.9701 14.344 11.8171C14.2806 11.6641 14.2641 11.4957 14.2965 11.3333C14.3289 11.171 14.4087 11.0218 14.5258 10.9048C14.643 10.7878 14.7922 10.7081 14.9547 10.676C15.1171 10.6438 15.2854 10.6605 15.4384 10.724C15.5913 10.7875 15.7219 10.8949 15.8138 11.0327C15.9056 11.1705 15.9545 11.3324 15.9543 11.498C15.9538 11.7197 15.8654 11.9322 15.7086 12.0889C15.5517 12.2456 15.3391 12.3337 15.1173 12.334V12.334Z" fill="#2B2F56"/>
</svg>
