<svg id="Layer_2" data-name="Layer 2" xmlns="http://www.w3.org/2000/svg" viewBox="0 0 296 305"><defs><style>.cls-1{fill:none;}.cls-2{fill:#009b8f;stroke:#009b8f;}.cls-2,.cls-3{stroke-width:1px;}.cls-3,.cls-4{fill:#e36f3c;}.cls-3{stroke:#e36f3c;}</style></defs><path class="cls-1" d="M88.09,17.33a46.76,46.76,0,0,1,40.17-10l83.83,18.34A46.72,46.72,0,0,1,244,50.44l40,80.08a46.76,46.76,0,0,1,.93,39.8l-35.55,80.37a46.76,46.76,0,0,1-31.43,26.44l-82.41,20.55a46.74,46.74,0,0,1-40.17-8.6l-69.18-54.3A46.74,46.74,0,0,1,8.3,199.2L6,109.72A46.72,46.72,0,0,1,22.53,72.93Z"/><path class="cls-2" d="M110.7,22.78a31.26,31.26,0,0,0-12.61,6.46L32.6,84.76a31,31,0,0,0-11,24.56l2.27,89.48a31.09,31.09,0,0,0,11.91,23.72l69.12,54.27a31,31,0,0,0,26.79,5.73L214.12,262a31,31,0,0,0,21-17.62L270.63,164a31,31,0,0,0-.62-26.53L230,57.36a31,31,0,0,0-21.24-16.52l-83.9-18.27a31.25,31.25,0,0,0-14.17.21M106.93,7.66a46.65,46.65,0,0,1,21.26-.32l83.89,18.27A46.76,46.76,0,0,1,244,50.4l40,80.07a46.72,46.72,0,0,1,.93,39.8l-35.56,80.37a46.72,46.72,0,0,1-31.43,26.44l-82.43,20.55a46.79,46.79,0,0,1-40.18-8.58L26.16,234.77A46.76,46.76,0,0,1,8.29,199.2L6,109.72a46.74,46.74,0,0,1,16.5-36.84L88,17.36A46.63,46.63,0,0,1,106.93,7.66Z"/><path class="cls-1" d="M88.09,17.33a46.76,46.76,0,0,1,40.17-10l83.83,18.34A46.72,46.72,0,0,1,244,50.44l40,80.08a46.76,46.76,0,0,1,.93,39.8l-35.55,80.37a46.76,46.76,0,0,1-31.43,26.44l-82.41,20.55a46.74,46.74,0,0,1-40.17-8.6l-69.18-54.3A46.74,46.74,0,0,1,8.3,199.2L6,109.72A46.72,46.72,0,0,1,22.53,72.93Z"/><path class="cls-2" d="M110.7,22.78a31.26,31.26,0,0,0-12.61,6.46L32.6,84.76a31,31,0,0,0-11,24.56l2.27,89.48a31.09,31.09,0,0,0,11.91,23.72l69.12,54.27a31,31,0,0,0,26.79,5.73L214.12,262a31,31,0,0,0,21-17.62L270.63,164a31,31,0,0,0-.62-26.53L230,57.36a31,31,0,0,0-21.24-16.52l-83.9-18.27a31.25,31.25,0,0,0-14.17.21M106.93,7.66a46.65,46.65,0,0,1,21.26-.32l83.89,18.27A46.76,46.76,0,0,1,244,50.4l40,80.07a46.72,46.72,0,0,1,.93,39.8l-35.56,80.37a46.72,46.72,0,0,1-31.43,26.44l-82.43,20.55a46.79,46.79,0,0,1-40.18-8.58L26.16,234.77A46.76,46.76,0,0,1,8.29,199.2L6,109.72a46.74,46.74,0,0,1,16.5-36.84L88,17.36A46.63,46.63,0,0,1,106.93,7.66Z"/><path class="cls-1" d="M88.09,17.33a46.76,46.76,0,0,1,40.17-10l83.83,18.34A46.72,46.72,0,0,1,244,50.44l40,80.08a46.76,46.76,0,0,1,.93,39.8l-35.55,80.37a46.76,46.76,0,0,1-31.43,26.44l-82.41,20.55a46.74,46.74,0,0,1-40.17-8.6l-69.18-54.3A46.74,46.74,0,0,1,8.3,199.2L6,109.72A46.72,46.72,0,0,1,22.53,72.93Z"/><path class="cls-3" d="M110.7,22.78a31.26,31.26,0,0,0-12.61,6.46L32.6,84.76a31,31,0,0,0-11,24.56l2.27,89.48a31.09,31.09,0,0,0,11.91,23.72l69.12,54.27a31,31,0,0,0,26.79,5.73L214.12,262a31,31,0,0,0,21-17.62L270.63,164a31,31,0,0,0-.62-26.53L230,57.36a31,31,0,0,0-21.24-16.52l-83.9-18.27a31.25,31.25,0,0,0-14.17.21M106.93,7.66a46.65,46.65,0,0,1,21.26-.32l83.89,18.27A46.76,46.76,0,0,1,244,50.4l40,80.07a46.72,46.72,0,0,1,.93,39.8l-35.56,80.37a46.72,46.72,0,0,1-31.43,26.44l-82.43,20.55a46.79,46.79,0,0,1-40.18-8.58L26.16,234.77A46.76,46.76,0,0,1,8.29,199.2L6,109.72a46.74,46.74,0,0,1,16.5-36.84L88,17.36A46.63,46.63,0,0,1,106.93,7.66Z"/><path class="cls-4" d="M114.09,90.3q10.62-6.85,26.13-6.85,20.35,0,33.84,9.73T187.53,122q0,11.72-5.84,19.73-3.42,4.88-13.13,12.44l-6.37,4.95a19.41,19.41,0,0,0-6.93,9.46c-.72,2.29-1.1,5.83-1.16,10.64H129.68q.52-15.23,2.87-21t12-13.39l6.56-5.13a22.94,22.94,0,0,0,5.21-5.32,18.19,18.19,0,0,0,3.59-10.9A21,21,0,0,0,156,111q-4-5.64-14.6-5.63-10.44,0-14.79,6.93a26.73,26.73,0,0,0-4.36,14.42h-26Q97.23,101,114.09,90.3ZM129,191.58h27v26H129Z"/></svg>