<svg id="Layer_1" data-name="Layer 1" xmlns="http://www.w3.org/2000/svg" viewBox="0 0 21.28 22"><defs><style>.cls-1{fill:none;}.cls-2{fill:#e36f3c;}</style></defs><g id="Group_1227" data-name="Group 1227"><g id="Group_1226" data-name="Group 1226"><g id="Component_22_23" data-name="Component 22 23"><g id="Polygon_11" data-name="Polygon 11"><path class="cls-1" d="M6,1A4,4,0,0,1,9.44.09l5.87,1.28A4,4,0,0,1,18,3.49l2.82,5.64a4,4,0,0,1,.08,3.4l-2.5,5.65a4,4,0,0,1-2.69,2.26L10,21.88a4,4,0,0,1-3.44-.74L1.69,17.33a4,4,0,0,1-1.53-3L0,8A4,4,0,0,1,1.41,4.84Z"/><path class="cls-2" d="M8,1.57a2.7,2.7,0,0,0-1,.52L2.38,6A2.48,2.48,0,0,0,1.5,8l.16,6.3a2.48,2.48,0,0,0,1,1.9L7.47,20a2.48,2.48,0,0,0,2.15.46L15.39,19a2.52,2.52,0,0,0,1.68-1.42l2.5-5.64a2.52,2.52,0,0,0-.05-2.13L16.7,4.16A2.48,2.48,0,0,0,15,2.84L9.12,1.56A2.58,2.58,0,0,0,8,1.57M7.62.12a4,4,0,0,1,1.82,0l5.87,1.28A4,4,0,0,1,18,3.49l2.82,5.64a4,4,0,0,1,.08,3.4l-2.5,5.65a4,4,0,0,1-2.69,2.26L10,21.88a4,4,0,0,1-3.43-.74L1.69,17.33a4,4,0,0,1-1.53-3L0,8A4,4,0,0,1,1.41,4.84L6,1A4.1,4.1,0,0,1,7.62.12Z"/></g></g><g id="ic_golf_course_24px" data-name="ic golf course 24px"><path id="Path_105" data-name="Path 105" class="cls-2" d="M14.46,7.79l-6.7-2.6,0,11.38c0,1.08-.12,1,.47,1s.49,0,.49-.5V9.52Z"/></g></g></g></svg>