<svg viewBox="0 0 296 305" xmlns="http://www.w3.org/2000/svg"><path d="m88.09 17.33a46.76 46.76 0 0 1 40.17-10l83.83 18.34a46.72 46.72 0 0 1 31.91 24.77l40 80.08a46.76 46.76 0 0 1 .93 39.8l-35.55 80.37a46.76 46.76 0 0 1 -31.43 26.44l-82.41 20.55a46.74 46.74 0 0 1 -40.17-8.6l-69.18-54.3a46.74 46.74 0 0 1 -17.89-35.58l-2.3-89.48a46.72 46.72 0 0 1 16.53-36.79z" fill="none"/><g fill="#009b8f" stroke="#009b8f"><path d="m110.7 22.78a31.26 31.26 0 0 0 -12.61 6.46l-65.49 55.52a31 31 0 0 0 -11 24.56l2.27 89.48a31.09 31.09 0 0 0 11.91 23.72l69.12 54.27a31 31 0 0 0 26.79 5.73l82.43-20.52a31 31 0 0 0 21-17.62l35.51-80.38a31 31 0 0 0 -.62-26.53l-40.01-80.11a31 31 0 0 0 -21.24-16.52l-83.9-18.27a31.25 31.25 0 0 0 -14.17.21m-3.76-15.12a46.65 46.65 0 0 1 21.26-.32l83.89 18.27a46.76 46.76 0 0 1 31.92 24.79l40 80.07a46.72 46.72 0 0 1 .93 39.8l-35.56 80.37a46.72 46.72 0 0 1 -31.43 26.44l-82.43 20.55a46.79 46.79 0 0 1 -40.18-8.58l-69.17-54.28a46.76 46.76 0 0 1 -17.87-35.57l-2.29-89.48a46.74 46.74 0 0 1 16.5-36.84l65.5-55.52a46.63 46.63 0 0 1 18.93-9.7z"/><path d="m116.14 180.28-29.92-29.92-10 10 39.89 39.89 85.49-85.47-10-10z" stroke-width="8"/></g></svg>