<svg id="Layer_3" data-name="Layer 3" xmlns="http://www.w3.org/2000/svg" viewBox="0 0 296 305"><defs><style>.cls-1,.cls-2{fill:#aaa;}.cls-2{stroke:#aaa;}</style></defs><path id="ic_create_24px" data-name="ic create 24px" class="cls-1" d="M97.12,181.83v21h21l62.06-62.06-21-21Zm99.39-57.3a5.56,5.56,0,0,0,.06-7.85l-.06-.06-13.13-13.13a5.56,5.56,0,0,0-7.85-.06l-.06.06L165.2,113.76l21,21Z"/><path class="cls-2" d="M110.7,22.78a31.26,31.26,0,0,0-12.61,6.46L32.6,84.76a31,31,0,0,0-11,24.56l2.27,89.48a31.09,31.09,0,0,0,11.91,23.72l69.12,54.27a31,31,0,0,0,26.79,5.73L214.12,262a31,31,0,0,0,21-17.62L270.63,164a31,31,0,0,0-.62-26.53L230,57.36a31,31,0,0,0-21.24-16.52l-83.9-18.27a31.25,31.25,0,0,0-14.17.21M106.93,7.66a46.65,46.65,0,0,1,21.26-.32l83.89,18.27A46.76,46.76,0,0,1,244,50.4l40,80.07a46.72,46.72,0,0,1,.93,39.8l-35.56,80.37a46.72,46.72,0,0,1-31.43,26.44l-82.43,20.55a46.79,46.79,0,0,1-40.18-8.58L26.16,234.77A46.76,46.76,0,0,1,8.29,199.2L6,109.72a46.74,46.74,0,0,1,16.5-36.84L88,17.36A46.63,46.63,0,0,1,106.93,7.66Z"/></svg>