
<svg viewBox="0 0 85 86" version="1.1" xmlns="http://www.w3.org/2000/svg" xmlns:xlink="http://www.w3.org/1999/xlink">
    <defs></defs>
    <g id="Page-1" stroke="none" stroke-width="1" fill="none" fill-rule="evenodd">
        <g id="Group" fill="#161212" fill-rule="nonzero">
            <path d="M29.75,41.94 C26.817368,41.94 24.44,44.317368 24.44,47.25 C24.44,50.182632 26.817368,52.56 29.75,52.56 C32.682632,52.56 35.06,50.182632 35.06,47.25 C35.06,45.8417004 34.5005552,44.4910812 33.504737,43.495263 C32.5089188,42.4994448 31.1582996,41.94 29.75,41.94 Z M55.25,41.94 C52.317368,41.94 49.94,44.317368 49.94,47.25 C49.94,50.182632 52.317368,52.56 55.25,52.56 C58.182632,52.56 60.56,50.182632 60.56,47.25 C60.56,44.317368 58.182632,41.94 55.25,41.94 Z M42.5,0.5 C19.0278981,0.5 -4.4408921e-15,19.5278981 -7.10542736e-15,43 C-8.8817842e-15,66.4721019 19.0278981,85.5 42.5,85.5 C65.9721019,85.5 85,66.4721019 85,43 C85,19.5278981 65.9721019,0.5 42.5,0.5 Z M42.5,77 C23.7223185,77 8.5,61.7776815 8.5,43 C8.5,41.78 8.58,40.56 8.71,39.35 C18.750879,34.8664321 26.6820043,26.691823 30.86,16.52 C38.798347,27.8102622 51.7382852,34.5264931 65.54,34.52 C68.7588321,34.5202984 71.9668696,34.1478171 75.1,33.41 C78.1481266,43.6880378 76.1610867,54.8019853 69.7404518,63.3871227 C63.3198168,71.97226 53.2204835,77.0192022 42.5,77 Z" id="ic_face_24px"></path>
        </g>
    </g>
</svg>