<svg width="100%" viewBox="0 0 250 249" fill="none" xmlns="http://www.w3.org/2000/svg">
<path d="M181.49 242.47C175.557 239.425 165.265 234.133 158.621 230.71C151.977 227.286 144.541 223.696 142.098 222.731L137.656 220.977L135.444 223.113C132.595 225.864 130.445 228.973 126.586 235.925C122.801 242.743 121.37 243.76 116.306 243.228C114.511 243.039 105.983 241.141 97.3543 239.01C81.8195 235.173 78.026 234.525 75.6292 235.301C73.6605 235.939 70.2099 234.7 66.6432 232.074C61.8291 228.53 49.5633 216.538 48.7419 214.573C48.2113 213.303 48.1682 211.591 48.5671 207.635C49.1408 201.947 48.5446 195.502 47.1317 192.121C46.5365 190.696 45.5428 189.797 43.3342 188.683C38.5563 186.273 36.3133 184.182 34.457 180.406C33.0338 177.512 32.6523 175.839 32.1892 170.464C31.4398 161.767 30.6591 157.798 29.0877 154.697C26.514 149.618 20.7501 144.873 12.1523 140.755C5.50649 137.571 4.84664 134.779 8.86273 126.834C10.2456 124.099 14.2049 117.942 17.6614 113.151C30.5155 95.3374 30.9069 94.7415 31.2776 92.423C32.2362 86.4287 43.299 81.1836 53.5473 81.8645C56.1742 82.0391 58.8597 82.344 59.5151 82.5422C60.4733 82.8319 60.7796 82.6118 61.0791 81.4188C61.5918 79.3759 60.4779 73.6697 58.7777 69.6304C57.5711 66.7636 57.419 65.7711 57.7429 62.8802C58.2386 58.4574 59.6215 55.4182 62.1476 53.2003C64.5988 51.0481 66.9192 50.3372 73.063 49.8559L77.6885 49.4936L78.027 47.4686C81.6713 25.6659 98.2583 8.71961 119.596 4.99853C146.449 0.315839 172.473 18.027 177.959 44.7176C178.448 47.0996 178.849 49.1856 178.849 49.3532C178.849 49.5207 181.061 49.6592 183.765 49.661C191.913 49.6652 191.888 49.6504 197.849 58.3658C202.343 64.9353 203.216 65.9251 204.293 65.6722C225.844 60.6113 230.53 59.8764 235.058 60.8475C241.044 62.1311 246.285 66.2273 248.745 71.543C250.651 75.6614 250.371 83.8943 248.01 93.2044C246.991 97.2219 245.798 101.204 245.359 102.054C244.499 103.719 240.305 106.032 232.509 109.138C226.006 111.73 226.466 111.036 227.205 117.132C229.008 132.016 233.658 141.951 241.026 146.665C248.245 151.283 247.844 152.752 231.681 180.859C221.522 198.527 217.057 207.217 217.057 209.326C217.057 210.331 218.361 213.179 220.396 216.622C224.147 222.965 224.764 224.887 223.801 227.213C222.556 230.219 207.106 242.914 200.624 246.257C195.085 249.113 194.033 248.905 181.49 242.47H181.49ZM200.983 234.141C202.562 233.011 205.929 230.322 208.466 228.166C213.613 223.792 213.51 224.332 210.144 219.402C208.017 216.285 206.382 212.028 206.382 209.607C206.382 205.794 209.699 198.962 222.042 177.359C226.945 168.777 231.779 160.123 232.783 158.128L234.609 154.5L231.981 152.281C223.138 144.817 217.127 129.001 216.863 112.501C216.782 107.43 216.868 106.975 218.181 105.563C219.864 103.753 222.089 102.562 230.262 99.0998L236.443 96.4812L237.703 91.7524C239.554 84.8087 240.373 78.4569 239.763 75.7858C239.305 73.7825 238.895 73.3614 235.996 71.9112C232.766 70.2962 232.707 70.2891 228.021 70.9447C225.424 71.308 219.288 72.594 214.385 73.8025C202.582 76.7117 200.056 77.0314 198.246 75.8453C197.47 75.3364 194.553 71.5116 191.765 67.3459L186.696 59.7719H182.783C179.172 59.7719 178.852 59.8693 178.628 61.0361C175.868 75.4026 170.482 87.9874 159.203 106.425C151.361 119.242 134.502 142.615 131.255 145.169C129.54 146.518 127.307 146.628 125.621 145.447C122.964 143.586 108.967 124.33 100.103 110.342C86.7786 89.314 80.9046 76.2549 77.9499 61.0892C77.7314 59.968 77.4527 59.8974 74.1995 60.14C68.4692 60.5671 68.2975 60.6456 67.896 63.0222C67.6247 64.6283 67.9786 66.4601 69.3354 70.469C71.7788 77.6889 71.8937 82.8715 69.7093 87.3343C68.5809 89.6399 67.5836 90.7909 65.8896 91.743C63.4598 93.1086 61.8563 93.1267 56.1323 91.853C54.2987 91.445 52.3007 91.414 50.1499 91.7604C46.1161 92.41 41.1858 94.4887 41.1858 95.5398C41.1858 97.2392 38.1868 102.058 30.8067 112.218C22.1913 124.078 17.5864 130.949 17.5864 131.943C17.5864 132.31 18.5346 133.058 19.6934 133.607C23.1587 135.247 30.6448 140.442 32.8627 142.746C35.7528 145.748 38.7733 150.977 40.1107 155.293C40.7331 157.302 41.5866 162.531 42.0073 166.913C42.428 171.295 43.1106 175.585 43.5242 176.446C44.0355 177.51 45.6744 178.736 48.6451 180.278C53.4604 182.777 55.1224 184.616 56.929 189.444C58.3337 193.198 59.1863 201.054 58.7819 206.514L58.4764 210.64L64.8617 216.86C73.3742 225.153 73.2865 225.103 79.5588 225.248C83.8293 225.346 87.3106 226.019 99.5031 229.101C113.96 232.755 117.041 233.326 117.041 232.352C117.041 231.44 124.068 220.174 126.312 217.489C127.548 216.009 129.826 213.926 131.374 212.86C134.788 210.508 137.211 210.359 142.736 212.162C146.683 213.451 165.148 222.514 183.594 232.216C195.71 238.588 194.898 238.498 200.983 234.141V234.141ZM85.7094 160.724C75.5644 157.045 74.9544 142.669 84.7206 137.42C87.3138 136.026 93.14 136.205 96.1181 137.77C100.476 140.06 103.488 145.797 102.751 150.405C101.44 158.601 93.3555 163.497 85.7094 160.724ZM132.271 127.688C146.779 109.244 160.644 85.2894 165.915 69.5597C170.163 56.8852 169.72 47.2865 164.394 36.5589C162.263 32.2678 160.964 30.5341 156.698 26.2879C152.556 22.1648 150.648 20.7293 146.805 18.8457C139.98 15.4994 135.959 14.5718 128.279 14.5718C120.599 14.5718 116.578 15.4994 109.752 18.8457C103.169 22.0729 95.8207 29.3431 92.4013 36.0113C87.8593 44.8688 86.6843 54.148 88.9225 63.4831C91.8067 75.5131 101.227 94.2283 113.781 112.871C119.135 120.821 127.679 132.256 128.267 132.256C128.493 132.256 130.295 130.2 132.271 127.688V127.688ZM124.975 74.8415C118.529 73.8345 112.802 69.4175 109.807 63.1432C108.552 60.5143 108.332 59.2959 108.332 54.984C108.332 50.3892 108.504 49.5643 110.179 46.1638C117.773 30.7379 139.387 31.0845 146.731 46.75C148.778 51.1159 148.879 58.621 146.948 62.8175C142.933 71.5434 134.256 76.2914 124.975 74.8415ZM133.703 63.364C140.122 59.7098 139.678 49.254 132.965 45.9683C128.416 43.7421 122.659 45.1758 119.997 49.1976C115.976 55.2741 119.15 63.2328 126.233 64.8325C128.662 65.3813 130.949 64.9317 133.703 63.364Z" fill="#D6E9F4"/>
<path d="M175.119 238.222C169.185 235.177 158.894 229.885 152.25 226.462C145.605 223.038 138.17 219.448 135.727 218.483L131.285 216.729L129.073 218.865C126.224 221.616 124.074 224.725 120.215 231.677C116.43 238.495 114.999 239.512 109.935 238.98C108.14 238.791 99.6117 236.893 90.9832 234.762C75.4484 230.925 71.655 230.277 69.2581 231.053C67.2895 231.691 63.8388 230.452 60.2721 227.826C55.4581 224.282 43.1922 212.29 42.3708 210.325C41.8402 209.055 41.7971 207.343 42.196 203.387C42.7697 197.699 42.1735 191.254 40.7606 187.873C40.1654 186.448 39.1717 185.549 36.9631 184.435C32.1852 182.025 29.9422 179.934 28.0859 176.158C26.6627 173.264 26.2812 171.591 25.8181 166.216C25.0687 157.519 24.288 153.55 22.7166 150.449C20.1429 145.37 14.379 140.625 5.78122 136.507C-0.864604 133.323 -1.52445 130.531 2.49164 122.586C3.87448 119.851 7.83385 113.694 11.2903 108.903C24.1444 91.0893 24.5358 90.4935 24.9065 88.175C25.8651 82.1806 36.9279 76.9355 47.1762 77.6164C49.8031 77.791 52.4886 78.0959 53.144 78.2941C54.1022 78.5838 54.4086 78.3638 54.708 77.1707C55.2207 75.1278 54.1068 69.4217 52.4066 65.3823C51.2 62.5155 51.0479 61.5231 51.3718 58.6321C51.8675 54.2093 53.2504 51.1702 55.7765 48.9523C58.2277 46.8001 60.5481 46.0891 66.6919 45.6079L71.3174 45.2455L71.6559 43.2206C75.3002 21.4179 91.8872 4.47156 113.225 0.750487C140.078 -3.93221 166.102 13.7789 171.588 40.4695C172.077 42.8516 172.478 44.9376 172.478 45.1051C172.478 45.2727 174.69 45.4112 177.394 45.4129C185.542 45.4172 185.517 45.4023 191.478 54.1178C195.972 60.6872 196.845 61.6771 197.922 61.4242C219.473 56.3633 224.159 55.6283 228.687 56.5994C234.673 57.8831 239.914 61.9792 242.374 67.295C244.279 71.4134 244 79.6462 241.639 88.9563C240.62 92.9738 239.427 96.9563 238.988 97.8064C238.128 99.4714 233.934 101.784 226.138 104.89C219.635 107.482 220.095 106.788 220.834 112.884C222.637 127.768 227.287 137.703 234.655 142.417C241.874 147.035 241.473 148.504 225.31 176.611C215.151 194.279 210.686 202.969 210.686 205.078C210.686 206.083 211.989 208.931 214.025 212.374C217.775 218.717 218.393 220.639 217.43 222.965C216.185 225.971 200.735 238.666 194.253 242.009C188.714 244.865 187.662 244.657 175.119 238.222H175.119ZM194.612 229.893C196.191 228.763 199.558 226.074 202.095 223.918C207.242 219.544 207.138 220.084 203.773 215.154C201.646 212.037 200.011 207.78 200.011 205.359C200.011 201.546 203.328 194.714 215.671 173.111C220.574 164.529 225.408 155.875 226.412 153.879L228.238 150.252L225.609 148.033C216.767 140.569 210.756 124.753 210.492 108.253C210.411 103.182 210.497 102.727 211.81 101.315C213.493 99.505 215.718 98.3144 223.891 94.8518L230.072 92.2331L231.332 87.5043C233.183 80.5607 234.002 74.2089 233.391 71.5377C232.934 69.5344 232.524 69.1133 229.624 67.6632C226.395 66.0482 226.336 66.041 221.65 66.6966C219.053 67.0599 212.917 68.3459 208.014 69.5545C196.21 72.4637 193.685 72.7833 191.875 71.5973C191.098 71.0883 188.182 67.2636 185.394 63.0979L180.324 55.5238H176.412C172.801 55.5238 172.481 55.6213 172.256 56.7881C169.497 71.1545 164.111 83.7393 152.832 102.177C144.99 114.994 128.131 138.367 124.884 140.921C123.169 142.27 120.936 142.38 119.25 141.199C116.593 139.338 102.596 120.082 93.7323 106.094C80.4075 85.066 74.5336 72.0068 71.5788 56.8411C71.3603 55.7199 71.0816 55.6494 67.8284 55.8919C62.0981 56.3191 61.9265 56.3976 61.5249 58.7741C61.2536 60.3803 61.6075 62.212 62.9643 66.221C65.4077 73.4408 65.5226 78.6235 63.3383 83.0863C62.2098 85.3918 61.2125 86.5429 59.5185 87.4949C57.0887 88.8606 55.4852 88.8786 49.7612 87.6049C47.9276 87.1969 45.9296 87.166 43.7788 87.5124C39.745 88.162 34.8147 90.2407 34.8147 91.2918C34.8147 92.9912 31.8157 97.8102 24.4356 107.97C15.8202 119.83 11.2153 126.701 11.2153 127.695C11.2153 128.062 12.1635 128.81 13.3224 129.359C16.7876 130.999 24.2737 136.194 26.4916 138.498C29.3817 141.5 32.4022 146.729 33.7396 151.045C34.362 153.054 35.2155 158.283 35.6362 162.665C36.0569 167.047 36.7395 171.337 37.1531 172.198C37.6644 173.262 39.3033 174.488 42.274 176.03C47.0894 178.529 48.7513 180.368 50.5579 185.196C51.9626 188.95 52.8152 196.806 52.4108 202.266L52.1053 206.392L58.4906 212.612C67.0031 220.905 66.9154 220.855 73.1877 221C77.4582 221.098 80.9395 221.771 93.1321 224.853C107.589 228.507 110.67 229.078 110.67 228.104C110.67 227.192 117.697 215.926 119.941 213.241C121.177 211.761 123.455 209.678 125.003 208.612C128.416 206.26 130.84 206.111 136.365 207.914C140.312 209.203 158.777 218.266 177.223 227.968C189.339 234.34 188.527 234.25 194.612 229.893V229.893ZM79.3383 156.476C69.1933 152.797 68.5833 138.421 78.3495 133.172C80.9427 131.778 86.7689 131.957 89.747 133.522C94.1047 135.812 97.1167 141.549 96.3799 146.157C95.0692 154.353 86.9844 159.249 79.3383 156.476ZM125.9 123.44C140.408 104.996 154.273 81.0413 159.544 65.3117C163.791 52.6372 163.349 43.0385 158.023 32.3108C155.892 28.0198 154.593 26.286 150.327 22.0399C146.185 17.9167 144.276 16.4812 140.434 14.5977C133.609 11.2514 129.587 10.3237 121.908 10.3237C114.228 10.3237 110.207 11.2514 103.381 14.5977C96.7983 17.8248 89.4496 25.0951 86.0303 31.7633C81.4882 40.6208 80.3132 49.8999 82.5514 59.2351C85.4356 71.265 94.8556 89.9802 107.41 108.622C112.764 116.573 121.308 128.008 121.895 128.008C122.122 128.008 123.924 125.952 125.9 123.44V123.44ZM118.604 70.5935C112.158 69.5864 106.431 65.1694 103.436 58.8952C102.181 56.2662 101.961 55.0479 101.961 50.7359C101.961 46.1411 102.133 45.3163 103.807 41.9157C111.402 26.4899 133.016 26.8365 140.36 42.5019C142.407 46.8678 142.508 54.3729 140.577 58.5694C136.562 67.2954 127.885 72.0434 118.604 70.5935ZM127.332 59.116C133.751 55.4618 133.307 45.0059 126.593 41.7202C122.045 39.4941 116.288 40.9278 113.626 44.9495C109.605 51.0261 112.779 58.9848 119.861 60.5845C122.291 61.1333 124.578 60.6837 127.332 59.116Z" fill="#357594"/>
</svg>
