<svg width="100%" viewBox="0 0 253 280" fill="none" xmlns="http://www.w3.org/2000/svg">
<path d="M136.302 88.3739C140.559 85.2007 145.727 83.4875 151.037 83.4902H207.064C212.374 83.4897 217.542 85.2045 221.798 88.38C226.055 91.5554 229.171 96.021 230.683 101.111L244.415 147.405C244.93 149.064 245.107 150.809 244.937 152.537C244.767 154.266 244.253 155.944 243.426 157.471C242.598 158.998 241.474 160.344 240.118 161.43C238.763 162.516 237.204 163.32 235.533 163.796C233.875 164.304 232.133 164.476 230.407 164.302C228.681 164.128 227.008 163.612 225.485 162.783C223.961 161.954 222.618 160.83 221.535 159.476C220.452 158.122 219.65 156.565 219.175 154.897" stroke="#D5E9F4" stroke-width="15" stroke-miterlimit="10" stroke-linecap="round"/>
<path d="M157.685 201.588V258.713C157.666 260.45 157.993 262.173 158.648 263.782C159.304 265.39 160.274 266.851 161.502 268.079C162.73 269.307 164.192 270.278 165.8 270.933C167.408 271.589 169.131 271.916 170.868 271.896C172.605 271.916 174.328 271.589 175.936 270.933C177.545 270.278 179.006 269.307 180.234 268.079C181.462 266.851 182.432 265.39 183.088 263.782C183.743 262.173 184.071 260.45 184.051 258.713" stroke="#D5E9F4" stroke-width="15" stroke-miterlimit="10" stroke-linecap="round"/>
<path d="M153.291 201.588V258.713C153.271 260.45 153.598 262.173 154.254 263.782C154.909 265.39 155.88 266.851 157.108 268.079C158.336 269.307 159.797 270.278 161.405 270.933C163.014 271.589 164.737 271.916 166.474 271.896C168.211 271.916 169.934 271.589 171.542 270.933C173.15 270.278 174.611 269.307 175.84 268.079C177.068 266.851 178.038 265.39 178.694 263.782C179.349 262.173 179.676 260.45 179.657 258.713" stroke="#DD874A" stroke-width="10" stroke-miterlimit="10" stroke-linecap="round"/>
<path d="M184.051 201.588V258.713C184.031 260.45 184.358 262.173 185.014 263.782C185.669 265.39 186.639 266.851 187.868 268.079C189.095 269.307 190.557 270.278 192.165 270.933C193.774 271.589 195.497 271.916 197.233 271.896C198.97 271.916 200.693 271.589 202.302 270.933C203.91 270.278 205.371 269.307 206.599 268.079C207.827 266.851 208.798 265.39 209.453 263.782C210.109 262.173 210.436 260.45 210.416 258.713V201.588" stroke="#D5E9F4" stroke-width="15" stroke-miterlimit="10" stroke-linecap="round"/>
<path d="M179.656 201.588V258.713C179.636 260.45 179.964 262.173 180.619 263.782C181.274 265.39 182.245 266.851 183.473 268.079C184.701 269.307 186.162 270.278 187.771 270.933C189.379 271.589 191.102 271.916 192.839 271.896C194.576 271.916 196.299 271.589 197.907 270.933C199.515 270.278 200.977 269.307 202.205 268.079C203.433 266.851 204.403 265.39 205.059 263.782C205.714 262.173 206.042 260.45 206.022 258.713V201.588" stroke="#DD874A" stroke-width="10" stroke-miterlimit="10" stroke-linecap="round"/>
<path d="M181.05 60.1263C193.185 60.1263 203.022 50.2894 203.022 38.1549C203.022 26.0205 193.185 16.1836 181.05 16.1836C168.916 16.1836 159.079 26.0205 159.079 38.1549C159.079 50.2894 168.916 60.1263 181.05 60.1263Z" stroke="#D5E9F4" stroke-width="10" stroke-miterlimit="10" stroke-linecap="round"/>
<path d="M179.616 57.1263C191.75 57.1263 201.587 47.2894 201.587 35.1549C201.587 23.0205 191.75 13.1836 179.616 13.1836C167.481 13.1836 157.645 23.0205 157.645 35.1549C157.645 47.2894 167.481 57.1263 179.616 57.1263Z" stroke="#DD874A" stroke-width="10" stroke-miterlimit="10" stroke-linecap="round"/>
<path d="M158.193 197.743H236.782L210.416 109.857" stroke="#D5E9F4" stroke-width="15" stroke-linecap="round" stroke-linejoin="round"/>
<path d="M153.8 197.743H232.388L206.022 109.857" stroke="#DD874A" stroke-width="10" stroke-linecap="round" stroke-linejoin="round"/>
<path fill-rule="evenodd" clip-rule="evenodd" d="M112.264 110.517C112.264 104.691 116.985 99.9697 122.811 99.9697C128.635 99.9697 133.357 104.691 133.357 110.517C133.357 116.341 128.635 121.063 122.811 121.063C116.985 121.063 112.264 116.341 112.264 110.517ZM122.811 91.7305C112.435 91.7305 104.025 100.141 104.025 110.517C104.025 120.891 112.435 129.302 122.811 129.302C133.186 129.302 141.596 120.891 141.596 110.517C141.596 100.141 133.186 91.7305 122.811 91.7305ZM105.211 146.902C101.636 146.902 98.2071 148.322 95.6793 150.85C93.1515 153.378 91.7311 156.806 91.7311 160.382V192.647V192.672V192.696C91.7234 193.306 91.8382 193.912 92.0689 194.477C92.299 195.042 92.6396 195.556 93.0713 195.987C93.5025 196.418 94.0161 196.76 94.5813 196.99C95.1465 197.22 95.7518 197.335 96.3621 197.328L96.411 197.327L96.4604 197.328C97.0701 197.335 97.676 197.22 98.2412 196.99C98.8064 196.76 99.32 196.418 99.7512 195.987C100.183 195.556 100.523 195.042 100.754 194.477C100.968 193.952 101.082 193.391 101.091 192.825V192.672V192.647V190.814C101.091 188.538 102.936 186.694 105.211 186.694C107.486 186.694 109.331 188.538 109.331 190.814V191.174V191.18V192.626C109.331 192.709 109.331 192.792 109.331 192.876V263.045V263.069L109.33 263.092C109.324 263.702 109.438 264.308 109.669 264.873C109.899 265.439 110.24 265.952 110.672 266.384C111.103 266.816 111.617 267.156 112.182 267.387C112.748 267.617 113.353 267.733 113.963 267.725L114.011 267.725L114.058 267.725C114.668 267.733 115.274 267.617 115.839 267.387C116.404 267.156 116.918 266.816 117.35 266.384C117.781 265.952 118.123 265.439 118.353 264.873C118.583 264.308 118.698 263.702 118.691 263.092C118.665 260.817 120.488 258.952 122.763 258.926C125.039 258.899 126.904 260.723 126.93 262.998C126.935 263.489 126.913 263.979 126.862 264.466C126.91 264.728 126.934 264.999 126.93 265.277C126.928 265.407 126.957 265.581 127.077 265.803C127.202 266.034 127.435 266.331 127.837 266.634C128.24 266.938 128.777 267.219 129.436 267.422C130.094 267.624 130.823 267.731 131.574 267.725L131.61 267.724L131.645 267.725C132.396 267.731 133.126 267.624 133.783 267.422C134.442 267.219 134.979 266.938 135.382 266.634C135.784 266.331 136.018 266.034 136.142 265.803C136.263 265.581 136.292 265.407 136.29 265.277L136.289 265.245V265.214V192.281C136.289 192.248 136.29 192.216 136.29 192.185V190.814C136.29 188.538 138.135 186.694 140.41 186.694C142.685 186.694 144.529 188.538 144.529 190.814V192.647V192.672V192.696C144.522 193.306 144.637 193.912 144.867 194.477C145.097 195.042 145.438 195.556 145.87 195.987C146.301 196.418 146.814 196.76 147.38 196.99C147.945 197.22 148.551 197.335 149.161 197.328L149.21 197.327L149.259 197.328C149.869 197.335 150.474 197.22 151.039 196.99C151.605 196.76 152.118 196.418 152.549 195.987C152.981 195.556 153.322 195.042 153.552 194.477C153.783 193.912 153.897 193.306 153.89 192.696L153.89 192.672V192.647V160.382C153.89 156.806 152.47 153.378 149.941 150.85C147.414 148.322 143.985 146.902 140.41 146.902H105.211ZM96.411 205.567C98.011 205.579 99.5985 205.293 101.091 204.722V263.024C101.075 264.723 101.397 266.409 102.039 267.983C102.683 269.565 103.638 271.002 104.846 272.21C106.054 273.418 107.491 274.372 109.073 275.017C110.64 275.655 112.319 275.978 114.011 275.965C115.703 275.978 117.381 275.655 118.949 275.017C120.226 274.496 121.409 273.774 122.454 272.879C122.593 272.994 122.735 273.106 122.879 273.215C124.116 274.147 125.529 274.841 127.018 275.298C128.496 275.752 130.054 275.974 131.61 275.964C133.165 275.974 134.724 275.752 136.202 275.298C137.69 274.841 139.104 274.147 140.34 273.215C141.577 272.282 142.64 271.11 143.39 269.723C144.139 268.338 144.546 266.791 144.528 265.187V204.721C146.022 205.293 147.61 205.579 149.21 205.567C150.902 205.581 152.58 205.259 154.147 204.62C155.73 203.976 157.167 203.021 158.376 201.813C159.584 200.605 160.538 199.167 161.183 197.585C161.824 196.01 162.146 194.324 162.129 192.625V160.382C162.129 154.621 159.841 149.097 155.768 145.024C151.695 140.951 146.17 138.662 140.41 138.662H105.211C99.4507 138.662 93.9266 140.951 89.8531 145.024C85.7801 149.097 83.4918 154.621 83.4918 160.382V192.625C83.4753 194.325 83.7967 196.01 84.4382 197.585C85.0825 199.167 86.0372 200.605 87.2451 201.813C88.4535 203.021 89.891 203.976 91.4735 204.62C93.0411 205.259 94.7192 205.581 96.411 205.567Z" fill="#D5EAF3"/>
<path fill-rule="evenodd" clip-rule="evenodd" d="M107.869 110.517C107.869 104.691 112.591 99.9697 118.416 99.9697C124.241 99.9697 128.962 104.691 128.962 110.517C128.962 116.341 124.241 121.063 118.416 121.063C112.591 121.063 107.869 116.341 107.869 110.517ZM118.416 91.7305C108.041 91.7305 99.6301 100.141 99.6301 110.517C99.6301 120.891 108.041 129.302 118.416 129.302C128.791 129.302 137.202 120.891 137.202 110.517C137.202 100.141 128.791 91.7305 118.416 91.7305ZM100.817 146.902C97.2412 146.902 93.8126 148.322 91.2848 150.85C88.757 153.378 87.3365 156.806 87.3365 160.382V192.647V192.672V192.696C87.3288 193.306 87.4436 193.912 87.6743 194.477C87.9045 195.042 88.245 195.556 88.6768 195.987C89.108 196.418 89.6216 196.76 90.1868 196.99C90.752 197.22 91.3573 197.335 91.9676 197.328L92.0164 197.327L92.0659 197.328C92.6756 197.335 93.2814 197.22 93.8466 196.99C94.4119 196.76 94.9254 196.418 95.3566 195.987C95.7884 195.556 96.1289 195.042 96.3591 194.477C96.5733 193.952 96.6875 193.391 96.6969 192.825V192.672V192.647V190.814C96.6969 188.538 98.5414 186.694 100.817 186.694C103.092 186.694 104.936 188.538 104.936 190.814V191.174V191.18V192.626C104.937 192.709 104.937 192.792 104.936 192.876V263.045V263.069L104.936 263.092C104.929 263.702 105.044 264.308 105.274 264.873C105.505 265.439 105.846 265.952 106.277 266.384C106.709 266.816 107.222 267.156 107.787 267.387C108.353 267.617 108.959 267.733 109.569 267.725L109.616 267.725L109.663 267.725C110.274 267.733 110.879 267.617 111.445 267.387C112.01 267.156 112.523 266.816 112.955 266.384C113.387 265.952 113.728 265.439 113.958 264.873C114.188 264.308 114.304 263.702 114.296 263.092C114.271 260.817 116.094 258.952 118.369 258.926C120.644 258.899 122.509 260.723 122.535 262.998C122.541 263.489 122.518 263.979 122.468 264.466C122.516 264.728 122.539 264.999 122.535 265.277C122.533 265.407 122.562 265.581 122.682 265.803C122.807 266.034 123.041 266.331 123.443 266.634C123.846 266.938 124.382 267.219 125.042 267.422C125.699 267.624 126.429 267.731 127.179 267.725L127.215 267.724L127.251 267.725C128.002 267.731 128.731 267.624 129.389 267.422C130.048 267.219 130.584 266.938 130.988 266.634C131.39 266.331 131.623 266.034 131.748 265.803C131.868 265.581 131.897 265.407 131.895 265.277L131.894 265.245V265.214V192.281C131.894 192.248 131.895 192.216 131.896 192.185V190.814C131.896 188.538 133.74 186.694 136.015 186.694C138.29 186.694 140.135 188.538 140.135 190.814V192.647V192.672V192.696C140.128 193.306 140.242 193.912 140.473 194.477C140.703 195.042 141.043 195.556 141.475 195.987C141.907 196.418 142.42 196.76 142.985 196.99C143.55 197.22 144.156 197.335 144.766 197.328L144.815 197.327L144.864 197.328C145.474 197.335 146.08 197.22 146.645 196.99C147.21 196.76 147.724 196.418 148.155 195.987C148.587 195.556 148.928 195.042 149.158 194.477C149.388 193.912 149.503 193.306 149.496 192.696L149.495 192.672V192.647V160.382C149.495 156.806 148.075 153.378 145.547 150.85C143.019 148.322 139.59 146.902 136.015 146.902H100.817ZM92.0164 205.567C93.6165 205.579 95.2039 205.293 96.6969 204.722V263.024C96.681 264.723 97.0028 266.409 97.6444 267.983C98.2887 269.565 99.2434 271.002 100.451 272.21C101.659 273.418 103.097 274.372 104.679 275.017C106.246 275.655 107.924 275.978 109.616 275.965C111.308 275.978 112.986 275.655 114.554 275.017C115.832 274.496 117.015 273.774 118.059 272.879C118.198 272.994 118.34 273.106 118.484 273.215C119.721 274.147 121.135 274.841 122.623 275.298C124.101 275.752 125.66 275.974 127.215 275.964C128.771 275.974 130.329 275.752 131.807 275.298C133.296 274.841 134.71 274.147 135.946 273.215C137.183 272.282 138.245 271.11 138.995 269.723C139.744 268.338 140.152 266.791 140.134 265.187V204.721C141.627 205.293 143.215 205.579 144.815 205.567C146.507 205.581 148.185 205.259 149.753 204.62C151.335 203.976 152.773 203.021 153.981 201.813C155.19 200.605 156.144 199.167 156.789 197.585C157.43 196.01 157.751 194.324 157.734 192.625V160.382C157.734 154.621 155.446 149.097 151.373 145.024C147.3 140.951 141.775 138.662 136.015 138.662H100.817C95.0562 138.662 89.532 140.951 85.4585 145.024C81.3856 149.097 79.0973 154.621 79.0973 160.382V192.625C79.0808 194.325 79.4021 196.01 80.0437 197.585C80.688 199.167 81.6427 200.605 82.8505 201.813C84.059 203.021 85.4964 203.976 87.0789 204.62C88.6466 205.259 90.3246 205.581 92.0164 205.567Z" fill="#DC874A"/>
<path fill-rule="evenodd" clip-rule="evenodd" d="M61.2459 8.23926C51.387 8.23926 43.3945 16.2317 43.3945 26.091C43.3945 35.9502 51.387 43.9427 61.2459 43.9427C71.1056 43.9427 79.0977 35.9502 79.0977 26.091C79.0977 16.2317 71.1056 8.23926 61.2459 8.23926ZM35.1552 26.091C35.1552 11.6813 46.8365 0 61.2459 0C75.6559 0 87.3369 11.6813 87.3369 26.091C87.3369 40.5006 75.6559 52.1819 61.2459 52.1819C46.8365 52.1819 35.1552 40.5006 35.1552 26.091ZM19.1504 85.0632C23.3224 80.8914 28.9807 78.5476 34.8807 78.5476H87.6121C93.512 78.5476 99.1701 80.8914 103.343 85.0632C104.843 86.5633 106.106 88.2556 107.109 90.0825H116.153C114.64 86.0486 112.273 82.3426 109.168 79.2375C103.451 73.52 95.697 70.3083 87.6121 70.3083H34.8807C26.7955 70.3083 19.0415 73.52 13.3243 79.2375C7.60728 84.9544 4.39545 92.7081 4.39545 100.794V149.107C4.37188 151.385 4.80214 153.644 5.66121 155.754C6.52357 157.871 7.80061 159.794 9.41725 161.411C11.0339 163.028 12.9575 164.305 15.0749 165.167C17.1771 166.023 19.4284 166.454 21.6979 166.433C23.9674 166.454 26.2186 166.023 28.3209 165.167C29.1677 164.822 29.9835 164.411 30.761 163.939V254.571C30.7383 256.848 31.1692 259.107 32.0286 261.216C32.8913 263.333 34.1682 265.256 35.7845 266.872C37.4008 268.488 39.3238 269.765 41.4405 270.628C43.5426 271.485 45.7938 271.915 48.0635 271.895C50.3331 271.915 52.5842 271.485 54.6864 270.628C56.8031 269.765 58.7261 268.488 60.3424 266.872C60.6566 266.557 60.9581 266.232 61.2465 265.895C61.5343 266.232 61.8359 266.557 62.1501 266.872C63.7666 268.488 65.6891 269.765 67.806 270.628C69.9082 271.485 72.1597 271.915 74.4293 271.895C76.6989 271.915 78.9499 271.485 81.052 270.628C83.169 269.765 85.092 268.488 86.708 266.872C88.3245 265.256 89.6011 263.333 90.464 261.216C91.3231 259.107 91.7543 256.848 91.7317 254.571V200.445C88.2482 199.071 85.3447 196.545 83.4925 193.336V254.593V254.617V254.64C83.5062 255.828 83.2821 257.007 82.8339 258.107C82.3857 259.206 81.7221 260.206 80.8817 261.046C80.0419 261.886 79.0427 262.549 77.9425 262.998C76.8423 263.446 75.6641 263.67 74.476 263.656H74.4293H74.3821C73.194 263.67 72.0158 263.446 70.9155 262.998C69.8153 262.549 68.8162 261.886 67.9763 261.046C67.1359 260.206 66.4724 259.206 66.0242 258.107C65.6067 257.082 65.3837 255.989 65.3661 254.884L65.3667 254.823C65.3667 254.797 65.3667 254.772 65.3667 254.746C65.3667 254.687 65.3667 254.629 65.3661 254.572V179.89C65.3661 177.615 63.5216 175.771 61.2465 175.771C58.971 175.771 57.1267 177.615 57.1267 179.89V254.571C57.1256 254.675 57.1255 254.779 57.1264 254.884C57.1088 255.989 56.8859 257.082 56.4683 258.107C56.02 259.206 55.3563 260.206 54.5163 261.046C53.6764 261.886 52.6771 262.549 51.577 262.998C50.477 263.446 49.2984 263.67 48.1106 263.656L48.0635 267.776L48.0163 263.656C46.8285 263.67 45.6499 263.446 44.5499 262.998C43.4498 262.549 42.4505 261.886 41.6105 261.046C40.7706 260.206 40.1069 259.206 39.6586 258.107C39.2103 257.007 38.9864 255.828 39 254.64L39.0003 254.617V254.593V149.469C39.0015 149.349 39.0016 149.228 39.0003 149.108V100.794C39.0003 98.5184 37.1559 96.6739 34.8807 96.6739C32.6055 96.6739 30.7611 98.5184 30.7611 100.794V109.558L30.761 109.582V149.418C30.7446 150.525 30.522 151.619 30.1039 152.646C29.6559 153.746 28.9924 154.745 28.1525 155.585C27.3126 156.425 26.3132 157.089 25.2132 157.537C24.1131 157.984 22.9345 158.208 21.7468 158.194L21.6979 162.313L21.649 158.194C20.4612 158.208 19.2827 157.984 18.1827 157.537C17.0825 157.089 16.0832 156.425 15.2433 155.585C14.4034 154.745 13.7399 153.746 13.2919 152.646C12.8438 151.546 12.6203 150.367 12.6344 149.179L12.6347 149.155V149.131V100.794C12.6347 94.8937 14.9785 89.235 19.1504 85.0632Z" fill="#D5E9F4"/>
<path fill-rule="evenodd" clip-rule="evenodd" d="M56.8514 8.23926C46.9924 8.23926 39 16.2317 39 26.091C39 35.9502 46.9924 43.9427 56.8514 43.9427C66.7111 43.9427 74.7031 35.9502 74.7031 26.091C74.7031 16.2317 66.7111 8.23926 56.8514 8.23926ZM30.7607 26.091C30.7607 11.6813 42.442 0 56.8514 0C71.2613 0 82.9424 11.6813 82.9424 26.091C82.9424 40.5006 71.2613 52.1819 56.8514 52.1819C42.442 52.1819 30.7607 40.5006 30.7607 26.091ZM14.7558 85.0632C18.9278 80.8914 24.5862 78.5476 30.4862 78.5476H83.2176C89.1174 78.5476 94.7756 80.8914 98.948 85.0632C100.448 86.5633 101.711 88.2556 102.715 90.0825H111.759C110.245 86.0486 107.879 82.3426 104.774 79.2375C99.0567 73.52 91.3025 70.3083 83.2176 70.3083H30.4862C22.401 70.3083 14.6469 73.52 8.92982 79.2375C3.21274 84.9544 0.000918758 92.7081 0.000918758 100.794V149.107C-0.0226542 151.385 0.407606 153.644 1.26668 155.754C2.12903 157.871 3.40608 159.794 5.02272 161.411C6.63936 163.028 8.56295 164.305 10.6803 165.167C12.7826 166.023 15.0338 166.454 17.3034 166.433C19.5729 166.454 21.8241 166.023 23.9264 165.167C24.7731 164.822 25.5889 164.411 26.3665 163.939V254.571C26.3438 256.848 26.7747 259.107 27.6341 261.216C28.4967 263.333 29.7737 265.256 31.39 266.872C33.0062 268.488 34.9292 269.765 37.0459 270.628C39.1481 271.485 41.3993 271.915 43.6689 271.895C45.9385 271.915 48.1897 271.485 50.2919 270.628C52.4086 269.765 54.3316 268.488 55.9478 266.872C56.262 266.557 56.5636 266.232 56.852 265.895C57.1398 266.232 57.4413 266.557 57.7555 266.872C59.3721 268.488 61.2946 269.765 63.4115 270.628C65.5136 271.485 67.7651 271.915 70.0348 271.895C72.3044 271.915 74.5554 271.485 76.6575 270.628C78.7744 269.765 80.6975 268.488 82.3135 266.872C83.93 265.256 85.2065 263.333 86.0695 261.216C86.9285 259.107 87.3597 256.848 87.3372 254.571V200.445C83.8537 199.071 80.9501 196.545 79.098 193.336V254.593V254.617V254.64C79.1117 255.828 78.8876 257.007 78.4394 258.107C77.9911 259.206 77.3276 260.206 76.4872 261.046C75.6474 261.886 74.6482 262.549 73.548 262.998C72.4478 263.446 71.2696 263.67 70.0815 263.656H70.0348H69.9875C68.7994 263.67 67.6212 263.446 66.521 262.998C65.4208 262.549 64.4216 261.886 63.5818 261.046C62.7414 260.206 62.0778 259.206 61.6296 258.107C61.2122 257.082 60.9892 255.989 60.9716 254.884L60.9721 254.823C60.9721 254.797 60.9721 254.772 60.9721 254.746C60.9721 254.687 60.9721 254.629 60.9716 254.572V179.89C60.9716 177.615 59.1271 175.771 56.852 175.771C54.5765 175.771 52.7321 177.615 52.7321 179.89V254.571C52.7311 254.675 52.731 254.779 52.7318 254.884C52.7143 255.989 52.4914 257.082 52.0737 258.107C51.6254 259.206 50.9618 260.206 50.1218 261.046C49.2818 261.886 48.2825 262.549 47.1825 262.998C46.0824 263.446 44.9039 263.67 43.7161 263.656L43.6689 267.776L43.6218 263.656C42.4339 263.67 41.2554 263.446 40.1554 262.998C39.0553 262.549 38.056 261.886 37.216 261.046C36.376 260.206 35.7124 259.206 35.2641 258.107C34.8158 257.007 34.5919 255.828 34.6055 254.64L34.6058 254.617V254.593V149.469C34.607 149.349 34.607 149.228 34.6058 149.108V100.794C34.6058 98.5184 32.7614 96.6739 30.4862 96.6739C28.2109 96.6739 26.3666 98.5184 26.3666 100.794V109.558L26.3665 109.582V149.418C26.35 150.525 26.1275 151.619 25.7094 152.646C25.2613 153.746 24.5979 154.745 23.758 155.585C22.918 156.425 21.9187 157.089 20.8186 157.537C19.7186 157.984 18.54 158.208 17.3523 158.194L17.3034 162.313L17.2544 158.194C16.0667 158.208 14.8882 157.984 13.7881 157.537C12.688 157.089 11.6886 156.425 10.8487 155.585C10.0089 154.745 9.3454 153.746 8.89735 152.646C8.4493 151.546 8.2258 150.367 8.23986 149.179L8.24019 149.155V149.131V100.794C8.24019 94.8937 10.5839 89.235 14.7558 85.0632Z" fill="#DC874A"/>
<path d="M136.908 88.3739C141.165 85.2007 146.333 83.4875 151.643 83.4902H207.67C212.981 83.4897 218.149 85.2045 222.405 88.38C226.661 91.5554 229.778 96.021 231.289 101.111L245.022 147.405C245.536 149.064 245.714 150.809 245.543 152.537C245.374 154.266 244.859 155.944 244.032 157.471C243.204 158.998 242.08 160.344 240.724 161.43C239.369 162.516 237.811 163.32 236.14 163.796C234.482 164.304 232.739 164.476 231.013 164.302C229.288 164.128 227.615 163.612 226.091 162.783C224.568 161.954 223.225 160.83 222.142 159.476C221.058 158.122 220.256 156.565 219.782 154.897" stroke="#DD874A" stroke-width="10" stroke-miterlimit="10" stroke-linecap="round"/>
</svg>
