<svg width="150" height="50" viewBox="0 0 455 503" fill="none" xmlns="http://www.w3.org/2000/svg">
<path d="M279.074 367V471C279.038 474.162 279.634 477.299 280.827 480.227C282.02 483.155 283.787 485.815 286.023 488.051C288.258 490.287 290.919 492.054 293.847 493.247C296.775 494.44 299.912 495.036 303.074 495V495C306.236 495.036 309.373 494.44 312.301 493.247C315.229 492.054 317.889 490.287 320.125 488.051C322.361 485.815 324.127 483.155 325.321 480.227C326.514 477.299 327.11 474.162 327.074 471" stroke="#0095CD" stroke-width="15" stroke-miterlimit="10" stroke-linecap="round"/>
<path d="M327.074 367V471C327.038 474.162 327.634 477.299 328.827 480.227C330.02 483.155 331.787 485.815 334.023 488.051C336.258 490.287 338.919 492.054 341.847 493.247C344.775 494.44 347.912 495.036 351.074 495C354.236 495.036 357.373 494.44 360.301 493.247C363.229 492.054 365.889 490.287 368.125 488.051C370.361 485.815 372.127 483.155 373.321 480.227C374.514 477.299 375.11 474.162 375.074 471V367" stroke="#0095CD" stroke-width="15" stroke-miterlimit="10" stroke-linecap="round"/>
<path d="M327.074 104C349.165 104 367.074 86.0914 367.074 64C367.074 41.9086 349.165 24 327.074 24C304.982 24 287.074 41.9086 287.074 64C287.074 86.0914 304.982 104 327.074 104Z" stroke="#0095CD" stroke-width="15" stroke-miterlimit="10" stroke-linecap="round"/>
<path d="M280 360H423.074L375.074 200" stroke="#0095CD" stroke-width="15" stroke-linecap="round" stroke-linejoin="round"/>
<path fill-rule="evenodd" clip-rule="evenodd" d="M196.382 201.201C196.382 190.596 204.978 182 215.583 182C226.187 182 234.783 190.596 234.783 201.201C234.783 211.805 226.187 220.401 215.583 220.401C204.978 220.401 196.382 211.805 196.382 201.201ZM215.583 167C196.694 167 181.382 182.312 181.382 201.201C181.382 220.089 196.694 235.401 215.583 235.401C234.471 235.401 249.783 220.089 249.783 201.201C249.783 182.312 234.471 167 215.583 167ZM183.542 267.442C177.033 267.442 170.791 270.028 166.189 274.63C161.587 279.232 159.001 285.474 159.001 291.983V350.724V350.769L159.001 350.813C158.987 351.924 159.196 353.026 159.616 354.055C160.035 355.084 160.655 356.019 161.441 356.805C162.226 357.59 163.161 358.211 164.19 358.63C165.219 359.049 166.321 359.258 167.432 359.245L167.521 359.244L167.611 359.245C168.721 359.258 169.824 359.049 170.853 358.63C171.882 358.211 172.817 357.59 173.602 356.805C174.388 356.019 175.008 355.084 175.427 354.055C175.817 353.099 176.025 352.079 176.042 351.048V350.769L176.042 350.769V350.724V347.387C176.042 343.244 179.4 339.887 183.542 339.887C187.684 339.887 191.042 343.244 191.042 347.387V348.043L191.042 348.054V350.685C191.043 350.836 191.043 350.988 191.042 351.14V478.887V478.93L191.041 478.973C191.029 480.084 191.238 481.187 191.658 482.216C192.077 483.245 192.698 484.18 193.484 484.966C194.269 485.752 195.204 486.372 196.233 486.792C197.263 487.211 198.365 487.421 199.476 487.408L199.562 487.407L199.648 487.408C200.759 487.421 201.862 487.211 202.891 486.792C203.92 486.372 204.855 485.752 205.641 484.966C206.427 484.18 207.048 483.245 207.467 482.216C207.886 481.187 208.096 480.084 208.083 478.973C208.036 474.831 211.355 471.435 215.497 471.388C219.639 471.34 223.035 474.659 223.082 478.801C223.092 479.695 223.051 480.588 222.959 481.474C223.047 481.952 223.089 482.445 223.082 482.95C223.078 483.187 223.131 483.504 223.35 483.909C223.577 484.329 224.002 484.87 224.734 485.422C225.468 485.975 226.445 486.487 227.645 486.855C228.842 487.223 230.17 487.419 231.537 487.407L231.602 487.406L231.667 487.407C233.034 487.419 234.362 487.223 235.559 486.855C236.759 486.487 237.736 485.975 238.47 485.422C239.202 484.87 239.627 484.329 239.854 483.909C240.073 483.504 240.126 483.187 240.122 482.95L240.121 482.893V482.836V350.057C240.121 349.998 240.122 349.94 240.123 349.882V347.387C240.123 343.244 243.481 339.887 247.623 339.887C251.765 339.887 255.123 343.244 255.123 347.387V350.724V350.769L255.123 350.813C255.11 351.924 255.319 353.026 255.738 354.055C256.157 355.084 256.777 356.019 257.563 356.805C258.349 357.59 259.283 358.211 260.312 358.63C261.341 359.049 262.444 359.258 263.555 359.245L263.644 359.244L263.733 359.245C264.844 359.258 265.946 359.049 266.975 358.63C268.004 358.211 268.939 357.59 269.724 356.805C270.51 356.019 271.131 355.084 271.55 354.055C271.969 353.026 272.178 351.924 272.165 350.813L272.164 350.769V350.724V291.983C272.164 285.474 269.579 279.232 264.976 274.63C260.374 270.028 254.132 267.442 247.623 267.442H183.542ZM167.521 374.245C170.434 374.268 173.324 373.746 176.042 372.707V478.848C176.013 481.942 176.599 485.011 177.767 487.877C178.94 490.757 180.678 493.373 182.877 495.572C185.076 497.771 187.693 499.509 190.573 500.683C193.426 501.845 196.482 502.432 199.562 502.408C202.643 502.432 205.698 501.845 208.552 500.683C210.878 499.735 213.032 498.419 214.933 496.79C215.186 497 215.445 497.204 215.707 497.402C217.959 499.098 220.532 500.363 223.242 501.195C225.933 502.021 228.77 502.425 231.602 502.407C234.434 502.425 237.271 502.021 239.962 501.195C242.672 500.363 245.246 499.098 247.497 497.402C249.749 495.704 251.683 493.57 253.048 491.045C254.412 488.523 255.154 485.707 255.121 482.787V372.706C257.84 373.746 260.731 374.268 263.644 374.245C266.724 374.27 269.779 373.684 272.633 372.522C275.514 371.349 278.131 369.611 280.331 367.411C282.531 365.212 284.268 362.594 285.442 359.713C286.609 356.847 287.195 353.777 287.164 350.683V291.983C287.164 281.496 282.998 271.439 275.583 264.023C268.168 256.608 258.11 252.442 247.623 252.442H183.542C173.055 252.442 162.998 256.608 155.582 264.023C148.167 271.439 144.001 281.496 144.001 291.983V350.684C143.971 353.778 144.556 356.847 145.724 359.713C146.897 362.594 148.635 365.212 150.834 367.411C153.034 369.611 155.651 371.349 158.532 372.522C161.386 373.684 164.441 374.27 167.521 374.245Z" fill="#0095CD"/>
<path fill-rule="evenodd" clip-rule="evenodd" d="M103.501 15C85.5522 15 71.0015 29.5507 71.0015 47.5C71.0015 65.4492 85.5522 80 103.501 80C121.451 80 136.001 65.4492 136.001 47.5C136.001 29.5507 121.451 15 103.501 15ZM56.0015 47.5C56.0015 21.2665 77.2679 0 103.501 0C129.735 0 151.001 21.2665 151.001 47.5C151.001 73.7335 129.735 95 103.501 95C77.2679 95 56.0015 73.7335 56.0015 47.5ZM26.8638 154.862C34.4591 147.267 44.7604 143 55.5017 143H151.502C162.243 143 172.544 147.267 180.14 154.862C182.871 157.593 185.171 160.674 186.998 164H203.463C200.707 156.656 196.399 149.909 190.746 144.256C180.338 133.847 166.221 128 151.502 128H55.5017C40.7822 128 26.6655 133.847 16.2572 144.256C5.84897 154.664 0.00167265 168.78 0.00167265 183.5V271.458C-0.0412432 275.604 0.742069 279.717 2.30605 283.558C3.87602 287.412 6.20094 290.914 9.14413 293.858C12.0873 296.801 15.5893 299.126 19.4441 300.696C23.2714 302.254 27.3699 303.038 31.5017 303C35.6335 303.038 39.7319 302.254 43.5593 300.696C45.1008 300.068 46.586 299.319 48.0016 298.459V463.46C47.9602 467.606 48.7447 471.718 50.3093 475.557C51.8798 479.411 54.2046 482.912 57.1471 485.855C60.0896 488.797 63.5905 491.122 67.4441 492.692C71.2712 494.252 75.3696 495.036 79.5016 495C83.6335 495.036 87.7319 494.252 91.559 492.692C95.4126 491.122 98.9135 488.797 101.856 485.855C102.428 485.282 102.977 484.689 103.502 484.076C104.026 484.689 104.575 485.282 105.147 485.855C108.09 488.797 111.59 491.122 115.444 492.692C119.271 494.252 123.37 495.036 127.502 495C131.634 495.036 135.732 494.252 139.559 492.692C143.413 491.122 146.914 488.797 149.856 485.855C152.799 482.912 155.123 479.411 156.694 475.557C158.258 471.718 159.043 467.606 159.002 463.46V364.92C152.66 362.42 147.374 357.821 144.002 351.979V463.5V463.543L144.002 463.586C144.027 465.748 143.619 467.894 142.803 469.897C141.987 471.899 140.779 473.719 139.249 475.248C137.72 476.777 135.901 477.985 133.898 478.801C131.895 479.618 129.75 480.025 127.587 480L127.502 480L127.416 480C125.253 480.025 123.108 479.618 121.105 478.801C119.102 477.985 117.283 476.777 115.754 475.248C114.224 473.719 113.016 471.899 112.2 469.897C111.44 468.031 111.034 466.041 111.002 464.029L111.003 463.918C111.003 463.871 111.003 463.825 111.003 463.778C111.003 463.672 111.003 463.566 111.002 463.461V327.5C111.002 323.358 107.644 320 103.502 320C99.3594 320 96.0016 323.358 96.0016 327.5V463.46C95.9997 463.65 95.9995 463.839 96.0011 464.029C95.9691 466.041 95.5633 468.031 94.803 469.897C93.9868 471.899 92.7786 473.719 91.2494 475.248C89.7202 476.777 87.9009 477.985 85.8982 478.801C83.8955 479.618 81.7499 480.025 79.5874 480L79.5016 487.5L79.4157 480C77.2532 480.025 75.1076 479.618 73.105 478.801C71.1022 477.985 69.2829 476.777 67.7537 475.248C66.2245 473.719 65.0163 471.899 64.2001 469.897C63.384 467.894 62.9763 465.748 63.0011 463.586L63.0016 463.543V463.5V272.116C63.0039 271.897 63.0039 271.678 63.0017 271.459V183.5C63.0017 179.358 59.6438 176 55.5017 176C51.3595 176 48.0017 179.358 48.0017 183.5V199.457L48.0016 199.5V272.023C47.9716 274.038 47.5664 276.031 46.8053 277.9C45.9896 279.902 44.7817 281.722 43.2526 283.251C41.7235 284.78 39.9041 285.988 37.9014 286.804C35.8987 287.619 33.753 288.026 31.5907 288.001L31.5017 295.5L31.4126 288.001C29.2503 288.026 27.1047 287.619 25.102 286.804C23.0992 285.988 21.2798 284.78 19.7507 283.251C18.2217 281.722 17.0138 279.902 16.1981 277.9C15.3824 275.897 14.9755 273.751 15.0011 271.589L15.0017 271.545V271.5V183.5C15.0017 172.759 19.2686 162.457 26.8638 154.862Z" fill="#0095CD"/>
<path d="M249.248 160.891C256.998 155.114 266.407 151.995 276.074 152H378.074C387.742 151.999 397.151 155.121 404.899 160.902C412.648 166.683 418.322 174.813 421.074 184.08L446.074 268.36C447.011 271.38 447.334 274.557 447.024 277.704C446.715 280.851 445.779 283.905 444.273 286.685C442.766 289.465 440.719 291.916 438.251 293.894C435.784 295.871 432.946 297.335 429.904 298.2C426.886 299.125 423.713 299.439 420.571 299.122C417.43 298.806 414.384 297.866 411.61 296.357C408.837 294.848 406.392 292.802 404.42 290.336C402.448 287.871 400.987 285.037 400.124 282" stroke="#0095CD" stroke-width="15" stroke-miterlimit="10" stroke-linecap="round"/>
</svg>
