<svg width="100%" viewBox="0 0 250 281" fill="none" xmlns="http://www.w3.org/2000/svg">
<path d="M44.6942 280.37C36.216 279.839 26.6459 276.739 15.4603 270.901C4.55545 265.21 2.39369 263.381 2.39369 259.847C2.39369 257.612 3.19139 256.086 4.93528 254.985C7.17919 253.568 9.38991 254.028 13.91 256.852C19.0513 260.064 27.4932 264.175 32.8857 266.093C41.5105 269.161 40.1118 269.082 85.9505 269.082C131.464 269.082 129.636 269.193 131.083 266.334C132.664 263.21 131.761 260.357 128.585 258.446C127.142 257.578 126.069 257.531 102.395 257.314L77.7092 257.088L76.3589 255.708C73.8365 253.13 74.3173 248.796 77.3342 246.916C78.7675 246.023 79.4898 246.003 109.585 246.001C143.975 245.999 142.484 246.134 144.233 242.831C145.699 240.061 144.576 236.232 141.876 234.798C141.056 234.363 134.337 234.238 112.599 234.257C81.564 234.284 82.4547 234.361 81.0226 231.532C79.6368 228.793 80.4 225.719 82.891 224.003C84.3078 223.028 84.385 223.025 116.991 222.836C142.201 222.689 149.904 222.515 150.691 222.074C154.129 220.147 154.318 214.093 151.009 211.877C149.958 211.174 147.008 211.117 114.28 211.173C74.8119 211.241 76.7624 211.386 75.3166 208.273C74.3523 206.196 74.4058 204.453 75.4897 202.637C77.1231 199.899 76.5419 199.951 107.813 199.753C134.991 199.581 136.452 199.53 137.815 198.705C140.388 197.148 141.244 193.912 139.866 190.945C138.457 187.912 140.795 188.068 96.7471 188.068C52.8006 188.068 54.6417 188.186 52.8999 185.266C51.8229 183.462 51.7619 181.708 52.7052 179.677C54.1418 176.583 54.2946 176.552 69.0558 176.301C78.6871 176.136 82.6169 175.915 83.3359 175.495C86.548 173.62 86.3507 167.431 83.0228 165.672C81.1672 164.692 55.6333 164.675 50.1578 165.651C45.0011 166.57 41.1401 167.859 38.2955 169.61C36.1301 170.944 35.4374 171.814 31.5262 178.111C29.1299 181.969 26.5744 185.737 25.8473 186.484L24.5254 187.842L15.257 187.98C7.50702 188.096 5.76782 188.002 4.64154 187.407C1.07463 185.522 1.06543 179.642 4.62586 177.493C5.60868 176.9 7.12253 176.753 12.2486 176.753C17.7878 176.753 18.7354 176.647 19.3201 175.961C19.6914 175.525 21.5381 172.671 23.4238 169.618C27.4254 163.138 29.393 161.223 34.9494 158.397C41.5696 155.03 50.9749 153.218 61.838 153.218H66.0898L66.582 151.776C67.4553 149.216 71.0203 143.822 73.6184 141.13C80.1592 134.352 88.4141 130.877 97.8465 130.932C110.406 131.004 120.994 137.429 127.267 148.786L128.676 151.337L130.578 150.477C134.469 148.718 138.244 148.133 144.133 148.375C151.074 148.66 155.258 149.957 161.187 153.662L162.515 154.493L165.247 152.797C169.962 149.868 174.505 148.578 180.935 148.342C185.609 148.17 187.109 148.293 190.23 149.099C201.613 152.04 210.338 160.235 214.249 171.656C215.412 175.055 215.634 176.435 215.798 181.317C215.957 186.057 215.833 187.652 215.056 190.822C212.772 200.138 207.137 207.757 198.883 212.689L196.13 214.334L197.428 218.286C198.415 221.294 198.779 223.379 198.95 227.012C199.256 233.509 198.339 238.059 195.532 243.978C191.059 253.408 182.85 260.055 172.798 262.386L168.715 263.334L167.174 266.095C166.327 267.613 164.134 270.384 162.303 272.252C158.65 275.977 154.388 278.498 149.688 279.714C146.348 280.578 139.306 280.595 136.146 279.746C134.086 279.193 133.394 279.187 131.51 279.708C129.75 280.195 121.114 280.357 89.4307 280.498C67.5053 280.596 47.3738 280.538 44.694 280.37L44.6942 280.37ZM149.614 267.582C154.047 265.509 157.043 262.004 158.885 256.737C160.139 253.151 161.804 251.883 165.262 251.883C176.129 251.883 185.71 243.489 187.555 232.353C188.524 226.501 186.92 220.07 183.173 214.785C180.199 210.59 181.979 206.401 187.32 205.02C191.722 203.883 194.617 202.178 197.991 198.739C205.062 191.529 206.75 181.936 202.549 172.828C198.128 163.245 187.76 157.913 177.708 160.055C171.525 161.372 165.017 166.539 161.905 172.6C161.029 174.307 159.871 175.825 159.039 176.359C155.599 178.568 150.766 175.82 150.787 171.668C150.797 169.641 151.874 166.773 153.503 164.437C154.43 163.106 154.436 163.023 153.667 162.448C150.005 159.712 140.541 158.899 135.496 160.887C134.035 161.463 131.643 162.772 130.181 163.796C127.912 165.385 127.188 165.658 125.227 165.661C122.228 165.665 120.517 164.129 119.755 160.745C115.446 141.607 91.8645 135.867 80.0768 151.087L78.6016 152.992L81.9429 153.52C88.3392 154.531 92.9768 157.963 95.5637 163.6C96.6662 166.002 96.906 167.114 96.9308 169.936C96.9465 171.819 96.8181 174.012 96.6437 174.809L96.3266 176.26L117.683 176.393L139.04 176.527L142.003 177.961C145.52 179.664 148.357 182.517 150.148 186.153C151.299 188.49 151.426 189.195 151.434 193.273C151.438 195.762 151.342 198.182 151.221 198.651C151.041 199.344 151.434 199.657 153.308 200.315C159.57 202.515 163.769 207.949 164.715 215.08C165.527 221.195 161.964 228.649 156.731 231.782L154.859 232.903L155.476 234.997C155.815 236.149 156.093 238.365 156.093 239.921C156.093 247.487 151.584 254.102 144.798 256.493C142.662 257.245 142.591 257.326 142.788 258.765C143.11 261.117 143.058 265.992 142.693 267.674L142.359 269.209L144.798 268.951C146.139 268.81 148.307 268.194 149.614 267.582L149.614 267.582ZM241.801 153.258C241.314 153.036 238.91 150.645 236.458 147.945C229.101 139.841 191.128 98.0986 166.88 71.4599C143.271 45.5226 142.584 44.8634 138.818 44.514L137.268 44.3702L137.047 51.8379C136.8 60.1584 136.326 61.7818 133.412 64.2988C130.015 67.2328 129.646 67.2864 113.899 67.1361C98.148 66.9857 98.3835 67.0261 95.3858 63.963C92.638 61.1553 92.1171 59.2346 91.9441 51.2722C91.8164 45.3926 91.6758 44.1439 91.1417 44.1439C89.8839 44.1439 87.887 42.7538 87.2028 41.4019C86.6161 40.2426 86.5302 38.2495 86.6416 28.3861L86.7732 16.7391L88.2234 13.731C90.0201 10.0045 93.5215 6.60521 97.073 5.13982L99.6184 4.08953L126.416 3.96802C151.315 3.85511 153.321 3.90322 154.733 4.64691C159.195 6.9984 159.195 12.5131 154.733 14.8379C153.338 15.5646 151.093 15.6293 127.251 15.6299C101.593 15.6306 101.274 15.6417 100.112 16.5758C97.939 18.3224 97.6251 19.5711 97.6251 26.4703V32.8291H118.793C141.754 32.8291 142.557 32.9007 147.677 35.4067C150.744 36.908 153.086 39.3084 174.939 63.3586C184.428 73.8022 204.919 96.3073 220.474 113.37C236.029 130.433 249.051 145.088 249.411 145.937C250.265 147.947 249.853 150.146 248.285 151.939C247.294 153.072 246.652 153.366 244.876 153.499C243.672 153.589 242.288 153.481 241.801 153.258H241.801ZM125.876 50.1407L125.752 44.3702L114.568 44.2493L103.383 44.1283V50.0198V55.9113H114.692H126L125.876 50.1407ZM36.8436 141.716C32.34 140.387 28.2486 136.868 26.0093 132.399C24.8754 130.136 24.762 129.478 24.762 125.158C24.762 120.958 24.8989 120.107 25.9404 117.837C28.3004 112.693 33.0283 109.004 38.569 107.983C40.7658 107.579 41.933 107.614 44.514 108.164C50.2461 109.385 54.2374 112.666 56.7719 118.241C57.7827 120.464 57.9633 121.474 57.972 124.953C57.9818 128.783 57.8746 129.272 56.3236 132.479C54.3727 136.515 52.1565 138.738 48.201 140.63C44.84 142.237 40.1337 142.687 36.8436 141.716V141.716ZM44.0906 129.878C45.8853 128.93 47.2581 125.833 46.7254 123.935C46.0817 121.642 45.4553 120.782 43.8674 120.012C41.8543 119.036 40.1344 119.083 38.4039 120.161C35.1375 122.196 34.7416 126.466 37.5734 129.118C39.38 130.809 41.7946 131.091 44.0906 129.878V129.878ZM160.744 135.864C155.766 134.177 152.357 131.239 150.107 126.697C148.889 124.237 148.784 123.652 148.784 119.274C148.784 114.932 148.897 114.288 150.087 111.812C151.747 108.357 154.726 105.315 158.096 103.633C160.481 102.442 161.183 102.311 165.173 102.306C169.122 102.302 169.901 102.443 172.359 103.603C177.633 106.092 181.539 111.713 182.076 117.585C182.749 124.948 178.787 131.892 172.135 135.006C169.113 136.421 163.611 136.836 160.744 135.864V135.864ZM168.355 124.013C169.924 122.963 170.831 121.227 170.831 119.274C170.831 115.965 167.915 113.167 164.862 113.547C160.141 114.135 158.012 119.8 161.303 123.016C163.559 125.22 166.03 125.57 168.355 124.013ZM95.0155 118.497C93.9995 117.986 93.2391 117.108 92.667 115.787L91.8209 113.832L94.7439 98.7888C96.3515 90.5151 97.8729 83.2057 98.1246 82.5457C98.8661 80.6018 100.491 79.3618 102.618 79.1169C106.209 78.7033 108.699 81.014 108.699 84.7612C108.699 87.6557 103.064 115.493 102.207 116.828C101.372 118.131 99.1645 119.28 97.5287 119.264C96.9727 119.258 95.8418 118.913 95.0155 118.497V118.497ZM128.766 118.389C127.987 117.904 127.067 117.039 126.721 116.467C125.756 114.87 120.088 85.0297 120.414 83.257C120.817 81.0611 123.316 78.9934 125.568 78.9934C127.861 78.9934 129.768 80.0181 130.625 81.7106C131.338 83.1206 137.051 111.663 137.04 113.761C137.03 115.528 136.132 117.068 134.428 118.242C132.593 119.506 130.639 119.556 128.766 118.389V118.389ZM241.725 89.7264C240.335 88.9327 186.14 37.443 185.219 36.0411C183.503 33.4295 184.857 29.2882 187.844 28.013C189.788 27.1832 191.751 27.4775 193.589 28.8743C194.323 29.4314 207.117 41.4798 222.021 55.6485C251.65 83.8161 250.848 82.9128 249.492 86.5521C248.342 89.6389 244.396 91.2518 241.725 89.7264V89.7264ZM170.753 22.7523C166.919 20.7389 166.919 14.6917 170.753 12.6656C173.781 11.0658 177.519 12.6119 178.651 15.9327C179.203 17.5495 179.201 18.0144 178.636 19.5315C177.463 22.679 173.611 24.2531 170.752 22.7523H170.753Z" fill="#D5E8F4"/>
<path d="M42.7333 276.449C34.2551 275.917 24.685 272.817 13.4994 266.979C2.59452 261.288 0.432751 259.46 0.432751 255.926C0.432751 253.69 1.23046 252.164 2.97434 251.063C5.21825 249.646 7.42897 250.106 11.9491 252.93C17.0904 256.142 25.5322 260.253 30.9247 262.171C39.5496 265.239 38.1509 265.16 83.9896 265.16C129.503 265.16 127.675 265.271 129.122 262.412C130.703 259.288 129.8 256.436 126.624 254.524C125.181 253.656 124.108 253.61 100.434 253.393L75.7483 253.166L74.3979 251.786C71.8756 249.208 72.3563 244.874 75.3732 242.995C76.8066 242.102 77.5289 242.081 107.624 242.079C142.014 242.077 140.523 242.212 142.272 238.91C143.739 236.139 142.615 232.31 139.915 230.876C139.095 230.441 132.376 230.317 110.638 230.336C79.6031 230.363 80.4938 230.439 79.0616 227.61C77.6759 224.872 78.439 221.797 80.93 220.082C82.3469 219.106 82.424 219.103 115.03 218.914C140.24 218.767 147.943 218.593 148.73 218.152C152.168 216.225 152.357 210.171 149.048 207.955C147.997 207.252 145.047 207.195 112.319 207.251C72.851 207.319 74.8014 207.464 73.3557 204.351C72.3913 202.275 72.4449 200.531 73.5288 198.715C75.1621 195.978 74.5809 196.029 105.852 195.831C133.03 195.659 134.491 195.608 135.854 194.783C138.427 193.226 139.283 189.99 137.905 187.023C136.496 183.99 138.834 184.146 94.7862 184.146C50.8397 184.146 52.6807 184.264 50.939 181.345C49.862 179.54 49.801 177.786 50.7443 175.755C52.1808 172.662 52.3336 172.63 67.0948 172.379C76.7261 172.215 80.6559 171.993 81.375 171.573C84.587 169.698 84.3897 163.509 81.0618 161.75C79.2063 160.77 53.6724 160.753 48.1968 161.729C43.0402 162.648 39.1791 163.937 36.3346 165.688C34.1691 167.022 33.4764 167.892 29.5653 174.189C27.1689 178.047 24.6134 181.815 23.8864 182.562L22.5645 183.92L13.296 184.058C5.54608 184.174 3.80689 184.08 2.68061 183.485C-0.886312 181.6 -0.895508 175.721 2.66492 173.571C3.64774 172.978 5.16159 172.831 10.2876 172.831C15.8269 172.831 16.7744 172.725 17.3591 172.039C17.7305 171.604 19.5771 168.749 21.4628 165.696C25.4644 159.216 27.432 157.301 32.9885 154.475C39.6087 151.108 49.0139 149.297 59.877 149.297H64.1289L64.6211 147.854C65.4943 145.294 69.0594 139.901 71.6574 137.208C78.1983 130.43 86.4531 126.956 95.8856 127.01C108.445 127.082 119.033 133.507 125.306 144.864L126.715 147.415L128.617 146.555C132.508 144.796 136.284 144.211 142.173 144.453C149.113 144.738 153.297 146.035 159.226 149.74L160.554 150.571L163.286 148.875C168.001 145.946 172.544 144.656 178.974 144.42C183.648 144.249 185.148 144.371 188.269 145.177C199.652 148.118 208.377 156.313 212.288 167.735C213.451 171.133 213.673 172.513 213.837 177.395C213.996 182.136 213.872 183.73 213.095 186.9C210.811 196.216 205.176 203.835 196.922 208.767L194.169 210.412L195.467 214.364C196.454 217.372 196.818 219.457 196.989 223.09C197.295 229.587 196.378 234.137 193.571 240.056C189.098 249.486 180.889 256.133 170.837 258.465L166.754 259.412L165.213 262.173C164.366 263.691 162.174 266.462 160.342 268.33C156.689 272.055 152.427 274.576 147.727 275.792C144.387 276.656 137.345 276.673 134.185 275.824C132.125 275.271 131.433 275.266 129.549 275.786C127.789 276.273 119.153 276.435 87.4698 276.576C65.5444 276.674 45.4129 276.617 42.7331 276.449L42.7333 276.449ZM147.653 263.66C152.086 261.587 155.082 258.082 156.924 252.815C158.178 249.229 159.843 247.961 163.301 247.961C174.168 247.961 183.75 239.567 185.594 228.431C186.563 222.579 184.959 216.148 181.212 210.863C178.238 206.668 180.018 202.479 185.359 201.099C189.761 199.961 192.657 198.256 196.03 194.817C203.101 187.607 204.789 178.015 200.588 168.906C196.168 159.323 185.799 153.991 175.747 156.133C169.564 157.45 163.056 162.617 159.944 168.679C159.068 170.385 157.911 171.903 157.078 172.437C153.638 174.646 148.806 171.898 148.826 167.746C148.836 165.719 149.913 162.851 151.542 160.515C152.469 159.185 152.475 159.101 151.706 158.526C148.044 155.79 138.58 154.977 133.536 156.965C132.074 157.541 129.682 158.85 128.22 159.874C125.951 161.463 125.227 161.736 123.266 161.739C120.267 161.743 118.556 160.207 117.794 156.824C113.485 137.685 89.9036 131.945 78.1158 147.165L76.6406 149.07L79.982 149.598C86.3782 150.609 91.0158 154.041 93.6027 159.678C94.7052 162.08 94.9451 163.192 94.9699 166.014C94.9856 167.897 94.8571 170.09 94.6828 170.887L94.3656 172.338L115.722 172.471L137.079 172.605L140.042 174.039C143.559 175.742 146.396 178.595 148.187 182.231C149.338 184.568 149.465 185.273 149.473 189.351C149.477 191.84 149.382 194.26 149.26 194.73C149.08 195.422 149.473 195.735 151.347 196.394C157.609 198.593 161.808 204.027 162.754 211.158C163.566 217.273 160.003 224.727 154.77 227.86L152.899 228.981L153.515 231.075C153.855 232.227 154.132 234.443 154.132 235.999C154.132 243.565 149.624 250.18 142.837 252.571C140.701 253.324 140.63 253.404 140.827 254.843C141.15 257.196 141.097 262.07 140.732 263.752L140.398 265.287L142.837 265.029C144.179 264.888 146.346 264.272 147.653 263.66L147.653 263.66ZM239.84 149.337C239.353 149.114 236.949 146.723 234.497 144.023C227.14 135.919 189.167 94.1767 164.919 67.5381C141.31 41.6008 140.623 40.9415 136.857 40.5921L135.307 40.4483L135.086 47.9161C134.839 56.2366 134.365 57.8599 131.451 60.377C128.054 63.3109 127.685 63.3646 111.938 63.2142C96.1871 63.0638 96.4226 63.1042 93.4249 60.0412C90.677 57.2334 90.1561 55.3127 89.9831 47.3503C89.8555 41.4707 89.7148 40.222 89.1808 40.222C87.9229 40.222 85.926 38.8319 85.2419 37.48C84.6552 36.3208 84.5692 34.3276 84.6807 24.4642L84.8123 12.8172L86.2625 9.80916C88.0591 6.08258 91.5606 2.68333 95.112 1.21794L97.6574 0.167658L124.455 0.0461411C149.354 -0.0667692 151.361 -0.0186563 152.772 0.72503C157.234 3.07652 157.234 8.59118 152.772 10.916C151.377 11.6427 149.133 11.7074 125.29 11.708C99.6325 11.7087 99.3134 11.7198 98.1513 12.6539C95.9781 14.4006 95.6642 15.6492 95.6642 22.5485V28.9072H116.832C139.793 28.9072 140.596 28.9788 145.716 31.4849C148.783 32.9861 151.125 35.3865 172.978 59.4367C182.467 69.8803 202.958 92.3854 218.513 109.448C234.068 126.511 247.09 141.166 247.45 142.015C248.304 144.025 247.892 146.224 246.324 148.017C245.333 149.15 244.691 149.444 242.915 149.577C241.711 149.667 240.328 149.559 239.84 149.337H239.84ZM123.915 46.2188L123.791 40.4483L112.607 40.3274L101.423 40.2065V46.0979V51.9894H112.731H124.039L123.915 46.2188ZM34.8826 137.794C30.379 136.465 26.2877 132.946 24.0484 128.477C22.9145 126.214 22.8011 125.556 22.8011 121.236C22.8011 117.036 22.9379 116.185 23.9795 113.915C26.3395 108.771 31.0674 105.082 36.608 104.061C38.8049 103.657 39.9721 103.692 42.553 104.242C48.2851 105.463 52.2764 108.745 54.811 114.319C55.8218 116.543 56.0023 117.552 56.0111 121.031C56.0209 124.861 55.9136 125.35 54.3627 128.558C52.4118 132.593 50.1955 134.817 46.24 136.708C42.879 138.315 38.1727 138.765 34.8826 137.794V137.794ZM42.1297 125.956C43.9243 125.008 45.2972 121.911 44.7645 120.014C44.1207 117.72 43.4943 116.86 41.9065 116.09C39.8933 115.114 38.1735 115.161 36.4429 116.239C33.1766 118.274 32.7807 122.544 35.6124 125.196C37.4191 126.887 39.8336 127.169 42.1297 125.956V125.956ZM158.783 131.942C153.805 130.255 150.396 127.317 148.146 122.775C146.928 120.315 146.824 119.73 146.824 115.352C146.824 111.01 146.936 110.366 148.126 107.89C149.786 104.436 152.765 101.393 156.135 99.7109C158.52 98.5202 159.222 98.3887 163.212 98.3845C167.161 98.3804 167.94 98.521 170.398 99.6808C175.672 102.17 179.578 107.791 180.115 113.663C180.788 121.026 176.826 127.97 170.174 131.084C167.152 132.5 161.65 132.914 158.783 131.942V131.942ZM166.394 120.091C167.963 119.041 168.87 117.305 168.87 115.352C168.87 112.043 165.954 109.245 162.901 109.625C158.18 110.213 156.051 115.878 159.342 119.094C161.598 121.298 164.069 121.648 166.394 120.091ZM93.0545 114.575C92.0386 114.064 91.2782 113.186 90.706 111.865L89.8599 109.91L92.7829 94.8669C94.3906 86.5932 95.9119 79.2838 96.1637 78.6238C96.9052 76.6799 98.5301 75.44 100.657 75.195C104.248 74.7814 106.738 77.0922 106.738 80.8393C106.738 83.7339 101.103 111.571 100.246 112.906C99.4108 114.21 97.2036 115.359 95.5678 115.342C95.0118 115.336 93.8809 114.991 93.0545 114.575V114.575ZM126.805 114.467C126.026 113.982 125.106 113.117 124.76 112.545C123.795 110.949 118.127 81.1078 118.453 79.3351C118.856 77.1392 121.356 75.0715 123.607 75.0715C125.9 75.0715 127.807 76.0962 128.664 77.7887C129.378 79.1987 135.09 107.741 135.079 109.839C135.069 111.606 134.171 113.146 132.467 114.32C130.632 115.584 128.678 115.634 126.805 114.467V114.467ZM239.764 85.8045C238.374 85.0108 184.179 33.5211 183.258 32.1192C181.542 29.5076 182.896 25.3663 185.883 24.0911C187.827 23.2614 189.79 23.5556 191.628 24.9524C192.362 25.5095 205.156 37.5579 220.06 51.7266C249.69 79.8942 248.887 78.9909 247.531 82.6302C246.381 85.717 242.435 87.3299 239.764 85.8045V85.8045ZM168.792 18.8304C164.958 16.8171 164.958 10.7698 168.793 8.74376C171.82 7.1439 175.558 8.69 176.69 12.0108C177.242 13.6276 177.24 14.0925 176.675 15.6096C175.502 18.7572 171.65 20.3312 168.791 18.8304H168.792Z" fill="#867FD1"/>
</svg>
