<svg viewBox="0 0 200 124" fill="none" xmlns="http://www.w3.org/2000/svg">
<path d="M39.1956 0.000897194C36.8008 0.0371382 34.0636 1.16399 32.5902 2.01375C29.7778 4.84283 32.097 8.33026 29.7768 10.5672C24.2926 12.4752 18.106 9.18617 12.7625 12.9363C9.08334 15.4273 8.36504 25.8127 14.9419 23.2667C17.3675 21.5489 10.2376 16.7069 19.7241 16.6867C23.2806 16.3167 26.8798 16.5625 30.3413 17.4109C31.7406 19.613 29.9753 23.0537 32.0719 25.6381C31.631 26.0077 31.0379 26.2884 30.2002 26.4247C24.1536 27.3458 21.4112 31.8842 18.6691 36.2923H14.3797C9.38767 36.2268 4.25647 36.2276 2.35811 41.491C-0.0899197 46.2221 1.70388 51.9184 6.50412 54.6486C9.2462 56.096 8.82467 58.2684 8.82467 60.4396V72.9401C8.89505 92.4805 13.1852 98.2032 32.7313 104.782C33.3641 105.111 33.7863 106.099 33.7863 106.099L30.6213 116.23C19.1528 116.559 9.2153 116.559 1.26597 117.915C-0.721003 119.24 -0.721886 122.792 3.84344 122.792C12.0722 123.208 151.677 123.193 188.236 122.689C193.474 122.617 196.597 122.535 196.915 122.442C199.724 121.627 198.297 118.099 198.013 117.915C196.025 116.626 174.827 116.626 170.537 116.626C170.524 113.085 169.71 109.587 168.148 106.363C171.593 102.349 179.186 105.309 178.624 98.1377C173.702 95.506 169.696 99.6508 164.985 99.6508H36.528C25.3894 100.012 15.8714 92.203 14.8007 81.8221C14.0977 73.3348 14.8007 64.715 14.8007 56.2936C31.1829 54.9777 31.1834 54.9778 42.9251 61.5571C47.6327 64.3922 53.5453 64.837 58.6762 62.7416C61.9096 61.1339 64.969 59.2382 67.815 57.0825C70.9087 57.8062 73.5114 59.7806 76.7456 59.4517C82.7354 58.8157 88.7901 59.8949 94.1117 62.545C100.855 65.5683 108.9 64.3047 114.219 59.3869C116.188 57.7421 117.454 55.5046 120.829 55.5046H187.413C187.413 61.6891 187.765 67.0834 187.413 72.4126C186.921 78.9918 189.734 86.4919 181.226 91.0974C179.82 91.6237 179.679 95.3745 182.21 97.6773C189.181 94.5119 193.447 87.7463 193.037 80.5056V60.3077C193.107 58.5971 191.983 56.2946 194.444 55.1761C199.538 52.5421 201.469 46.5932 198.803 41.7525C196.483 35.3706 190.014 36.688 184.741 36.688H141.571C141.167 29.3193 135.299 23.2243 127.509 22.0821C125.329 8.66038 117.876 1.42272 106.415 0.435826C94.955 -0.551067 86.728 5.89633 81.3844 20.1733C78.1502 20.8312 74.9863 21.6864 72.1739 18.5283C69.8111 15.6289 65.8241 14.333 62.0495 15.2384C58.8856 16.0279 56.9873 14.4494 54.4562 13.3967C53.2825 12.7254 52.0004 12.2357 50.6596 11.9484C45.2587 10.8111 39.861 12.7516 36.5974 16.5594V8.59365C38.3824 3.28238 43.6285 8.33172 43.6285 3.39726C43.1547 0.787442 41.3086 -0.0311104 39.1956 0.000897194ZM104.882 5.34073C111.253 5.42057 117.22 8.82093 120.126 14.3847C121.813 18.2006 123.711 22.2785 118.227 25.305H117.877C115.947 26.4811 115.41 28.9033 116.681 30.7003C122.587 29.9108 129.758 23.5295 134.75 32.0168C136.504 34.9193 135.957 38.5619 133.415 40.8988C127.158 47.4122 121.884 40.898 115.415 38.99C115.345 48.5957 112.885 57.4117 102.76 58.7275C92.6353 60.0434 88.4855 52.1492 84.8294 45.5699L84.6906 45.7667C79.558 48.0036 83.4946 52.0168 80.0495 54.0563C73.2997 55.0432 68.5887 52.8717 67.2528 44.4502C61.9093 50.4373 60.4339 60.4382 50.3796 58.7275C40.3253 57.0169 39.4809 49.0562 40.3246 41.5558C33.9264 40.5031 35.3325 45.701 33.2935 47.4116C27.3172 46.1616 23.8025 43.136 24.9275 37.8726C26.2634 31.2275 32.3079 30.6349 38.9873 31.8849C38.9873 30.1362 38.9086 28.4068 38.9342 26.7741C38.9873 26.2751 38.9873 24 38.9873 24C39.2734 22 39.7879 21.5176 39.7879 21.5176C41.2734 19.3333 42.4753 17.7885 46.0185 17.08C54.2447 15.4352 55.5806 22.4113 58.1118 26.8852C63.7366 27.3457 60.0109 21.8183 63.1046 20.7656C68.87 19.3182 69.0113 24.8453 71.894 27.806C79.0656 23.3321 83.5642 27.4111 87.15 32.4772C92.2826 29.3191 87.9945 26.2927 87.9945 23.5952C87.0989 15.6576 92.3036 8.22856 100.439 5.83123C101.92 5.48197 103.411 5.32232 104.882 5.34073ZM152.207 41.2018C156.128 41.1871 160.136 41.4239 164.069 41.4239H193.669C196.411 48.3979 193.67 50.174 187.413 50.174H138.195H129.337C135.379 42.4845 143.581 41.2336 152.207 41.2018ZM13.2992 41.3592C15.013 41.3754 16.7708 41.6229 18.6691 41.6229L23.8725 50.174L9.38688 49.8455C7.39674 47.8576 6.92292 44.9276 8.19306 42.4766C9.91565 41.5556 11.5854 41.3427 13.2992 41.3592ZM49.8151 104.85H152.327C162.17 104.915 163.719 106.558 163.719 116.559H37.0902C39.3401 105.308 39.7608 104.85 49.8151 104.85Z" fill="black"/>
</svg>
