<svg id="Component_16_1" data-name="Component 16 – 1" xmlns="http://www.w3.org/2000/svg" width="56" height="45" viewBox="0 0 41 45">
  <path id="Rectangle_22" data-name="Rectangle 22" d="M0,0H37a4,4,0,0,1,4,4V41a4,4,0,0,1-4,4H0a0,0,0,0,1,0,0V0A0,0,0,0,1,0,0Z" fill="#f5f5f5"/>
  <g id="Group_1183" data-name="Group 1183" transform="translate(-264.25 -383.85)">
    <path id="Path_13" data-name="Path 13" d="M279.688,407.663v-8.946a.867.867,0,1,0-1.734,0v8.946a2.569,2.569,0,0,0,0,4.839v3.481a.867.867,0,0,0,1.734,0V412.5a2.569,2.569,0,0,0,0-4.839Zm-.867,3.256a.837.837,0,1,1,.837-.837A.838.838,0,0,1,278.821,410.919Z" fill="#2b2f56"/>
    <path id="Path_14" data-name="Path 14" d="M315.868,401.564v-2.847a.867.867,0,1,0-1.734,0v2.847a2.569,2.569,0,0,0,0,4.839v9.581a.867.867,0,0,0,1.734,0V406.4a2.569,2.569,0,0,0,0-4.839ZM315,404.82a.837.837,0,1,1,.837-.837A.838.838,0,0,1,315,404.82Z" transform="translate(-29.907)" fill="#2b2f56"/>
    <path id="Path_15" data-name="Path 15" d="M352.048,406.928v-8.211a.867.867,0,1,0-1.734,0v8.211a2.569,2.569,0,0,0,0,4.839v4.216a.867.867,0,0,0,1.734,0v-4.216a2.569,2.569,0,0,0,0-4.839Zm-.867,3.256a.837.837,0,1,1,.837-.836A.838.838,0,0,1,351.181,410.184Z" transform="translate(-59.815)" fill="#2b2f56"/>
  </g>
</svg>
