<svg width="15" height="16" viewBox="0 0 15 16" fill="none" xmlns="http://www.w3.org/2000/svg">
<path d="M3.56075 7.64423V0.73007C3.56075 0.536445 3.48384 0.350744 3.34692 0.21383C3.21001 0.0769161 3.02431 0 2.83068 0C2.63706 0 2.45136 0.0769161 2.31444 0.21383C2.17753 0.350744 2.10061 0.536445 2.10061 0.73007V7.64423C1.68034 7.79424 1.31674 8.07054 1.05965 8.43528C0.80256 8.80002 0.664551 9.23535 0.664551 9.68159C0.664551 10.1278 0.80256 10.5632 1.05965 10.9279C1.31674 11.2926 1.68034 11.5689 2.10061 11.719V15.2691C2.10061 15.4627 2.17753 15.6484 2.31444 15.7853C2.45136 15.9222 2.63706 15.9992 2.83068 15.9992C3.02431 15.9992 3.21001 15.9222 3.34692 15.7853C3.48384 15.6484 3.56075 15.4627 3.56075 15.2691V11.719C3.98103 11.5689 4.34462 11.2926 4.60171 10.9279C4.85881 10.5632 4.99681 10.1278 4.99681 9.68159C4.99681 9.23535 4.85881 8.80002 4.60171 8.43528C4.34462 8.07054 3.98103 7.79424 3.56075 7.64423ZM2.83068 10.386C2.69125 10.386 2.55495 10.3446 2.43902 10.2671C2.3231 10.1897 2.23277 10.0795 2.17945 9.9507C2.12613 9.82186 2.11223 9.6801 2.13949 9.54336C2.16676 9.40662 2.23396 9.28103 2.33261 9.18249C2.43126 9.08396 2.55691 9.01691 2.69369 8.98981C2.83046 8.96271 2.97222 8.97678 3.101 9.03026C3.22977 9.08373 3.33978 9.1742 3.41713 9.29022C3.49447 9.40623 3.53566 9.54257 3.53549 9.682C3.53505 9.86871 3.46063 10.0476 3.32852 10.1796C3.19642 10.3115 3.01739 10.3857 2.83068 10.386Z" fill="#2B2F56"/>
<path d="M8.22848 3.1274V0.73007C8.22848 0.536445 8.15156 0.350744 8.01465 0.21383C7.87773 0.0769161 7.69203 0 7.49841 0C7.30478 0 7.11908 0.0769161 6.98217 0.21383C6.84525 0.350744 6.76834 0.536445 6.76834 0.73007V3.1274C6.34806 3.27741 5.98447 3.55371 5.72738 3.91845C5.47028 4.2832 5.33228 4.71852 5.33228 5.16477C5.33228 5.61101 5.47028 6.04633 5.72738 6.41108C5.98447 6.77582 6.34806 7.05214 6.76834 7.20215V15.2699C6.76834 15.4636 6.84525 15.6493 6.98217 15.7862C7.11908 15.9231 7.30478 16 7.49841 16C7.69203 16 7.87773 15.9231 8.01465 15.7862C8.15156 15.6493 8.22848 15.4636 8.22848 15.2699V7.19961C8.64875 7.0496 9.01235 6.7733 9.26944 6.40856C9.52653 6.04382 9.66454 5.60849 9.66454 5.16225C9.66454 4.716 9.52653 4.28068 9.26944 3.91594C9.01235 3.5512 8.64875 3.27489 8.22848 3.12489V3.1274ZM7.49756 5.86916C7.35816 5.86916 7.22188 5.82783 7.10598 5.75039C6.99007 5.67294 6.89975 5.56286 6.84641 5.43408C6.79306 5.30529 6.7791 5.16356 6.80629 5.02685C6.83349 4.89013 6.90061 4.76454 6.99918 4.66597C7.09775 4.56741 7.22333 4.50028 7.36005 4.47309C7.49677 4.44589 7.6385 4.45986 7.76728 4.5132C7.89607 4.56655 8.00615 4.65687 8.08359 4.77277C8.16104 4.88868 8.20237 5.02496 8.20237 5.16435C8.20215 5.35121 8.12781 5.53035 7.99568 5.66248C7.86355 5.79461 7.68442 5.86894 7.49756 5.86916Z" fill="#2B2F56"/>
<path d="M12.8962 8.26313V0.73007C12.8962 0.536445 12.8193 0.350744 12.6823 0.21383C12.5454 0.0769161 12.3598 0 12.1661 0C11.9725 0 11.7868 0.0769161 11.6499 0.21383C11.513 0.350744 11.4361 0.536445 11.4361 0.73007V8.26313C11.0158 8.41314 10.6522 8.68944 10.3951 9.05418C10.138 9.41892 10 9.85425 10 10.3005C10 10.7467 10.138 11.1821 10.3951 11.5468C10.6522 11.9115 11.0158 12.1879 11.4361 12.3379V15.2691C11.4361 15.4627 11.513 15.6484 11.6499 15.7853C11.7868 15.9222 11.9725 15.9992 12.1661 15.9992C12.3598 15.9992 12.5454 15.9222 12.6823 15.7853C12.8193 15.6484 12.8962 15.4627 12.8962 15.2691V12.3362C13.3164 12.1862 13.6801 11.9099 13.9372 11.5451C14.1943 11.1804 14.3322 10.7451 14.3322 10.2988C14.3322 9.85258 14.1943 9.41725 13.9372 9.05251C13.6801 8.68777 13.3164 8.41147 12.8962 8.26146V8.26313ZM12.1661 11.0049C12.0267 11.0049 11.8905 10.9636 11.7745 10.8861C11.6586 10.8087 11.5683 10.6986 11.515 10.5698C11.4616 10.441 11.4477 10.2993 11.4749 10.1626C11.5021 10.0259 11.5692 9.90027 11.6678 9.8017C11.7663 9.70313 11.8919 9.63601 12.0286 9.60882C12.1653 9.58162 12.307 9.59558 12.4358 9.64893C12.5646 9.70227 12.6747 9.7926 12.7521 9.9085C12.8296 10.0244 12.8709 10.1607 12.8709 10.3001C12.8707 10.4869 12.7964 10.6661 12.6643 10.7982C12.5321 10.9303 12.353 11.0047 12.1661 11.0049Z" fill="#2B2F56"/>
</svg>
