<svg viewBox="0 0 457 317" width="100%" fill="none" xmlns="http://www.w3.org/2000/svg">
<rect rx="5" fill="#E8F4F8"/>
<path fill-rule="evenodd" clip-rule="evenodd" d="M15 10C12.2385 10 10 12.2385 10 15V58C10 60.7615 12.2385 63 15 63H146C148.761 63 151 60.7615 151 58V15C151 12.2385 148.761 10 146 10H15ZM77 20.5C77 18.5669 78.567 17 80.5 17C82.433 17 84 18.5669 84 20.5V33H98.5C100.433 33 102 34.5669 102 36.5C102 38.4331 100.433 40 98.5 40H84V52.5C84 54.4331 82.433 56 80.5 56C78.567 56 77 54.4331 77 52.5V40H62.5C60.567 40 59 38.4331 59 36.5C59 34.5669 60.567 33 62.5 33H77V20.5Z" fill="#6EC6EB"/>
<path d="M10 76C10 73.2386 12.2386 71 15 71H146C148.761 71 151 73.2386 151 76V119C151 121.761 148.761 124 146 124H15C12.2386 124 10 121.761 10 119V76Z" fill="#ABE6FC"/>
<path fill-rule="evenodd" clip-rule="evenodd" d="M10 137C10 134.239 12.2386 132 15 132H146C148.761 132 151 134.239 151 137V180C151 182.761 148.761 185 146 185H15C12.2386 185 10 182.761 10 180V137ZM10 198C10 195.239 12.2386 193 15 193H146C148.761 193 151 195.239 151 198V241C151 243.761 148.761 246 146 246H15C12.2386 246 10 243.761 10 241V198ZM77 203.5C77 201.567 78.567 200 80.5 200C82.433 200 84 201.567 84 203.5V216H98.5C100.433 216 102 217.567 102 219.5C102 221.433 100.433 223 98.5 223H84V235.5C84 237.433 82.433 239 80.5 239C78.567 239 77 237.433 77 235.5V223H62.5C60.567 223 59 221.433 59 219.5C59 217.567 60.567 216 62.5 216H77V203.5Z" fill="#D2F2FE"/>
<path d="M10 259C10 256.239 12.2386 254 15 254H146C148.761 254 151 256.239 151 259V302C151 304.761 148.761 307 146 307H15C12.2386 307 10 304.761 10 302V259Z" fill="#6EC6EA"/>
<path d="M159 15C159 12.2386 161.239 10 164 10H295C297.761 10 300 12.2386 300 15V58C300 60.7614 297.761 63 295 63H164C161.239 63 159 60.7614 159 58V15Z" fill="#6EC6EA"/>
<path d="M159 76C159 73.2386 161.239 71 164 71H295C297.761 71 300 73.2386 300 76V119C300 121.761 297.761 124 295 124H164C161.239 124 159 121.761 159 119V76Z" fill="#6EC6EB"/>
<path d="M159 137C159 134.239 161.239 132 164 132H295C297.761 132 300 134.239 300 137V180C300 182.761 297.761 185 295 185H164C161.239 185 159 182.761 159 180V137Z" fill="#6EC6EA"/>
<path d="M159 198C159 195.239 161.239 193 164 193H295C297.761 193 300 195.239 300 198V241C300 243.761 297.761 246 295 246H164C161.239 246 159 243.761 159 241V198Z" fill="#3E8CB4"/>
<path d="M159 259C159 256.239 161.239 254 164 254H295C297.761 254 300 256.239 300 259V302C300 304.761 297.761 307 295 307H164C161.239 307 159 304.761 159 302V259Z" fill="#3E8CB4"/>
<path d="M307 15C307 12.2386 309.239 10 312 10H443C445.761 10 448 12.2386 448 15V58C448 60.7614 445.761 63 443 63H312C309.239 63 307 60.7614 307 58V15Z" fill="#3E8CB5"/>
<path d="M307 76C307 73.2386 309.239 71 312 71H443C445.761 71 448 73.2386 448 76V119C448 121.761 445.761 124 443 124H312C309.239 124 307 121.761 307 119V76Z" fill="#D2F2FE"/>
<path d="M307 137C307 134.239 309.239 132 312 132H443C445.761 132 448 134.239 448 137V180C448 182.761 445.761 185 443 185H312C309.239 185 307 182.761 307 180V137Z" fill="#ABE5FC"/>
<path d="M307 198C307 195.239 309.239 193 312 193H443C445.761 193 448 195.239 448 198V241C448 243.761 445.761 246 443 246H312C309.239 246 307 243.761 307 241V198Z" fill="#6DC6EB"/>
<path d="M307 259C307 256.239 309.239 254 312 254H443C445.761 254 448 256.239 448 259V302C448 304.761 445.761 307 443 307H312C309.239 307 307 304.761 307 302V259Z" fill="#D2F2FE"/>
<path fill-rule="evenodd" clip-rule="evenodd" d="M377.5 139C375.567 139 374 140.567 374 142.5V155H359.5C357.567 155 356 156.567 356 158.5C356 160.433 357.567 162 359.5 162H374V174.5C374 176.433 375.567 178 377.5 178C379.433 178 381 176.433 381 174.5V162H395.5C397.433 162 399 160.433 399 158.5C399 156.567 397.433 155 395.5 155H381V142.5C381 140.567 379.433 139 377.5 139Z" fill="#E8F5F9"/>
</svg>
