<svg width="150" height="50" viewBox="0 0 430 434" fill="none" xmlns="http://www.w3.org/2000/svg">
<path fill-rule="evenodd" clip-rule="evenodd" d="M279.264 94C264.595 135.104 220.642 192 216.5 192C212.358 192 166.329 135.104 150.962 94H99.947V94.6385V111.75L109.932 131.112L111.731 134.601L108.768 137.177L98.8867 145.766L89.4747 162.624L88.044 165.186H85.1091H52.0817H44.1538L27.8763 203.716L27.2551 205.186L25.8967 206.025L10 215.837V225.667H16.9461H18.9504L20.3998 227.052L49.9136 255.244L51.46 256.722V258.86V272.956V308.981L64.2574 317.149L82.1432 324.739L85.1901 326.032V329.341V377.395L107.643 401.166H127.974H128.77L129.527 401.413L159.349 411.152L190.435 415.858V411.1V409.203L191.693 407.783L219.801 376.067L221.696 373.929L224.5 374.476L249.798 379.409L250.689 379.583L251.462 380.059L321.23 423.015H340.683L364.095 406.086L358.269 401.704L356.275 400.204V397.708V373.745V372.866L356.574 372.04L367.817 341.029L368.014 340.486L368.329 340.002L404.168 285.027L404.224 284.941L404.284 284.857L412.293 273.61L381.742 244.882L380.167 243.401V241.24V181.331V176.331H385.167H408.389L418.647 127.735L406.055 113.03H379.048L350.548 130.611L346.669 133.004L343.928 129.361L317.32 94H279.264ZM282.305 84H319.815H322.31L323.81 85.9937L349.178 119.706L375.005 103.774L376.212 103.03H377.63H408.356H410.657L412.154 104.778L427.846 123.103L429.449 124.976L428.94 127.388L417.336 182.363L416.498 186.331H412.444H390.167V239.078L422.322 269.314L425.501 272.303L422.97 275.857L412.489 290.574L377.022 344.98L366.275 374.623V395.213L375.524 402.17L380.941 406.246L375.448 410.218L345.231 432.067L343.92 433.015H342.301H319.815H318.399L317.193 432.273L246.993 389.051L225.39 384.838L200.435 412.996V421.672V427.486L194.686 426.616L157.443 420.977L157.033 420.915L156.639 420.786L127.179 411.166H105.488H103.333L101.853 409.599L76.5552 382.816L75.1901 381.371V379.383V332.651L59.9665 326.191L59.5818 326.028L59.2295 325.803L43.7699 315.936L41.46 314.461V311.721V272.956V260.999L14.9418 235.667H5H0V230.667V213.047V210.258L2.37383 208.792L19.2859 198.354L36.2324 158.24L37.5227 155.186H40.8383H52.0817H82.1742L90.5814 140.128L91.0074 139.365L91.6668 138.792L99.2443 132.205L90.5032 115.255L89.947 114.177V112.964V94.6385V89V84H94.947H147.776C146.632 79.522 146 75.3494 146 71.6018C146 29 176.392 0 214.5 0C252.608 0 284 20.5 284 71.6018C284 75.3494 283.397 79.522 282.305 84ZM273 72.914C273 105.115 220.446 174.5 216.261 174.5C212.075 174.5 157 105.115 157 72.914C157 36.9688 182.547 12.5 214.58 12.5C246.612 12.5 273 29.7969 273 72.914ZM164 210C164 219.941 155.941 228 146 228C136.059 228 128 219.941 128 210C128 200.059 136.059 192 146 192C155.941 192 164 200.059 164 210ZM232 64C232 73.3888 224.389 81 215 81C205.611 81 198 73.3888 198 64C198 54.6112 205.611 47 215 47C224.389 47 232 54.6112 232 64ZM242 64C242 78.9117 229.912 91 215 91C200.088 91 188 78.9117 188 64C188 49.0883 200.088 37 215 37C229.912 37 242 49.0883 242 64Z" fill="#009FD2"/>
</svg>
