<svg width="120" height="25" viewBox="0 0 183 40" fill="none" xmlns="http://www.w3.org/2000/svg">
<path fill-rule="evenodd" clip-rule="evenodd" d="M17.372 34.447C17.846 37.293 19.091 38.716 21.522 38.716C23.3169 38.7297 25.0878 38.3036 26.68 37.475V34.625H25.909C23.36 34.625 23 33.795 23 32.254V17.431C23 11.502 19.032 8.77499 12.1 8.77499C4.985 8.77499 1.072 11.621 1.072 15.949C1.06212 17.0339 1.22206 18.1136 1.546 19.149L7.178 18.793C6.91664 18.027 6.75596 17.2304 6.7 16.423C6.7 14.704 7.471 12.806 11.8 12.806C15.654 12.806 17.314 14.706 17.314 18.32C16.84 19.743 13.223 20.869 7.946 22.174C3.617 23.242 0 25.732 0 30.297C0 35.455 2.609 38.953 8.6 38.953C12.214 38.953 15.593 37.708 17.372 34.447ZM17.253 22.947L17.016 28.402C17.0591 29.952 16.5145 31.4609 15.4914 32.626C14.4684 33.7912 13.0425 34.5263 11.5 34.684C7.705 35.04 6.045 33.084 6.045 30.593C6.045 27.747 8.002 26.206 12.626 25.138C14.407 24.724 16.66 23.894 17.253 22.945V22.947Z" fill="#2F1A45"/>
<path d="M35.455 28.281L38.894 24.249L47.728 38.3L54.25 38.359L42.75 20.454L51.05 9.723H44.526L35.455 22.233V0H29.704V38.36H35.455V28.281ZM62.195 38.36H66.404C68.479 38.36 69.783 37.06 70.436 35.04L78.973 9.723H73.341L65.811 32.075L58.934 9.664H52.704L62.195 38.36Z" fill="#2F1A45"/>
<path fill-rule="evenodd" clip-rule="evenodd" d="M104.113 24.486C104.113 14.348 100.081 8.834 91.959 8.834C84.014 8.834 79.805 13.814 79.805 24.486C79.805 34.862 83.955 38.953 91.959 38.953C99.607 38.953 104.113 34.981 104.113 24.486ZM86.03 24.249C86.03 16.304 87.868 13.34 92.018 13.34C96.05 13.34 98.006 16.304 98.006 24.249C98.006 31.364 96.287 34.091 92.018 34.091C87.749 34.091 86.03 31.482 86.03 24.249Z" fill="#2F1A45"/>
<path d="M109.152 38.776V10.139H115.022V16.661C116.148 12.451 119.054 9.487 122.848 9.487C127.648 9.487 130.556 12.036 130.556 15.95C130.504 17.8454 130.102 19.7149 129.37 21.464L124.034 22.468C124.423 21.1171 124.642 19.723 124.686 18.318C124.739 17.8146 124.678 17.3058 124.509 16.8287C124.34 16.3516 124.066 15.9183 123.709 15.5604C123.351 15.2025 122.917 14.929 122.44 14.7599C121.963 14.5908 121.454 14.5304 120.951 14.583C117.394 14.583 115.141 18.259 115.141 23.239V38.776H109.152ZM139.093 28.876C138.915 29.4946 138.814 30.1327 138.793 30.776C138.793 33.148 140.335 35.045 144.129 35.045C147.746 35.045 149.529 33.622 149.529 31.132C149.529 29.65 148.995 28.108 143.956 26.567L139.984 25.322C135.893 24.022 133.403 22.298 133.403 17.792C133.403 12.634 137.672 9.373 143.719 9.373C150.774 9.373 154.569 12.573 154.569 16.428C154.583 17.1226 154.441 17.8115 154.154 18.444L148.344 18.859C148.57 18.2506 148.691 17.608 148.7 16.959C148.7 15.24 147.1 13.698 143.838 13.698C140.638 13.698 139.273 15.655 139.273 17.137C139.273 18.797 140.281 19.568 143.838 20.694L148.107 21.994C153.087 23.536 155.815 26.263 155.815 30.354C155.815 35.754 152.08 39.425 144.194 39.425C136.961 39.425 133.048 36.164 133.048 32.073C133.089 30.8565 133.33 29.655 133.759 28.516L139.093 28.876ZM160.793 38.776V10.139H166.663V16.661C167.789 12.451 170.695 9.487 174.489 9.487C179.289 9.487 182.197 12.036 182.197 15.95C182.145 17.8454 181.743 19.7149 181.011 21.464L175.675 22.468C176.064 21.1171 176.283 19.723 176.327 18.318C176.38 17.8146 176.319 17.3058 176.15 16.8287C175.981 16.3516 175.707 15.9183 175.35 15.5604C174.992 15.2025 174.558 14.929 174.081 14.7599C173.604 14.5908 173.095 14.5304 172.592 14.583C169.035 14.583 166.782 18.259 166.782 23.239V38.776H160.793Z" fill="#2593FC"/>
</svg>
