<svg viewBox="0 0 151 168" fill="none" xmlns="http://www.w3.org/2000/svg">
<path d="M26.3719 167.753C21.2448 167.431 15.4573 165.556 8.69295 162.026C2.0983 158.585 0.790995 157.479 0.790995 155.341C0.790995 153.99 1.2734 153.067 2.328 152.401C3.68499 151.544 5.02191 151.822 7.75543 153.53C10.8646 155.472 15.9697 157.959 19.2308 159.118C24.4466 160.973 23.6007 160.926 51.3214 160.926C78.8455 160.926 77.74 160.993 78.6151 159.264C79.5712 157.375 79.0247 155.65 77.104 154.494C76.2317 153.969 75.583 153.941 61.266 153.81L46.3375 153.673L45.5209 152.838C43.9955 151.279 44.2863 148.658 46.1107 147.522C46.9775 146.982 47.4143 146.969 65.6139 146.968C86.4114 146.966 85.5097 147.049 86.5671 145.051C87.4541 143.376 86.7749 141.06 85.142 140.193C84.646 139.93 80.5825 139.855 67.4371 139.866C48.6687 139.882 49.2073 139.929 48.3412 138.218C47.5032 136.562 47.9647 134.702 49.4711 133.665C50.328 133.075 50.3746 133.073 70.0927 132.959C85.3385 132.87 89.9965 132.765 90.4725 132.498C92.5517 131.333 92.666 127.671 90.6651 126.332C90.0296 125.906 88.2455 125.872 68.4536 125.906C44.5854 125.947 45.7649 126.035 44.8906 124.152C44.3074 122.896 44.3398 121.842 44.9953 120.744C45.983 119.088 45.6316 119.12 64.5424 119C80.9781 118.896 81.8618 118.865 82.6858 118.366C84.2423 117.424 84.7596 115.467 83.9264 113.673C83.0745 111.839 84.4879 111.933 57.8505 111.933C31.2742 111.933 32.3876 112.004 31.3343 110.239C30.683 109.148 30.6461 108.087 31.2165 106.859C32.0853 104.988 32.1777 104.969 41.1044 104.817C46.9288 104.718 49.3054 104.584 49.7402 104.33C51.6827 103.196 51.5634 99.4531 49.5508 98.3897C48.4287 97.7968 32.9873 97.7867 29.676 98.3768C26.5575 98.9325 24.2226 99.7118 22.5023 100.771C21.1928 101.578 20.7739 102.104 18.4087 105.912C16.9595 108.245 15.4141 110.524 14.9744 110.975L14.175 111.797L8.56997 111.88C3.88324 111.95 2.83149 111.893 2.15038 111.533C-0.00668759 110.394 -0.0122612 106.838 2.14088 105.538C2.73524 105.18 3.65073 105.091 6.75066 105.091C10.1005 105.091 10.6735 105.027 11.0271 104.612C11.2517 104.348 12.3684 102.622 13.5088 100.776C15.9287 96.8572 17.1186 95.6988 20.4788 93.9898C24.4823 91.9537 30.1701 90.8583 36.7395 90.8583H39.3108L39.6084 89.9859C40.1365 88.438 42.2925 85.1762 43.8636 83.5481C47.8191 79.4492 52.8112 77.3478 58.5154 77.3806C66.1109 77.4242 72.5139 81.3099 76.3072 88.1778L77.1592 89.7204L78.3097 89.2004C80.6626 88.1369 82.9458 87.7828 86.5071 87.9292C90.7043 88.1017 93.2344 88.8862 96.8198 91.1268L97.6234 91.6289L99.2752 90.6032C102.127 88.8323 104.874 88.0523 108.762 87.9095C111.589 87.8056 112.496 87.8795 114.384 88.3672C121.267 90.1458 126.544 95.1013 128.909 102.009C129.612 104.064 129.746 104.898 129.846 107.851C129.942 110.717 129.867 111.682 129.397 113.599C128.016 119.233 124.608 123.84 119.616 126.823L117.952 127.818L118.736 130.208C119.333 132.027 119.553 133.288 119.657 135.484C119.842 139.413 119.287 142.165 117.59 145.744C114.885 151.447 109.921 155.467 103.842 156.877L101.373 157.45L100.441 159.119C99.9282 160.038 98.6025 161.713 97.4947 162.843C95.286 165.096 92.7086 166.62 89.8661 167.355C87.846 167.878 83.5878 167.888 81.6769 167.375C80.4308 167.041 80.0125 167.037 78.873 167.352C77.8085 167.646 72.5862 167.744 53.426 167.83C40.1668 167.889 27.9924 167.854 26.3718 167.753L26.3719 167.753ZM89.8214 160.019C92.5019 158.765 94.3138 156.645 95.4277 153.46C96.186 151.292 97.1934 150.525 99.2844 150.525C105.856 150.525 111.65 145.449 112.766 138.714C113.352 135.175 112.382 131.286 110.116 128.09C108.318 125.554 109.394 123.02 112.624 122.185C115.286 121.497 117.037 120.467 119.077 118.386C123.353 114.027 124.374 108.225 121.833 102.717C119.16 96.9217 112.89 93.6973 106.811 94.9926C103.072 95.7893 99.1361 98.9139 97.2542 102.579C96.7243 103.611 96.0245 104.529 95.5212 104.852C93.4409 106.188 90.5183 104.527 90.531 102.016C90.5369 100.79 91.1883 99.0554 92.1729 97.6425C92.7335 96.8381 92.7377 96.7876 92.2722 96.4397C90.0579 94.7853 84.3346 94.2938 81.2839 95.496C80.3999 95.8444 78.9535 96.636 78.0695 97.2551C76.6974 98.2162 76.2593 98.3811 75.0737 98.383C73.2596 98.3853 72.2253 97.4566 71.7646 95.4103C69.1586 83.8362 54.8978 80.3649 47.7693 89.5695L46.8771 90.7215L48.8978 91.0407C52.7659 91.6519 55.5704 93.7273 57.1349 97.1364C57.8016 98.5893 57.9466 99.2614 57.9616 100.968C57.9711 102.107 57.8934 103.433 57.788 103.915L57.5962 104.793L70.5115 104.873L83.4268 104.954L85.2186 105.821C87.3456 106.851 89.0615 108.577 90.1444 110.775C90.8404 112.188 90.9174 112.615 90.9219 115.081C90.9243 116.586 90.8667 118.05 90.793 118.334C90.6843 118.752 90.9221 118.942 92.0555 119.34C95.8423 120.67 98.3813 123.956 98.9538 128.269C99.4447 131.966 97.2898 136.475 94.1256 138.369L92.9935 139.047L93.3665 140.314C93.5717 141.01 93.7395 142.35 93.7395 143.291C93.7395 147.866 91.013 151.867 86.909 153.313C85.6174 153.768 85.5741 153.817 85.6934 154.687C85.8884 156.109 85.857 159.058 85.6359 160.075L85.4341 161.003L86.909 160.847C87.7202 160.761 89.0308 160.389 89.8215 160.019L89.8214 160.019ZM145.571 90.8825C145.276 90.748 143.822 89.3019 142.34 87.669C137.891 82.7687 114.927 57.525 100.263 41.4155C85.9855 25.7301 85.5703 25.3314 83.2928 25.1201L82.3553 25.0331L82.2214 29.5492C82.0721 34.5809 81.7858 35.5627 80.0232 37.0848C77.9688 38.8591 77.7457 38.8916 68.2228 38.8006C58.6977 38.7097 58.8401 38.7341 57.0273 36.8818C55.3655 35.1838 55.0505 34.0222 54.9459 29.207C54.8687 25.6514 54.7837 24.8963 54.4607 24.8963C53.7 24.8963 52.4924 24.0556 52.0787 23.2381C51.7239 22.537 51.6719 21.3317 51.7393 15.3668L51.8189 8.32341L52.6959 6.50432C53.7824 4.25071 55.8999 2.19503 58.0476 1.30884L59.5869 0.673689L75.7926 0.600183C90.8499 0.531889 92.0634 0.560935 92.9168 1.01074C95.6152 2.43278 95.6152 5.76774 92.9168 7.17366C92.0733 7.61313 90.7161 7.65224 76.2975 7.65263C60.7813 7.65304 60.5883 7.65975 59.8855 8.22463C58.5713 9.28092 58.3815 10.036 58.3815 14.2083V18.0537H71.1827C85.0682 18.0537 85.5535 18.097 88.65 19.6125C90.505 20.5204 91.9208 21.972 105.136 36.5162C110.875 42.8319 123.267 56.4417 132.673 66.7602C142.08 77.0787 149.955 85.9413 150.173 86.4548C150.69 87.6705 150.44 89 149.492 90.0844C148.893 90.7695 148.504 90.9473 147.43 91.0278C146.702 91.0823 145.866 91.0171 145.571 90.8825L145.571 90.8825ZM75.4658 28.5228L75.3909 25.0332L68.6273 24.96L61.8638 24.8868V28.4497V32.0125H68.7023H75.5408L75.4658 28.5228ZM21.6243 83.9022C18.9008 83.0983 16.4266 80.9707 15.0724 78.268C14.3866 76.8996 14.3181 76.5014 14.3181 73.8888C14.3181 71.3489 14.4008 70.8345 15.0307 69.4617C16.4579 66.3508 19.3171 64.1199 22.6677 63.5027C23.9962 63.258 24.7021 63.2794 26.2629 63.612C29.7294 64.3505 32.1431 66.3348 33.6758 69.7061C34.2871 71.0506 34.3963 71.6613 34.4016 73.7653C34.4075 76.081 34.3427 76.3767 33.4047 78.3167C32.2249 80.7569 30.8847 82.1017 28.4926 83.2455C26.4601 84.2174 23.614 84.4895 21.6243 83.9023V83.9022ZM26.0069 76.7433C27.0922 76.1698 27.9224 74.2974 27.6003 73.1496C27.211 71.7626 26.8321 71.2425 25.8719 70.777C24.6545 70.1866 23.6144 70.215 22.5679 70.8671C20.5926 72.0977 20.3532 74.68 22.0656 76.2836C23.1582 77.3066 24.6184 77.4769 26.0069 76.7433V76.7433ZM96.552 80.3636C93.5416 79.3433 91.48 77.5666 90.1197 74.8198C89.3828 73.3319 89.3197 72.978 89.3197 70.3307C89.3197 67.7048 89.3877 67.3155 90.1071 65.8182C91.111 63.729 92.9126 61.8892 94.9507 60.8718C96.3932 60.1517 96.8177 60.0721 99.2307 60.0697C101.619 60.0673 102.09 60.1522 103.576 60.8536C106.765 62.3589 109.128 65.7584 109.452 69.3091C109.859 73.7622 107.464 77.9611 103.441 79.8446C101.613 80.7005 98.2858 80.9511 96.552 80.3636V80.3636ZM101.155 73.1968C102.104 72.5616 102.652 71.5118 102.652 70.3307C102.652 68.3294 100.889 66.6375 99.0423 66.8673C96.1876 67.2226 94.8999 70.6488 96.8902 72.5935C98.2545 73.9266 99.7491 74.138 101.155 73.1968ZM56.8033 69.8609C56.1889 69.5517 55.7291 69.021 55.3831 68.2217L54.8714 67.0397L56.6391 57.9424C57.6113 52.9389 58.5313 48.5186 58.6836 48.1195C59.132 46.944 60.1146 46.1941 61.4009 46.046C63.5727 45.7958 65.0781 47.1933 65.0781 49.4593C65.0781 51.2098 61.6704 68.0442 61.1526 68.8517C60.6473 69.6398 59.3124 70.3346 58.3232 70.3245C57.987 70.3209 57.3031 70.1125 56.8033 69.8609V69.8609ZM77.2135 69.7954C76.7427 69.5021 76.1864 68.9791 75.9772 68.6332C75.3934 67.6677 71.966 49.6217 72.1628 48.5497C72.4066 47.2218 73.9182 45.9713 75.2796 45.9713C76.6666 45.9713 77.8198 46.591 78.3378 47.6145C78.7694 48.4672 82.2242 65.7278 82.2174 66.9969C82.2115 68.0651 81.6685 68.9969 80.6376 69.7067C79.528 70.4708 78.3466 70.5014 77.2135 69.7954V69.7954ZM145.525 52.462C144.684 51.982 111.91 20.844 111.353 19.9962C110.316 18.4169 111.135 15.9125 112.941 15.1413C114.116 14.6395 115.303 14.8175 116.415 15.6622C116.859 15.9991 124.596 23.2852 133.609 31.8536C151.527 48.8878 151.042 48.3415 150.222 50.5424C149.526 52.4091 147.14 53.3845 145.525 52.462ZM102.605 11.9599C100.286 10.7423 100.287 7.08534 102.605 5.86007C104.436 4.89258 106.697 5.82759 107.381 7.83582C107.715 8.81358 107.714 9.09472 107.372 10.0121C106.663 11.9156 104.333 12.8675 102.605 11.9599H102.605Z" fill="black"/>
</svg>
