<svg width="16" height="16" viewBox="0 0 16 16" fill="none" xmlns="http://www.w3.org/2000/svg">
<path d="M10.6667 5.33325C11.7276 5.33325 12.745 5.75468 13.4951 6.50483C14.2453 7.25497 14.6667 8.27239 14.6667 9.33325V13.9999H12V9.33325C12 8.97963 11.8596 8.64049 11.6095 8.39044C11.3595 8.14039 11.0203 7.99992 10.6667 7.99992C10.3131 7.99992 9.97395 8.14039 9.7239 8.39044C9.47385 8.64049 9.33337 8.97963 9.33337 9.33325V13.9999H6.66671V9.33325C6.66671 8.27239 7.08814 7.25497 7.83828 6.50483C8.58843 5.75468 9.60584 5.33325 10.6667 5.33325Z" stroke="#101828" stroke-width="2" stroke-linecap="round" stroke-linejoin="round"/>
<path d="M4.00004 5.99992H1.33337V13.9999H4.00004V5.99992Z" stroke="#101828" stroke-width="2" stroke-linecap="round" stroke-linejoin="round"/>
<path d="M2.66671 3.99992C3.40309 3.99992 4.00004 3.40296 4.00004 2.66659C4.00004 1.93021 3.40309 1.33325 2.66671 1.33325C1.93033 1.33325 1.33337 1.93021 1.33337 2.66659C1.33337 3.40296 1.93033 3.99992 2.66671 3.99992Z" stroke="#101828" stroke-width="2" stroke-linecap="round" stroke-linejoin="round"/>
</svg>
