<svg width="16" height="16" viewBox="0 0 16 16" fill="none" xmlns="http://www.w3.org/2000/svg">
<g clip-path="url(#clip0_25_5767)">
<path d="M15.0266 4.28008C14.9474 3.96369 14.7862 3.6738 14.5591 3.43969C14.332 3.20558 14.0471 3.03554 13.7333 2.94675C12.5866 2.66675 7.99997 2.66675 7.99997 2.66675C7.99997 2.66675 3.41331 2.66675 2.26664 2.97341C1.95281 3.0622 1.66796 3.23224 1.44087 3.46635C1.21378 3.70046 1.0525 3.99035 0.973308 4.30675C0.763451 5.47045 0.660798 6.65095 0.666641 7.83341C0.65916 9.02478 0.761819 10.2143 0.973308 11.3867C1.06061 11.6933 1.22551 11.9722 1.45207 12.1964C1.67863 12.4206 1.95919 12.5826 2.26664 12.6667C3.41331 12.9734 7.99997 12.9734 7.99997 12.9734C7.99997 12.9734 12.5866 12.9734 13.7333 12.6667C14.0471 12.578 14.332 12.4079 14.5591 12.1738C14.7862 11.9397 14.9474 11.6498 15.0266 11.3334C15.2349 10.1785 15.3375 9.00697 15.3333 7.83341C15.3408 6.64205 15.2381 5.45255 15.0266 4.28008Z" stroke="#101828" stroke-width="2" stroke-linecap="round" stroke-linejoin="round"/>
<path d="M6.49997 10.0134L10.3333 7.83341L6.49997 5.65341V10.0134Z" stroke="#101828" stroke-width="2" stroke-linecap="round" stroke-linejoin="round"/>
</g>
<defs>
<clipPath id="clip0_25_5767">
<rect width="16" height="16" fill="white"/>
</clipPath>
</defs>
</svg>
