<svg width="16" height="16" viewBox="0 0 16 16" fill="none" xmlns="http://www.w3.org/2000/svg">
<g clip-path="url(#clip0_25_5766)">
<path d="M6.00004 12.6668C2.66671 13.6668 2.66671 11.0001 1.33337 10.6668M10.6667 14.6668V12.0868C10.6917 11.7689 10.6488 11.4493 10.5407 11.1493C10.4327 10.8493 10.262 10.5757 10.04 10.3468C12.1334 10.1135 14.3334 9.32012 14.3334 5.68012C14.3332 4.74934 13.9752 3.85425 13.3334 3.18012C13.6373 2.36579 13.6158 1.46569 13.2734 0.666788C13.2734 0.666788 12.4867 0.433455 10.6667 1.65345C9.13871 1.23934 7.52803 1.23934 6.00004 1.65345C4.18004 0.433455 3.39337 0.666788 3.39337 0.666788C3.05096 1.46569 3.02947 2.36579 3.33337 3.18012C2.68679 3.85925 2.32839 4.76243 2.33337 5.70012C2.33337 9.31345 4.53337 10.1068 6.62671 10.3668C6.40737 10.5934 6.23822 10.8637 6.13025 11.1601C6.02228 11.4564 5.97791 11.7722 6.00004 12.0868V14.6668" stroke="#101828" stroke-width="2" stroke-linecap="round" stroke-linejoin="round"/>
</g>
<defs>
<clipPath id="clip0_25_5766">
<rect width="16" height="16" fill="white"/>
</clipPath>
</defs>
</svg>
