<svg xmlns="http://www.w3.org/2000/svg" width="79.448" height="76.402" viewBox="0 0 79.448 76.402">
  <path id="Path_1675" data-name="Path 1675" d="M52.8,13.377H76.2a2.749,2.749,0,0,0,2.747-2.747V2.747A2.749,2.749,0,0,0,76.2,0H52.8a2.749,2.749,0,0,0-2.747,2.747V5.056H39.473a1.632,1.632,0,0,0-1.632,1.632V36.32H28.893V34.01a2.749,2.749,0,0,0-2.747-2.747H2.748A2.75,2.75,0,0,0,0,34.01v7.883a2.751,2.751,0,0,0,2.748,2.748h23.4a2.75,2.75,0,0,0,2.747-2.748v-2.31h8.949v29.63a1.631,1.631,0,0,0,1.632,1.632H50.056v2.311A2.749,2.749,0,0,0,52.8,75.9H76.2a2.749,2.749,0,0,0,2.747-2.747V65.272A2.75,2.75,0,0,0,76.2,62.524H52.8a2.75,2.75,0,0,0-2.747,2.748v2.309H41.105v-28h8.951v2.31A2.75,2.75,0,0,0,52.8,44.641H76.2a2.75,2.75,0,0,0,2.747-2.748V34.01A2.749,2.749,0,0,0,76.2,31.263H52.8a2.749,2.749,0,0,0-2.747,2.747v2.31H41.105v-28h8.951V10.63A2.749,2.749,0,0,0,52.8,13.377m.517-10.113H75.684v6.851H53.319ZM25.629,41.377H3.264V34.527H25.629Zm27.69,24.411H75.684v6.851H53.319Zm0-31.261H75.684v6.851H53.319Z" transform="translate(0.25 0.25)" fill="#0093ff" stroke="#0093ff" stroke-width="0.5"/>
</svg>
