<svg width="24" height="25" viewBox="0 0 24 25" fill="none" xmlns="http://www.w3.org/2000/svg">
<path d="M17.9367 17.1923L10.4236 12.2745V3.29442C10.4236 3.14365 10.3637 2.99906 10.2571 2.89245C10.1505 2.78584 10.0059 2.72595 9.85517 2.72595C7.24142 2.72595 4.73472 3.76426 2.88651 5.61247C1.03831 7.46067 0 9.96737 0 12.5811C0 15.1949 1.03831 17.7016 2.88651 19.5498C4.73472 21.398 7.24142 22.4363 9.85517 22.4363C11.5049 22.4688 13.1348 22.0715 14.5845 21.2833C16.0342 20.4952 17.2539 19.3434 18.1237 17.9412C18.1922 17.8158 18.211 17.6692 18.1763 17.5306C18.1416 17.392 18.0559 17.2715 17.9364 17.1932M9.85517 21.2988C7.59219 21.2988 5.41786 20.4189 3.7918 18.845C2.16573 17.2711 1.21535 15.1267 1.14153 12.8649C1.06771 10.6031 1.87625 8.40127 3.39623 6.72474C4.91621 5.04821 7.02853 4.02839 9.2867 3.88084V12.5823C9.28674 12.6768 9.31031 12.7697 9.35529 12.8528C9.40026 12.9358 9.46523 13.0064 9.54431 13.058L16.8426 17.8332C16.0418 18.9295 14.9888 19.8169 13.7725 20.4201C12.5562 21.0233 11.2126 21.3247 9.85517 21.2988Z" fill="#0093FF"/>
<path d="M11.7581 11.3451C11.8445 11.3956 11.9429 11.4223 12.043 11.4223C12.1432 11.4223 12.2415 11.3956 12.328 11.3451C20.2866 6.68819 20.3494 6.20259 20.3898 5.88215C20.3991 5.79047 20.3887 5.69786 20.3592 5.61054C20.3297 5.52323 20.2819 5.44323 20.219 5.37592C16.2552 1.41249 12.2709 1.01575 12.1033 1.00049C12.0248 0.994506 11.9459 1.00452 11.8714 1.02992C11.7969 1.05533 11.7283 1.0956 11.6698 1.1483C11.6117 1.20131 11.5653 1.26575 11.5333 1.33758C11.5013 1.4094 11.4845 1.48706 11.484 1.56567L11.4714 10.8524C11.4716 10.9525 11.4981 11.0508 11.5483 11.1374C11.5985 11.224 11.6707 11.2959 11.7575 11.3457M12.6203 2.24305C13.7767 2.50096 16.3872 3.32613 19.0306 5.80736C18.0959 6.52542 15.343 8.2413 12.6108 9.85845L12.6203 2.24305Z" fill="#0093FF"/>
<path d="M23.2067 8.5773C23.1178 8.43184 22.9793 8.32331 22.8169 8.2716C22.6544 8.21989 22.4787 8.22847 22.322 8.29576L14.3093 11.7296C14.191 11.7805 14.0888 11.8626 14.0136 11.967C13.9383 12.0715 13.8929 12.1944 13.882 12.3227C13.8712 12.451 13.8954 12.5798 13.952 12.6954C14.0087 12.811 14.0956 12.909 14.2037 12.9791C20.4829 17.0346 21.8295 17.5714 22.3106 17.5714C22.3816 17.5709 22.4519 17.5583 22.5186 17.534C22.6237 17.4981 22.72 17.4403 22.8013 17.3646C22.8825 17.2888 22.9469 17.1968 22.9901 17.0945C25.0845 11.7389 23.2842 8.70386 23.2064 8.5776" fill="#0093FF"/>
</svg>
