<svg width="24" height="24" viewBox="0 0 24 24" fill="none" xmlns="http://www.w3.org/2000/svg">
<path d="M18.0524 20.0792H2.0265C1.4893 20.0784 0.974341 19.8646 0.594482 19.4847C0.214624 19.1049 0.00084692 18.5899 0 18.0527L0 2.0265C0.00084692 1.4893 0.214624 0.974341 0.594482 0.594482C0.974341 0.214624 1.4893 0.00084692 2.0265 0L18.0524 0C18.5896 0.000846692 19.1046 0.214614 19.4845 0.594463C19.8644 0.974312 20.0783 1.48927 20.0792 2.0265V18.0527C20.0783 18.59 19.8644 19.1049 19.4845 19.4848C19.1046 19.8646 18.5896 20.0784 18.0524 20.0792ZM2.0265 1.25631C1.92529 1.2561 1.82505 1.27588 1.73151 1.31451C1.63797 1.35314 1.55298 1.40986 1.48142 1.48142C1.40986 1.55298 1.35314 1.63797 1.31451 1.73151C1.27588 1.82505 1.2561 1.92529 1.25631 2.0265V18.0527C1.25606 18.154 1.27582 18.2543 1.31445 18.3479C1.35308 18.4415 1.40982 18.5265 1.48142 18.5981C1.55302 18.6697 1.63806 18.7265 1.73166 18.7651C1.82525 18.8037 1.92556 18.8235 2.02682 18.8232H18.0524C18.1537 18.8235 18.254 18.8038 18.3477 18.7652C18.4413 18.7266 18.5264 18.6698 18.598 18.5982C18.6696 18.5266 18.7264 18.4416 18.7651 18.348C18.8037 18.2543 18.8235 18.154 18.8232 18.0527V2.0265C18.8235 1.92521 18.8037 1.82488 18.7651 1.73126C18.7264 1.63765 18.6696 1.55259 18.598 1.48099C18.5264 1.40939 18.4413 1.35265 18.3477 1.31403C18.254 1.27542 18.1537 1.2557 18.0524 1.25599L2.0265 1.25631Z" fill="#0093FF"/>
<path d="M15.5299 8.62734H13.9607C13.7942 8.62759 13.6346 8.69384 13.5169 8.81156C13.3992 8.92927 13.3329 9.08886 13.3327 9.25534V15.5295C13.3329 15.696 13.3992 15.8556 13.5169 15.9733C13.6346 16.091 13.7942 16.1573 13.9607 16.1575H15.5299C15.6963 16.1573 15.8559 16.091 15.9736 15.9733C16.0914 15.8556 16.1576 15.696 16.1578 15.5295V9.25534C16.1576 9.08886 16.0914 8.92927 15.9736 8.81156C15.8559 8.69384 15.6963 8.62759 15.5299 8.62734" fill="#0093FF"/>
<path d="M12.0716 10.1959H10.5024C10.3359 10.1961 10.1763 10.2624 10.0586 10.3801C9.94086 10.4978 9.87462 10.6574 9.87437 10.8239V15.5295C9.87462 15.696 9.94086 15.8556 10.0586 15.9733C10.1763 16.091 10.3359 16.1573 10.5024 16.1575H12.0716C12.238 16.1573 12.3976 16.091 12.5153 15.9733C12.633 15.8556 12.6993 15.696 12.6995 15.5295V10.8239C12.6993 10.6574 12.633 10.4978 12.5153 10.3801C12.3976 10.2624 12.238 10.1961 12.0716 10.1959" fill="#0093FF"/>
<path d="M8.61293 11.7644H7.04374C6.87715 11.7648 6.7175 11.8312 6.59983 11.9491C6.48215 12.067 6.41606 12.2268 6.41606 12.3934V15.5318C6.41632 15.6983 6.48256 15.8578 6.60028 15.9756C6.718 16.0933 6.87758 16.1595 7.04406 16.1598H8.61325C8.77995 16.1593 8.93963 16.0926 9.0572 15.9744C9.17477 15.8562 9.24062 15.6962 9.24028 15.5295V12.3934C9.24003 12.2269 9.17379 12.0673 9.05607 11.9496C8.93835 11.8319 8.77877 11.7657 8.61229 11.7654" fill="#0093FF"/>
<path d="M5.15495 13.333H3.58576C3.41928 13.3332 3.2597 13.3995 3.14198 13.5172C3.02426 13.6349 2.95802 13.7945 2.95776 13.961V15.5302C2.95802 15.6966 3.02426 15.8562 3.14198 15.974C3.2597 16.0917 3.41928 16.1579 3.58576 16.1582H5.15495C5.32142 16.1579 5.48101 16.0917 5.59873 15.974C5.71644 15.8562 5.78269 15.6966 5.78294 15.5302V13.961C5.78269 13.7945 5.71644 13.6349 5.59873 13.5172C5.48101 13.3995 5.32142 13.3332 5.15495 13.333" fill="#0093FF"/>
<path d="M3.76542 10.5866C3.64115 10.5867 3.51964 10.5499 3.41628 10.481C3.31291 10.412 3.23233 10.3139 3.18474 10.1991C3.13715 10.0843 3.12469 9.95797 3.14893 9.83609C3.17317 9.71421 3.23303 9.60226 3.32092 9.51441L8.18861 4.64672C8.30647 4.52904 8.46622 4.46294 8.63278 4.46294C8.79934 4.46294 8.9591 4.52904 9.07696 4.64672L11.2866 6.85896L14.3815 3.76317C14.4995 3.64546 14.6595 3.57946 14.8262 3.5797C14.9929 3.57994 15.1527 3.6464 15.2705 3.76445C15.3882 3.88251 15.4542 4.0425 15.4539 4.20922C15.4537 4.37594 15.3872 4.53573 15.2692 4.65345L11.7295 8.19085C11.6116 8.30858 11.4517 8.37469 11.285 8.37469C11.1184 8.37469 10.9585 8.30858 10.8405 8.19085L8.63086 5.97893L4.20959 10.4031C4.1513 10.4615 4.08205 10.5077 4.00583 10.5393C3.92961 10.5708 3.84791 10.587 3.76542 10.5869" fill="#0093FF"/>
<path d="M15.2676 7.93209C15.101 7.93184 14.9414 7.86555 14.8237 7.74776C14.706 7.62998 14.6397 7.47031 14.6396 7.30378V4.39341H11.7276C11.5611 4.39341 11.4013 4.32725 11.2836 4.20948C11.1658 4.0917 11.0996 3.93197 11.0996 3.76541C11.0996 3.59886 11.1658 3.43913 11.2836 3.32135C11.4013 3.20358 11.5611 3.13742 11.7276 3.13742H15.2676C15.4341 3.13767 15.5936 3.20392 15.7114 3.32163C15.8291 3.43935 15.8953 3.59894 15.8956 3.76541V7.30378C15.8953 7.47025 15.8291 7.62984 15.7114 7.74756C15.5936 7.86527 15.4341 7.93152 15.2676 7.93177" fill="#0093FF"/>
<path d="M23.3726 24.0006C23.2899 24.0008 23.2081 23.9845 23.1318 23.9526C23.0556 23.9208 22.9864 23.8741 22.9284 23.8152L19.79 20.6794C19.7317 20.621 19.6854 20.5517 19.6538 20.4755C19.6222 20.3993 19.606 20.3175 19.606 20.235C19.606 20.1525 19.6222 20.0708 19.6538 19.9945C19.6854 19.9183 19.7317 19.849 19.79 19.7907C19.8484 19.7323 19.9177 19.686 19.9939 19.6545C20.0701 19.6229 20.1519 19.6066 20.2344 19.6066C20.3169 19.6066 20.3986 19.6229 20.4749 19.6545C20.5511 19.686 20.6204 19.7323 20.6787 19.7907L23.8171 22.9291C23.9046 23.0169 23.9641 23.1287 23.9881 23.2503C24.0121 23.372 23.9996 23.498 23.9521 23.6125C23.9046 23.727 23.8242 23.8249 23.7211 23.8938C23.6181 23.9627 23.4969 23.9995 23.3729 23.9996" fill="#0093FF"/>
<path d="M21.8047 17.0984C21.8046 18.0291 21.5286 18.9388 21.0115 19.7126C20.4944 20.4864 19.7595 21.0895 18.8997 21.4456C18.0398 21.8017 17.0937 21.8949 16.1809 21.7133C15.2682 21.5317 14.4297 21.0836 13.7716 20.4255C13.1136 19.7674 12.6654 18.929 12.4838 18.0162C12.3022 17.1034 12.3954 16.1573 12.7515 15.2975C13.1076 14.4376 13.7107 13.7027 14.4845 13.1856C15.2583 12.6685 16.1681 12.3925 17.0987 12.3924C18.3467 12.3929 19.5434 12.8888 20.4259 13.7712C21.3083 14.6537 21.8043 15.8504 21.8047 17.0984" fill="white"/>
<path d="M17.0984 22.432C16.0434 22.4321 15.0121 22.1193 14.1349 21.5332C13.2577 20.9472 12.574 20.1141 12.1702 19.1394C11.7664 18.1648 11.6608 17.0923 11.8666 16.0576C12.0724 15.0228 12.5804 14.0724 13.3264 13.3264C14.0724 12.5804 15.0228 12.0724 16.0576 11.8666C17.0923 11.6608 18.1648 11.7664 19.1394 12.1702C20.1141 12.574 20.9472 13.2577 21.5332 14.1349C22.1193 15.0121 22.4321 16.0434 22.432 17.0984C22.4304 18.5125 21.868 19.8682 20.8681 20.8681C19.8682 21.868 18.5125 22.4304 17.0984 22.432M17.0984 13.0204C16.2919 13.0205 15.5036 13.2597 14.8331 13.7078C14.1626 14.1559 13.64 14.7927 13.3314 15.5378C13.0228 16.2829 12.9421 17.1027 13.0994 17.8937C13.2568 18.6846 13.6451 19.4112 14.2154 19.9814C14.7856 20.5517 15.5122 20.94 16.3031 21.0974C17.0941 21.2547 17.9139 21.174 18.659 20.8654C19.4041 20.5568 20.0409 20.0342 20.489 19.3637C20.9371 18.6932 21.1763 17.9049 21.1764 17.0984C21.1752 16.0172 20.7452 14.9807 19.9806 14.2163C19.2161 13.4518 18.1796 13.0219 17.0984 13.0207" fill="#0093FF"/>
</svg>
