<svg id="Group_1219" data-name="Group 1219" xmlns="http://www.w3.org/2000/svg" xmlns:xlink="http://www.w3.org/1999/xlink" width="80.218" height="71.65" viewBox="0 0 80.218 71.65">
  <defs>
    <clipPath id="clip-path">
      <rect id="Rectangle_86" data-name="Rectangle 86" width="80.218" height="71.65" fill="none"/>
    </clipPath>
  </defs>
  <g id="Group_1218" data-name="Group 1218" transform="translate(0 0)" clip-path="url(#clip-path)">
    <path id="Path_1221" data-name="Path 1221" d="M59.95,54.108,34.839,37.671V7.657a1.9,1.9,0,0,0-1.9-1.9,32.939,32.939,0,1,0,0,65.878A31.784,31.784,0,0,0,60.575,56.611a1.9,1.9,0,0,0-.626-2.5M32.939,67.833a29.139,29.139,0,0,1-1.9-58.216V38.7a1.9,1.9,0,0,0,.861,1.59L56.293,56.25A28.251,28.251,0,0,1,32.939,67.833" transform="translate(0 0.016)" fill="#0093ff"/>
    <path id="Path_1222" data-name="Path 1222" d="M39.195,34.581a1.889,1.889,0,0,0,1.905,0C67.7,19.016,67.91,17.393,68.045,16.322a2.159,2.159,0,0,0-.571-1.692C54.226,1.383,40.909.057,40.349.006A1.944,1.944,0,0,0,38.9.5a1.907,1.907,0,0,0-.621,1.395l-.042,31.039a1.906,1.906,0,0,0,.956,1.649M42.077,4.159c3.865.862,12.59,3.62,21.425,11.913-3.124,2.4-12.325,8.135-21.457,13.54Z" transform="translate(0.104 0)" fill="#0093ff"/>
    <path id="Path_1223" data-name="Path 1223" d="M77.438,25.264a2.37,2.37,0,0,0-2.957-.941L47.7,35.8a2.376,2.376,0,0,0-.353,4.176C68.334,53.531,72.835,55.325,74.443,55.325a2.071,2.071,0,0,0,.695-.125,2.637,2.637,0,0,0,1.576-1.469c7-17.9.983-28.044.723-28.466" transform="translate(0.126 0.066)" fill="#0093ff"/>
  </g>
</svg>
