<svg width="26" height="26" viewBox="0 0 26 26" fill="none" xmlns="http://www.w3.org/2000/svg">
<path d="M17.5942 6.09013C17.5942 7.01237 17.3207 7.91388 16.8082 8.68067C16.2958 9.44746 15.5676 10.0451 14.7155 10.398C13.8635 10.7509 12.9259 10.8432 12.0214 10.6633C11.1169 10.4833 10.286 10.0392 9.63391 9.38712C8.98179 8.73499 8.53768 7.90414 8.35774 6.99963C8.17781 6.09511 8.27013 5.15755 8.62303 4.3055C8.97593 3.45345 9.57356 2.72518 10.3404 2.21277C11.1071 1.70037 12.0087 1.42685 12.9309 1.42679C14.1677 1.42679 15.3538 1.9181 16.2284 2.79265C17.1029 3.6672 17.5942 4.85333 17.5942 6.09013V6.09013Z" stroke="#0093FF" stroke-miterlimit="10"/>
<path d="M14.2902 4.57752C14.2902 4.85078 14.2092 5.1179 14.0574 5.3451C13.9056 5.57231 13.6898 5.7494 13.4373 5.85397C13.1849 5.95854 12.9071 5.9859 12.6391 5.93259C12.3711 5.87928 12.1249 5.74769 11.9317 5.55447C11.7384 5.36125 11.6069 5.11507 11.5535 4.84706C11.5002 4.57905 11.5276 4.30125 11.6322 4.04879C11.7367 3.79633 11.9138 3.58055 12.141 3.42874C12.3682 3.27692 12.6354 3.19589 12.9086 3.19589C13.2751 3.19589 13.6265 3.34146 13.8856 3.60056C14.1447 3.85967 14.2902 4.21109 14.2902 4.57752Z" fill="#0093FF"/>
<path d="M14.2902 4.57752C14.2902 4.85078 14.2092 5.1179 14.0574 5.3451C13.9056 5.57231 13.6898 5.7494 13.4373 5.85397C13.1849 5.95854 12.9071 5.9859 12.6391 5.93259C12.3711 5.87928 12.1249 5.74769 11.9317 5.55447C11.7384 5.36125 11.6069 5.11507 11.5535 4.84706C11.5002 4.57905 11.5276 4.30125 11.6322 4.04879C11.7367 3.79633 11.9138 3.58055 12.141 3.42874C12.3682 3.27692 12.6354 3.19589 12.9086 3.19589C13.2751 3.19589 13.6265 3.34146 13.8856 3.60056C14.1447 3.85967 14.2902 4.21109 14.2902 4.57752Z" stroke="#0093FF" stroke-miterlimit="10"/>
<path d="M9.24463 9.07748C10.2747 8.17242 11.6027 7.67967 12.9737 7.69381C14.3448 7.70795 15.6624 8.22799 16.6735 9.15411" stroke="#0093FF" stroke-miterlimit="10"/>
<path d="M25 20.0087C25 20.931 24.7265 21.8327 24.2141 22.5995C23.7017 23.3664 22.9734 23.9641 22.1212 24.3171C21.2691 24.67 20.3315 24.7624 19.4269 24.5825C18.5223 24.4025 17.6914 23.9584 17.0392 23.3062C16.387 22.654 15.9429 21.8231 15.7629 20.9185C15.583 20.0139 15.6753 19.0763 16.0283 18.2241C16.3812 17.372 16.979 16.6437 17.7458 16.1313C18.5127 15.6189 19.4143 15.3454 20.3367 15.3454C21.5735 15.3454 22.7596 15.8367 23.6341 16.7112C24.5087 17.5858 25 18.7719 25 20.0087V20.0087Z" stroke="#0093FF" stroke-miterlimit="10"/>
<path d="M21.7122 18.4961C21.7122 18.7725 21.6302 19.0427 21.4767 19.2725C21.3231 19.5024 21.1049 19.6815 20.8495 19.7873C20.5941 19.893 20.3131 19.9207 20.042 19.8668C19.7709 19.8129 19.5219 19.6798 19.3265 19.4843C19.131 19.2889 18.9979 19.0399 18.944 18.7688C18.8901 18.4977 18.9178 18.2167 19.0235 17.9613C19.1293 17.7059 19.3084 17.4877 19.5383 17.3341C19.7681 17.1806 20.0383 17.0986 20.3147 17.0986C20.6853 17.0986 21.0408 17.2458 21.3029 17.5079C21.565 17.77 21.7122 18.1255 21.7122 18.4961Z" fill="#0093FF"/>
<path d="M20.3147 19.8936C21.0865 19.8936 21.7122 19.2679 21.7122 18.4961C21.7122 17.7243 21.0865 17.0986 20.3147 17.0986C19.5428 17.0986 18.9172 17.7243 18.9172 18.4961C18.9172 19.2679 19.5428 19.8936 20.3147 19.8936Z" stroke="#0093FF" stroke-miterlimit="10"/>
<path d="M16.6504 22.9961C17.6804 22.091 19.0084 21.5983 20.3795 21.6124C21.7506 21.6265 23.0682 22.1466 24.0793 23.0727" stroke="#0093FF" stroke-miterlimit="10"/>
<path d="M10.3261 20.0087C10.326 20.931 10.0525 21.8325 9.54006 22.5994C9.02762 23.3662 8.29929 23.9638 7.44719 24.3167C6.59509 24.6695 5.65749 24.7618 4.75295 24.5818C3.84841 24.4018 3.01756 23.9576 2.36547 23.3054C1.71338 22.6532 1.26935 21.8223 1.08951 20.9177C0.909674 20.0131 1.00212 19.0755 1.35515 18.2235C1.70818 17.3715 2.30595 16.6432 3.07285 16.1309C3.83976 15.6186 4.74135 15.3453 5.66363 15.3454C6.90028 15.3456 8.08619 15.837 8.96055 16.7116C9.83491 17.5861 10.3261 18.7721 10.3261 20.0087V20.0087Z" stroke="#0093FF" stroke-miterlimit="10"/>
<path d="M6.98858 18.4961C6.98858 18.7626 6.90956 19.0231 6.76151 19.2446C6.61346 19.4662 6.40304 19.6388 6.15685 19.7408C5.91067 19.8428 5.63977 19.8694 5.37843 19.8174C5.11709 19.7654 4.87704 19.6371 4.68864 19.4486C4.50024 19.2602 4.37195 19.0201 4.32 18.7588C4.26805 18.4974 4.29477 18.2265 4.39679 17.9804C4.4988 17.7342 4.67152 17.5238 4.8931 17.3758C5.11469 17.2278 5.37519 17.1488 5.64165 17.1489C5.99896 17.1489 6.34163 17.2908 6.59428 17.5435C6.84693 17.7961 6.98887 18.1388 6.98887 18.4961" fill="#0093FF"/>
<path d="M6.98858 18.4961C6.98858 18.7626 6.90956 19.0231 6.76151 19.2446C6.61346 19.4662 6.40304 19.6388 6.15685 19.7408C5.91067 19.8428 5.63977 19.8694 5.37843 19.8174C5.11709 19.7654 4.87704 19.6371 4.68864 19.4486C4.50024 19.2602 4.37195 19.0201 4.32 18.7588C4.26805 18.4974 4.29477 18.2265 4.39679 17.9804C4.4988 17.7342 4.67152 17.5238 4.8931 17.3758C5.11469 17.2278 5.37519 17.1488 5.64165 17.1489C5.99891 17.149 6.3415 17.2909 6.59409 17.5436C6.84668 17.7962 6.98858 18.1389 6.98858 18.4961V18.4961Z" stroke="#0093FF" stroke-miterlimit="10"/>
<path d="M1.97766 22.9961C3.00769 22.091 4.33569 21.5983 5.70678 21.6124C7.07787 21.6265 8.39543 22.1466 9.40657 23.0727" stroke="#0093FF" stroke-miterlimit="10"/>
<path d="M19.012 7.25026C19.012 7.25026 22.0147 9.38458 21.6873 13.9169" stroke="#0093FF" stroke-miterlimit="10" stroke-linecap="round"/>
<path d="M6.98858 7.25026C6.98858 7.25026 3.98591 9.38458 4.31324 13.9169" stroke="#0093FF" stroke-miterlimit="10" stroke-linecap="round"/>
<path d="M11.363 22.1867C11.363 22.1867 12.3696 22.6563 14.5057 22.2425" stroke="#0093FF" stroke-miterlimit="10" stroke-linecap="round"/>
</svg>
