<svg width="26" height="25" viewBox="0 0 26 25" fill="none" xmlns="http://www.w3.org/2000/svg">
<path d="M17.1941 5.06603H24.3078C24.5292 5.06587 24.7415 4.97784 24.8981 4.82126C25.0547 4.66469 25.1427 4.45237 25.1429 4.23094V1.8345C25.1427 1.61307 25.0547 1.40075 24.8981 1.24418C24.7415 1.0876 24.5292 0.999566 24.3078 0.999405L17.1941 0.999405C16.9727 0.999566 16.7604 1.0876 16.6038 1.24418C16.4472 1.40075 16.3592 1.61307 16.359 1.8345V2.53644H13.1427C13.0111 2.53644 12.8849 2.58871 12.7919 2.68175C12.6988 2.77479 12.6466 2.90098 12.6466 3.03257V12.0407H9.92637V11.3385C9.92621 11.1171 9.83817 10.9047 9.6816 10.7482C9.52502 10.5916 9.31271 10.5036 9.09128 10.5034H1.97825C1.75679 10.5036 1.54445 10.5916 1.38782 10.7482C1.2312 10.9047 1.1431 11.117 1.14286 11.3385V13.7349C1.1431 13.9564 1.23119 14.1688 1.38781 14.3254C1.54442 14.482 1.75677 14.5701 1.97825 14.5703H9.09189C9.31334 14.5701 9.52566 14.482 9.68223 14.3254C9.83879 14.1687 9.92682 13.9564 9.92698 13.7349V13.0327H12.6475V22.0403C12.6474 22.1054 12.6603 22.17 12.6852 22.2302C12.7101 22.2904 12.7466 22.3451 12.7927 22.3912C12.8388 22.4372 12.8935 22.4738 12.9537 22.4987C13.0139 22.5236 13.0785 22.5364 13.1436 22.5364H16.36V23.2389C16.3604 23.46 16.4484 23.672 16.6047 23.8283C16.7611 23.9847 16.973 24.0727 17.1941 24.0731H24.3078C24.5292 24.073 24.7415 23.9849 24.8981 23.8283C25.0547 23.6718 25.1427 23.4595 25.1429 23.238V20.8422C25.1427 20.6207 25.0547 20.4084 24.8981 20.2518C24.7415 20.0951 24.5292 20.007 24.3078 20.0068H17.1941C16.9727 20.007 16.7604 20.0951 16.6038 20.2518C16.4472 20.4084 16.3592 20.6207 16.359 20.8422V21.5441H13.6388V13.0321H16.36V13.7343C16.36 13.9557 16.4478 14.1681 16.6042 14.3248C16.7606 14.4816 16.9727 14.5698 17.1941 14.5703H24.3078C24.5292 14.5701 24.7415 14.482 24.8981 14.3254C25.0547 14.1687 25.1427 13.9564 25.1429 13.7349V11.3385C25.1427 11.1171 25.0547 10.9047 24.8981 10.7482C24.7415 10.5916 24.5292 10.5036 24.3078 10.5034H17.1941C16.9727 10.5036 16.7604 10.5916 16.6038 10.7482C16.4472 10.9047 16.3592 11.1171 16.359 11.3385V12.0407H13.6388V3.5287H16.36V4.23094C16.3601 4.45221 16.448 4.66439 16.6044 4.82094C16.7608 4.97749 16.9729 5.06563 17.1941 5.06603ZM17.3513 1.99167H24.1509V4.07438H17.3519L17.3513 1.99167ZM8.93411 13.5781H2.13512V11.4957H8.93411V13.5781ZM17.3519 20.9991H24.1509V23.0818H17.3519V20.9991ZM17.3519 11.4957H24.1509V13.5784H17.3519V11.4957Z" fill="#0093FF" stroke="#0093FF" stroke-width="0.5"/>
</svg>
