<svg id="Group_1217" data-name="Group 1217" xmlns="http://www.w3.org/2000/svg" xmlns:xlink="http://www.w3.org/1999/xlink" width="74.942" height="74.945" viewBox="0 0 74.942 74.945">
  <defs>
    <clipPath id="clip-path">
      <rect id="Rectangle_85" data-name="Rectangle 85" width="74.942" height="74.945" fill="none"/>
    </clipPath>
  </defs>
  <g id="Group_1216" data-name="Group 1216" transform="translate(0 0)" clip-path="url(#clip-path)">
    <path id="Path_1211" data-name="Path 1211" d="M56.371,62.7H6.328A6.338,6.338,0,0,1,0,56.372V6.328A6.338,6.338,0,0,1,6.328,0H56.371A6.339,6.339,0,0,1,62.7,6.328V56.372A6.339,6.339,0,0,1,56.371,62.7M6.328,3.923A2.4,2.4,0,0,0,3.923,6.328V56.372a2.4,2.4,0,0,0,2.406,2.406H56.371a2.4,2.4,0,0,0,2.407-2.406V6.328a2.4,2.4,0,0,0-2.407-2.406Z" transform="translate(0 0)" fill="#0093ff"/>
    <path id="Path_1212" data-name="Path 1212" d="M48.381,26.867h-4.9a1.964,1.964,0,0,0-1.961,1.961V48.42a1.964,1.964,0,0,0,1.961,1.961h4.9a1.964,1.964,0,0,0,1.961-1.961V28.828a1.964,1.964,0,0,0-1.961-1.961" transform="translate(0.113 0.073)" fill="#0093ff"/>
    <path id="Path_1213" data-name="Path 1213" d="M37.611,31.751h-4.9a1.964,1.964,0,0,0-1.961,1.961V48.406a1.964,1.964,0,0,0,1.961,1.961h4.9a1.964,1.964,0,0,0,1.961-1.961V33.712a1.964,1.964,0,0,0-1.961-1.961" transform="translate(0.084 0.087)" fill="#0093ff"/>
    <path id="Path_1214" data-name="Path 1214" d="M26.841,36.636h-4.9A1.964,1.964,0,0,0,19.981,38.6v9.8a1.964,1.964,0,0,0,1.961,1.961h4.9A1.964,1.964,0,0,0,28.8,48.393V38.6a1.964,1.964,0,0,0-1.961-1.961" transform="translate(0.054 0.1)" fill="#0093ff"/>
    <path id="Path_1215" data-name="Path 1215" d="M16.072,41.521h-4.9a1.964,1.964,0,0,0-1.961,1.961v4.9a1.964,1.964,0,0,0,1.961,1.961h4.9a1.964,1.964,0,0,0,1.961-1.961v-4.9a1.964,1.964,0,0,0-1.961-1.961" transform="translate(0.025 0.113)" fill="#0093ff"/>
    <path id="Path_1216" data-name="Path 1216" d="M11.731,33.027a1.961,1.961,0,0,1-1.388-3.348l15.2-15.2a1.963,1.963,0,0,1,2.774,0l6.9,6.908,9.664-9.667A1.961,1.961,0,0,1,47.653,14.5L36.6,25.546a1.965,1.965,0,0,1-2.776,0l-6.9-6.907L13.118,32.454a1.957,1.957,0,0,1-1.387.574" transform="translate(0.027 0.031)" fill="#0093ff"/>
    <path id="Path_1217" data-name="Path 1217" d="M47.581,24.742A1.964,1.964,0,0,1,45.62,22.78V13.692H36.527a1.961,1.961,0,1,1,0-3.922H47.581a1.964,1.964,0,0,1,1.961,1.961V22.78a1.964,1.964,0,0,1-1.961,1.961" transform="translate(0.094 0.027)" fill="#0093ff"/>
    <path id="Path_1218" data-name="Path 1218" d="M72.818,74.779a1.94,1.94,0,0,1-1.387-.579l-9.8-9.792a1.962,1.962,0,1,1,2.775-2.775l9.8,9.8a1.96,1.96,0,0,1-1.387,3.343" transform="translate(0.166 0.166)" fill="#0093ff"/>
    <path id="Path_1219" data-name="Path 1219" d="M67.983,53.287A14.694,14.694,0,1,1,53.288,38.592,14.7,14.7,0,0,1,67.983,53.287" transform="translate(0.105 0.105)" fill="#fff"/>
    <path id="Path_1220" data-name="Path 1220" d="M53.292,69.947A16.656,16.656,0,1,1,69.947,53.292,16.674,16.674,0,0,1,53.292,69.947m0-29.389A12.733,12.733,0,1,0,66.026,53.292,12.747,12.747,0,0,0,53.292,40.559" transform="translate(0.1 0.1)" fill="#0093ff"/>
  </g>
</svg>
