<svg viewBox="0 0 75 113" fill="none" xmlns="http://www.w3.org/2000/svg">
<path d="M43.326 112.374C56.0763 110.053 66.1183 102.57 71.4872 91.3913C74.2981 85.5384 74.9833 82.3999 74.9998 75.3026C75.0358 59.9418 69.0539 46.7723 47.0688 13.8094C42.0031 6.2143 37.6971 0 37.5 0C37.3029 0 32.9969 6.2143 27.9312 13.8094C5.94612 46.7723 -0.0356213 59.9418 0.000161318 75.3026C0.0165277 82.3999 0.70193 85.5384 3.51279 91.3913C9.62871 104.126 21.838 112.078 36.0837 112.606C38.8101 112.706 42.0692 112.603 43.326 112.374V112.374ZM30.7751 102.48C15.8717 98.6685 6.99682 84.8493 9.66298 69.6059C11.084 61.4817 16.7611 48.6947 24.3218 36.5891C29.5406 28.2329 37.2288 16.5312 37.5 16.5312C37.6299 16.5312 39.8519 19.7694 42.438 23.7274C59.6726 50.1049 65.8518 63.7274 65.8188 75.2713C65.7669 93.4045 48.3037 106.963 30.7751 102.48V102.48Z" fill="#010000"/>
</svg>
