<svg viewBox="0 0 151 170" fill="none" xmlns="http://www.w3.org/2000/svg">
<path d="M147.683 139.536C149.947 138.306 150.842 133.386 149.359 130.323C148.955 129.487 148.487 128.803 148.319 128.803C148.005 128.803 147.957 128.56 147.281 123.521C145.556 110.655 139.569 97.4766 131.647 89.1076C124.387 81.4374 115.648 76.9233 104.576 75.1242C100.327 74.4337 98.9633 73.9964 97.299 72.7908C94.7531 70.9465 94.3357 69.5178 94.117 61.898L93.9301 55.3836L74.3088 55.2926L54.6875 55.2016L54.1871 55.9968C53.8438 56.5426 53.6304 58.3388 53.5071 61.7219C53.2289 69.3515 51.6887 72.9746 47.851 75.0271C46.435 75.7844 46.0239 75.8103 33.818 75.9118C23.2657 75.9995 21.0819 75.9326 20.2373 75.4959C19.3123 75.0175 18.646 73.9167 17.7082 71.3175L17.3588 70.3492H8.72287H0.0869126V91.301V112.253H8.66132H17.2357L18.1999 109.984C18.7303 108.736 19.5408 107.469 20.001 107.167C20.7151 106.699 22.5115 106.619 32.2383 106.619C47.5677 106.619 48.1173 106.76 56.9403 112.961C59.0794 114.465 61.4635 116.012 62.2382 116.399C66.6763 118.618 73.4038 119.483 78.2602 118.458C81.5967 117.754 85.9191 115.627 88.6481 113.347C95.5997 107.539 97.1359 106.81 102.381 106.824C105.459 106.832 106.167 106.954 108.001 107.795C111.08 109.208 113.551 111.225 115.167 113.645C116.87 116.195 117.756 118.453 119.177 123.864C119.991 126.967 120.145 128.029 119.84 128.442C117.202 132.008 117.542 138.005 120.468 139.518C121.994 140.307 146.234 140.323 147.683 139.536V139.536ZM122.05 135.15C121.793 133.869 121.793 133.949 122.05 132.668L122.259 131.62H134.027C147.027 131.62 146.222 131.469 146.222 133.909C146.222 136.349 147.027 136.198 134.027 136.198H122.259L122.05 135.15ZM122.683 122.025C120.154 112.21 115.847 106.663 108.623 103.921C105.752 102.831 101.497 102.476 98.5803 103.082C95.5444 103.713 91.5084 105.927 87.9438 108.918C82.7723 113.256 79.8787 114.597 74.9126 114.958C69.1971 115.373 64.8648 113.938 58.8989 109.654C54.2238 106.297 51.9929 105.024 48.8538 103.923L46.0401 102.935L34.8599 102.814L23.6797 102.693V91.3001V79.9073L35.3881 79.794L47.0965 79.6806L49.1024 78.7404C54.3238 76.2929 56.9467 71.2737 57.3894 62.8825L57.5899 59.0809H73.8628H90.1356L90.3275 64.0988C90.5737 70.5348 91.0333 71.9083 93.9024 74.7818C96.3655 77.2487 98.3294 78.0619 103.97 78.9509C110.991 80.0575 116.104 82.013 121.684 85.7255C130.386 91.5153 136.61 100.219 140.565 112.129C141.858 116.024 143.757 124.06 143.757 125.639C143.757 126.32 143.495 126.338 133.775 126.338H123.794L122.683 122.025ZM3.96038 91.301V74.2226H9.2333H14.5062L15.0823 75.367C15.3991 75.9965 16.2351 77.1135 16.94 77.8492L18.2217 79.187L18.0912 91.5424L17.9606 103.898L16.7847 104.93C16.138 105.498 15.4122 106.506 15.1719 107.171L14.735 108.379H9.34767H3.96038V91.301ZM92.8737 50.5939C95.143 49.8968 95.8668 48.7147 95.8668 45.7056C95.8668 44.4396 95.6395 43.1126 95.3152 42.4855C94.2538 40.433 94.1028 40.4179 74.554 40.4179C62.7339 40.4179 56.2208 40.5486 55.1971 40.8064C52.9553 41.3709 52.4239 42.1348 52.2604 45.0279C52.0812 48.1996 52.5627 49.344 54.4636 50.2642C55.8987 50.959 56.5196 50.9809 73.8817 50.9501C83.7463 50.9327 92.2927 50.7724 92.8737 50.5939V50.5939ZM56.252 45.6999V44.4675L74.1227 44.3762L91.9934 44.285V45.462C91.9934 46.1094 91.8863 46.7461 91.7554 46.877C91.6245 47.0079 83.5827 47.0739 73.8847 47.0237L56.252 46.9325V45.6999ZM79.0005 38.3052C81.1425 38.1936 82.5977 37.9492 82.9709 37.6384C83.4962 37.2009 83.5366 36.4874 83.3432 31.062L83.1262 24.9764L84.4786 24.0857L85.831 23.1951L89.8806 24.0541C92.1078 24.5265 95.5531 25.391 97.5368 25.975C103.841 27.8312 107.173 27.2158 111.197 23.4517C114.781 20.0989 116.289 16.0347 115.575 11.6492C114.629 5.84056 109.464 0.700275 103.933 0.0650497C102.293 -0.123385 101.179 0.0570643 97.2577 1.14689C94.6691 1.86631 91.0664 2.74248 89.2517 3.09393L85.9522 3.73295L84.307 2.72764C81.2511 0.860251 78.4985 0.150263 74.2107 0.123462C69.8015 0.0959125 66.6254 0.879866 63.7561 2.7039L62.1048 3.75365L57.9459 2.90627C55.6585 2.4402 52.1242 1.55974 50.0919 0.949687C45.6788 -0.375063 43.5668 -0.324386 40.3783 1.18276C36.2641 3.12748 33.205 7.24299 32.4669 11.8263C31.0201 20.8103 40.0265 29.0377 48.5305 26.5005C49.6785 26.158 53.2296 25.2941 56.4216 24.5807L62.2254 23.2836L63.3763 23.9626L64.5271 24.6416V31.1088C64.5271 36.9461 64.588 37.6087 65.153 37.9111C65.9038 38.3129 74.2758 38.5512 79.0005 38.3052V38.3052ZM68.4005 28.7628V23.0939L67.3984 22.1578C66.8473 21.643 65.5651 20.7693 64.5492 20.2164L62.702 19.211L55.9556 20.7063C52.2452 21.5288 48.5952 22.4181 47.8445 22.6826C43.864 24.0852 39.315 21.9826 37.1693 17.7483C34.769 13.0115 37.2195 6.85704 42.4518 4.48158C44.4544 3.57241 45.434 3.62491 49.7375 4.87212C51.7711 5.46147 55.5037 6.35541 58.0323 6.85865C62.3507 7.71812 62.6925 7.73914 63.6664 7.20493C71.8706 2.70455 76.2769 2.66026 83.9924 7.00066C85.3143 7.74427 85.3456 7.74515 88.7462 7.13684C90.629 6.80005 94.4663 5.89659 97.2736 5.12914C102.946 3.57836 104.143 3.56614 106.647 5.03342C109.86 6.91672 111.697 10.0526 111.697 13.6559C111.697 17.3691 110.013 20.1937 106.646 22.1245C104.271 23.4869 102.689 23.4623 97.6214 21.9841C95.3975 21.3355 91.7297 20.446 89.4707 20.0076L85.3634 19.2104L83.7165 20.0329C82.8107 20.4853 81.4897 21.3579 80.7811 21.972L79.4927 23.0885L79.5888 28.7601L79.6849 34.4317H74.0427H68.4005L68.4005 28.7628Z" fill="#010000"/>
<path d="M135.837 169.033C138.75 168.502 141.045 166.792 142.272 164.238C142.915 162.9 143.071 162.183 143.075 160.561C143.083 157.05 141.716 154.041 136.692 146.507C135.534 144.772 134.55 143.352 134.505 143.352C134.46 143.352 133.476 144.772 132.318 146.507C127.294 154.041 125.927 157.05 125.935 160.561C125.939 162.183 126.096 162.9 126.738 164.238C128.136 167.148 130.926 168.965 134.181 169.086C134.805 169.109 135.549 169.085 135.837 169.033V169.033ZM132.968 166.772C129.562 165.901 127.534 162.742 128.143 159.259C128.468 157.402 129.766 154.48 131.494 151.713C132.686 149.804 134.443 147.13 134.505 147.13C134.535 147.13 135.043 147.87 135.634 148.774C139.572 154.802 140.985 157.915 140.977 160.554C140.965 164.698 136.974 167.796 132.968 166.772V166.772Z" fill="#010000"/>
<path d="M135.882 169.539C139.07 168.959 141.581 167.088 142.923 164.292C143.626 162.829 143.798 162.044 143.802 160.269C143.811 156.428 142.315 153.135 136.817 144.893C135.551 142.993 134.474 141.439 134.425 141.439C134.375 141.439 133.299 142.993 132.032 144.893C126.535 153.135 125.039 156.428 125.048 160.269C125.052 162.044 125.223 162.829 125.926 164.292C127.455 167.477 130.508 169.465 134.071 169.597C134.752 169.622 135.567 169.596 135.882 169.539V169.539ZM132.743 167.065C129.016 166.112 126.797 162.656 127.464 158.845C127.819 156.813 129.239 153.616 131.129 150.589C132.434 148.499 134.357 145.573 134.425 145.573C134.457 145.573 135.013 146.383 135.659 147.373C139.969 153.968 141.514 157.375 141.506 160.261C141.493 164.796 137.126 168.186 132.743 167.065V167.065Z" fill="#010000"/>
</svg>
