<svg width="100%" viewBox="0 0 250 247" fill="none" xmlns="http://www.w3.org/2000/svg">
<path d="M202.85 171.563C205.19 170.292 206.116 165.204 204.583 162.037C204.164 161.173 203.68 160.466 203.507 160.466C203.182 160.466 203.133 160.215 202.434 155.005C200.651 141.703 194.461 128.077 186.27 119.424C178.763 111.494 169.728 106.827 158.281 104.967C153.888 104.253 152.478 103.801 150.757 102.554C148.125 100.647 147.693 99.1702 147.467 91.292L147.274 84.5567L126.987 84.4626L106.7 84.3685L106.183 85.1907C105.828 85.755 105.607 87.6121 105.48 91.11C105.192 98.9982 103.6 102.744 99.632 104.866C98.168 105.649 97.7429 105.676 85.1231 105.781C74.2129 105.872 71.9551 105.803 71.0819 105.351C70.1255 104.856 69.4365 103.718 68.467 101.031L68.1057 100.03H59.1769H50.2481V121.692V143.355H59.1133H67.9785L68.9754 141.009C69.5237 139.719 70.3617 138.408 70.8376 138.096C71.5758 137.613 73.4331 137.529 83.4898 137.529C99.3391 137.529 99.9074 137.675 109.03 144.087C111.241 145.641 113.706 147.241 114.507 147.641C119.096 149.936 126.051 150.829 131.072 149.77C134.522 149.042 138.991 146.843 141.813 144.486C149 138.481 150.588 137.727 156.011 137.741C159.194 137.75 159.926 137.876 161.821 138.746C165.005 140.206 167.56 142.291 169.231 144.794C170.992 147.431 171.908 149.765 173.376 155.359C174.219 158.567 174.378 159.665 174.062 160.092C171.335 163.78 171.687 169.98 174.711 171.544C176.289 172.36 201.351 172.377 202.85 171.563V171.563ZM176.347 167.028C176.082 165.703 176.082 165.787 176.347 164.462L176.563 163.379H188.73C202.172 163.379 201.339 163.222 201.339 165.745C201.339 168.268 202.172 168.112 188.73 168.112H176.563L176.347 167.028ZM177.001 153.458C174.387 143.31 169.934 137.575 162.465 134.74C159.497 133.613 155.098 133.246 152.082 133.873C148.943 134.525 144.77 136.814 141.084 139.906C135.738 144.392 132.746 145.778 127.611 146.151C121.702 146.58 117.223 145.097 111.055 140.667C106.221 137.197 103.914 135.881 100.669 134.742L97.7597 133.721L86.2004 133.596L74.641 133.47V121.691V109.912L86.7465 109.795L98.8519 109.678L100.926 108.706C106.324 106.175 109.036 100.986 109.494 92.3099L109.701 88.3794H126.526H143.351L143.549 93.5675C143.804 100.222 144.279 101.642 147.245 104.613C149.792 107.163 151.822 108.004 157.654 108.923C164.913 110.067 170.2 112.089 175.969 115.928C184.966 121.914 191.401 130.913 195.49 143.226C196.827 147.253 198.79 155.562 198.79 157.195C198.79 157.899 198.52 157.917 188.47 157.917H178.15L177.001 153.458ZM54.2529 121.692V104.035H59.7047H65.1564L65.752 105.218C66.0796 105.869 66.9439 107.023 67.6727 107.784L68.9979 109.167L68.8629 121.942L68.7279 134.716L67.5122 135.784C66.8435 136.371 66.0932 137.413 65.8447 138.1L65.3929 139.35H59.8229H54.2529V121.692ZM146.181 79.6046C148.528 78.8839 149.276 77.6616 149.276 74.5505C149.276 73.2415 149.041 71.8696 148.706 71.2212C147.608 69.0991 147.452 69.0835 127.241 69.0835C115.02 69.0835 108.286 69.2187 107.227 69.4852C104.909 70.0688 104.36 70.8586 104.191 73.8498C104.006 77.129 104.504 78.3123 106.469 79.2637C107.953 79.982 108.595 80.0047 126.545 79.9729C136.745 79.9548 145.581 79.7891 146.181 79.6046V79.6046ZM108.318 74.5446V73.2704L126.795 73.1761L145.271 73.0817V74.2986C145.271 74.9679 145.161 75.6263 145.025 75.7616C144.89 75.8969 136.575 75.9652 126.549 75.9133L108.318 75.819V74.5446ZM131.838 66.8991C134.052 66.7838 135.557 66.5311 135.943 66.2097C136.486 65.7574 136.528 65.0197 136.328 59.4103L136.103 53.1183L137.502 52.1974L138.9 51.2766L143.087 52.1647C145.39 52.6532 148.952 53.5469 151.003 54.1508C157.521 56.07 160.966 55.4337 165.126 51.5419C168.832 48.0754 170.39 43.8734 169.652 39.3391C168.675 33.3335 163.334 28.0189 157.616 27.3622C155.92 27.1674 154.768 27.3539 150.714 28.4807C148.038 29.2245 144.313 30.1304 142.437 30.4938L139.025 31.1545L137.324 30.1151C134.165 28.1843 131.319 27.4503 126.886 27.4226C122.327 27.3941 119.043 28.2046 116.076 30.0905L114.369 31.1759L110.069 30.2997C107.704 29.8179 104.05 28.9076 101.949 28.2768C97.3861 26.9071 95.2025 26.9595 91.9059 28.5178C87.6522 30.5285 84.4893 34.7835 83.7262 39.5223C82.2303 48.8109 91.5421 57.3174 100.335 54.6941C101.522 54.34 105.193 53.4468 108.493 52.7092L114.494 51.3681L115.684 52.0701L116.874 52.7721V59.4587C116.874 65.4939 116.937 66.1791 117.521 66.4917C118.297 66.9071 126.953 67.1534 131.838 66.8991V66.8991ZM120.878 57.0331V51.172L119.842 50.2042C119.272 49.6719 117.947 48.7686 116.896 48.1969L114.987 47.1574L108.011 48.7034C104.175 49.5538 100.401 50.4732 99.6253 50.7467C95.5098 52.1969 90.8065 50.023 88.5881 45.6451C86.1064 40.7477 88.64 34.3845 94.0497 31.9285C96.1202 30.9885 97.133 31.0428 101.582 32.3323C103.685 32.9416 107.544 33.8659 110.159 34.3862C114.623 35.2748 114.977 35.2965 115.984 34.7442C124.466 30.0912 129.022 30.0454 136.999 34.533C138.366 35.3018 138.398 35.3027 141.914 34.6738C143.861 34.3256 147.828 33.3915 150.731 32.598C156.596 30.9946 157.833 30.982 160.421 32.499C163.744 34.4462 165.643 37.6884 165.643 41.4139C165.643 45.253 163.902 48.1734 160.421 50.1697C157.965 51.5783 156.33 51.5529 151.09 50.0246C148.791 49.3539 144.999 48.4343 142.663 47.981L138.417 47.1568L136.714 48.0072C135.777 48.4749 134.411 49.3771 133.679 50.012L132.347 51.1664L132.446 57.0303L132.545 62.8943H126.712H120.878L120.878 57.0331Z" fill="#DAECF6"/>
<path d="M190.601 202.06C193.614 201.511 195.986 199.744 197.255 197.102C197.919 195.719 198.081 194.978 198.085 193.301C198.093 189.671 196.68 186.559 191.485 178.771C190.288 176.976 189.271 175.508 189.224 175.508C189.178 175.508 188.16 176.976 186.963 178.771C181.769 186.559 180.355 189.671 180.364 193.301C180.368 194.978 180.53 195.719 181.194 197.102C182.639 200.111 185.524 201.99 188.89 202.115C189.534 202.139 190.304 202.114 190.601 202.06V202.06ZM187.635 199.722C184.114 198.822 182.017 195.556 182.647 191.955C182.983 190.035 184.324 187.014 186.111 184.153C187.344 182.179 189.16 179.414 189.224 179.414C189.255 179.414 189.78 180.179 190.391 181.114C194.463 187.347 195.923 190.566 195.916 193.293C195.903 197.578 191.777 200.782 187.635 199.722V199.722Z" fill="#DAECF6"/>
<path d="M190.648 202.582C193.944 201.982 196.541 200.047 197.929 197.157C198.655 195.644 198.833 194.832 198.837 192.998C198.846 189.026 197.3 185.622 191.616 177.1C190.306 175.136 189.193 173.529 189.142 173.529C189.091 173.529 187.978 175.136 186.668 177.1C180.984 185.622 179.438 189.026 179.447 192.998C179.451 194.832 179.628 195.644 180.355 197.157C181.936 200.449 185.093 202.505 188.776 202.642C189.481 202.668 190.323 202.641 190.648 202.582V202.582ZM187.403 200.024C183.55 199.038 181.256 195.466 181.945 191.525C182.312 189.424 183.78 186.119 185.735 182.989C187.084 180.828 189.072 177.803 189.142 177.803C189.175 177.803 189.75 178.64 190.419 179.664C194.874 186.483 196.472 190.005 196.463 192.99C196.45 197.678 191.935 201.183 187.403 200.024V200.024Z" fill="#DAECF6"/>
<circle cx="127.481" cy="124.38" r="120.019" stroke="#DAECF6" stroke-width="5"/>
<path d="M197.887 169.702C200.227 168.43 201.153 163.343 199.62 160.176C199.202 159.312 198.718 158.605 198.544 158.605C198.219 158.605 198.17 158.353 197.471 153.144C195.688 139.842 189.498 126.216 181.307 117.563C173.801 109.633 164.765 104.966 153.318 103.105C148.925 102.392 147.515 101.939 145.794 100.693C143.162 98.786 142.73 97.3089 142.504 89.4307L142.311 82.6953L122.024 82.6013L101.737 82.5072L101.22 83.3294C100.865 83.8937 100.644 85.7508 100.517 89.2487C100.229 97.1369 98.637 100.883 94.6691 103.005C93.2051 103.788 92.78 103.815 80.1602 103.92C69.2501 104.01 66.9922 103.941 66.119 103.49C65.1626 102.995 64.4737 101.857 63.5041 99.1697L63.1428 98.1685H54.214H45.2852V119.831V141.493H54.1504H63.0156L64.0125 139.148C64.5608 137.857 65.3988 136.547 65.8747 136.235C66.6129 135.751 68.4703 135.668 78.5269 135.668C94.3762 135.668 94.9445 135.814 104.067 142.226C106.278 143.78 108.743 145.38 109.544 145.78C114.133 148.074 121.088 148.968 126.11 147.908C129.559 147.18 134.028 144.982 136.85 142.625C144.037 136.62 145.625 135.866 151.049 135.88C154.231 135.888 154.963 136.015 156.859 136.885C160.042 138.345 162.597 140.43 164.268 142.933C166.029 145.569 166.945 147.904 168.413 153.498C169.256 156.706 169.415 157.804 169.099 158.231C166.372 161.919 166.724 168.119 169.748 169.683C171.327 170.499 196.388 170.516 197.887 169.702V169.702ZM171.384 165.167C171.119 163.842 171.119 163.926 171.384 162.601L171.601 161.517H183.767C197.209 161.517 196.376 161.361 196.376 163.884C196.376 166.407 197.209 166.25 183.767 166.25H171.601L171.384 165.167ZM172.038 151.596C169.424 141.448 164.971 135.714 157.502 132.879C154.534 131.752 150.135 131.384 147.119 132.011C143.98 132.664 139.807 134.953 136.122 138.045C130.775 142.53 127.783 143.917 122.648 144.29C116.739 144.719 112.26 143.235 106.092 138.806C101.258 135.335 98.9515 134.019 95.7059 132.88L92.7968 131.86L81.2375 131.734L69.6781 131.609V119.83V108.051L81.7836 107.934L93.889 107.816L95.963 106.844C101.361 104.314 104.073 99.1244 104.531 90.4486L104.738 86.5181H121.563H138.388L138.586 91.7061C138.841 98.3604 139.316 99.7805 142.282 102.751C144.829 105.302 146.859 106.143 152.691 107.062C159.951 108.206 165.237 110.228 171.006 114.066C180.003 120.052 186.438 129.051 190.527 141.365C191.864 145.392 193.827 153.7 193.827 155.334C193.827 156.037 193.557 156.056 183.507 156.056H173.187L172.038 151.596ZM49.29 119.831V102.173H54.7418H60.1935L60.7891 103.357C61.1167 104.007 61.981 105.162 62.7099 105.923L64.035 107.306L63.9 120.08L63.7651 132.855L62.5493 133.922C61.8806 134.509 61.1303 135.552 60.8818 136.239L60.43 137.488H54.86H49.29V119.831ZM141.219 77.7432C143.565 77.0225 144.313 75.8003 144.313 72.6892C144.313 71.3802 144.078 70.0082 143.743 69.3599C142.646 67.2377 142.489 67.2222 122.278 67.2222C110.057 67.2222 103.323 67.3573 102.264 67.6238C99.9465 68.2075 99.3971 68.9973 99.2281 71.9885C99.0428 75.2677 99.5406 76.451 101.506 77.4024C102.99 78.1207 103.632 78.1434 121.583 78.1116C131.782 78.0935 140.618 77.9278 141.219 77.7432V77.7432ZM103.355 72.6833V71.4091L121.832 71.3147L140.308 71.2204V72.4373C140.308 73.1066 140.198 73.7649 140.062 73.9003C139.927 74.0356 131.613 74.1039 121.586 74.052L103.355 73.9576V72.6833ZM126.875 65.0378C129.09 64.9224 130.594 64.6698 130.98 64.3484C131.523 63.896 131.565 63.1584 131.365 57.549L131.141 51.257L132.539 50.3361L133.937 49.4153L138.124 50.3034C140.427 50.7919 143.989 51.6856 146.04 52.2895C152.558 54.2087 156.003 53.5723 160.163 49.6806C163.869 46.214 165.428 42.0121 164.69 37.4778C163.712 31.4722 158.371 26.1576 152.653 25.5008C150.957 25.306 149.805 25.4926 145.751 26.6194C143.075 27.3632 139.35 28.2691 137.474 28.6325L134.062 29.2931L132.361 28.2537C129.202 26.323 126.356 25.589 121.923 25.5612C117.364 25.5328 114.08 26.3433 111.114 28.2292L109.406 29.3145L105.106 28.4384C102.741 27.9566 99.0873 27.0462 96.986 26.4155C92.4232 25.0458 90.2396 25.0982 86.943 26.6565C82.6893 28.6671 79.5264 32.9222 78.7633 37.6609C77.2674 46.9496 86.5792 55.456 95.3716 52.8328C96.5586 52.4787 100.23 51.5854 103.53 50.8479L109.531 49.5068L110.721 50.2088L111.911 50.9108V57.5974C111.911 63.6326 111.974 64.3177 112.558 64.6304C113.334 65.0458 121.99 65.2921 126.875 65.0378V65.0378ZM115.915 55.1718V49.3107L114.879 48.3428C114.31 47.8105 112.984 46.9073 111.934 46.3355L110.024 45.2961L103.049 46.8421C99.2123 47.6925 95.4385 48.6119 94.6624 48.8854C90.5469 50.3356 85.8436 48.1616 83.6252 43.7838C81.1435 38.8864 83.6771 32.5232 89.0868 30.0672C91.1573 29.1271 92.1701 29.1814 96.6196 30.4709C98.7221 31.0803 102.581 32.0045 105.196 32.5248C109.66 33.4135 110.014 33.4352 111.021 32.8829C119.503 28.2299 124.059 28.1841 132.036 32.6717C133.403 33.4405 133.435 33.4414 136.951 32.8125C138.898 32.4642 142.865 31.5301 145.768 30.7367C151.633 29.1333 152.87 29.1207 155.459 30.6377C158.781 32.5849 160.681 35.8271 160.681 39.5526C160.681 43.3917 158.939 46.3121 155.458 48.3084C153.002 49.717 151.367 49.6916 146.127 48.1633C143.828 47.4926 140.036 46.573 137.7 46.1197L133.454 45.2954L131.751 46.1459C130.814 46.6136 129.449 47.5158 128.716 48.1507L127.384 49.3051L127.483 55.169L127.583 61.033H121.749H115.916L115.915 55.1718Z" fill="#010000"/>
<path d="M185.638 200.199C188.651 199.65 191.023 197.882 192.292 195.241C192.956 193.858 193.118 193.116 193.122 191.439C193.13 187.81 191.717 184.698 186.522 176.909C185.325 175.115 184.308 173.646 184.261 173.646C184.215 173.646 183.197 175.115 182 176.909C176.806 184.698 175.392 187.81 175.401 191.439C175.405 193.116 175.567 193.858 176.231 195.241C177.676 198.25 180.561 200.129 183.927 200.254C184.571 200.277 185.341 200.253 185.638 200.199V200.199ZM182.672 197.861C179.151 196.96 177.054 193.695 177.684 190.093C178.02 188.174 179.361 185.152 181.148 182.292C182.381 180.317 184.197 177.553 184.261 177.553C184.292 177.553 184.817 178.318 185.428 179.253C189.5 185.485 190.961 188.704 190.953 191.432C190.94 195.716 186.814 198.92 182.672 197.861V197.861Z" fill="#010000"/>
<path d="M185.685 200.722C188.982 200.122 191.578 198.188 192.966 195.298C193.693 193.785 193.87 192.973 193.874 191.138C193.883 187.167 192.337 183.762 186.653 175.24C185.343 173.277 184.23 171.67 184.179 171.67C184.128 171.67 183.015 173.277 181.705 175.24C176.021 183.762 174.475 187.167 174.484 191.138C174.488 192.973 174.665 193.785 175.392 195.298C176.973 198.59 180.13 200.646 183.813 200.782C184.518 200.808 185.36 200.782 185.685 200.722V200.722ZM182.44 198.165C178.587 197.179 176.293 193.606 176.982 189.665C177.35 187.565 178.817 184.259 180.772 181.129C182.121 178.969 184.109 175.944 184.179 175.944C184.213 175.944 184.787 176.781 185.456 177.804C189.911 184.624 191.509 188.146 191.5 191.13C191.487 195.818 186.972 199.324 182.44 198.165V198.165Z" fill="#010000"/>
<circle cx="122.519" cy="122.519" r="120.019" stroke="#010000" stroke-width="5"/>
</svg>
