<svg width="150" height="50" viewBox="0 0 431 454" fill="none" xmlns="http://www.w3.org/2000/svg">
<path fill-rule="evenodd" clip-rule="evenodd" d="M220.61 60.4802C215.724 60.4802 211.765 64.4414 211.765 69.3272V82.8085L146.652 82.8027V17.692H160.124C165.01 17.692 168.969 13.7308 168.969 8.84506C168.969 3.96123 165.01 0 160.124 0H8.84692C3.95923 0 0 3.96123 0 8.84698C0 13.7328 3.95923 17.694 8.84497 17.694H22.3147V144.97C22.3147 179.253 50.2039 207.146 84.4873 207.146H211.765V220.61C211.765 225.496 215.724 229.457 220.61 229.457C225.496 229.457 229.455 225.496 229.455 220.61V207.516H283.959V272.622H270.485C265.599 272.622 261.64 276.584 261.64 281.469C261.64 286.355 265.599 290.316 270.485 290.316H421.764C426.65 290.316 430.609 286.355 430.609 281.469C430.609 276.584 426.654 272.62 421.766 272.62H408.294V145.335C408.294 111.057 380.405 83.1703 346.124 83.1703H229.455V69.3253C229.455 64.4395 225.496 60.4802 220.61 60.4802ZM292.806 189.822H229.455V100.864H346.125C370.651 100.864 390.604 120.815 390.604 145.337V272.622H301.653V198.669C301.653 193.783 297.693 189.822 292.806 189.822ZM84.4873 189.452C59.96 189.452 40.0068 169.497 40.0068 144.97V17.692H128.96V91.6478C128.96 96.5335 132.92 100.493 137.805 100.495L211.763 100.499V189.452H84.4873ZM337.006 300.374C338.467 298.262 340.875 297 343.445 297C346.017 297 348.423 298.263 349.884 300.374C354.855 307.562 398.443 371.396 398.443 399.06C398.443 429.353 373.771 454 343.445 454C313.116 454 288.443 429.355 288.443 399.06C288.443 371.398 332.035 307.562 337.006 300.374ZM304.095 399.06C304.095 420.733 321.747 438.365 343.445 438.365C365.14 438.365 382.791 420.734 382.791 399.06C382.791 383.845 360.778 345.248 343.445 318.832C326.111 345.255 304.095 383.857 304.095 399.06Z" fill="#0095CD"/>
</svg>
