<?xml version="1.0" encoding="utf-8"?>
<!-- Generator: Adobe Illustrator 18.1.1, SVG Export Plug-In . SVG Version: 6.00 Build 0)  -->
<!DOCTYPE svg PUBLIC "-//W3C//DTD SVG 1.1//EN" "http://www.w3.org/Graphics/SVG/1.1/DTD/svg11.dtd">
<svg version="1.1" id="Layer_1" xmlns="http://www.w3.org/2000/svg" xmlns:xlink="http://www.w3.org/1999/xlink" x="0px" y="0px"
	 viewBox="0 0 307.4 66.4" enable-background="new 0 0 307.4 66.4" xml:space="preserve">
<g>
	<g>
		<path fill-rule="evenodd" clip-rule="evenodd" fill="#2F1A45" d="M29.3,58.1c0.8,4.8,2.9,7.2,7,7.2c3.8,0,6.5-1,8.7-2.1v-4.8
			c0,0-0.9,0-1.3,0c-4.3,0-4.9-1.4-4.9-4V29.4c0-10-6.7-14.6-18.4-14.6c-12,0-18.6,4.8-18.6,12.1c0,2.4,0.3,3.5,0.8,5.4l9.5-0.6
			c-0.3-1.4-0.8-2.3-0.8-4c0-2.9,1.3-6.1,8.6-6.1c6.5,0,9.3,3.2,9.3,9.3c-0.8,2.4-6.9,4.3-15.8,6.5C6.1,39.2,0,43.4,0,51.1
			c0,8.7,4.4,14.6,14.5,14.6C20.6,65.7,26.3,63.6,29.3,58.1L29.3,58.1z M29.1,38.7l-0.4,9.2c-0.2,6.3-4.5,10.2-9.3,10.6
			c-6.4,0.6-9.2-2.7-9.2-6.9c0-4.8,3.3-7.4,11.1-9.2C24.3,41.7,28.1,40.3,29.1,38.7L29.1,38.7z"/>
		<path fill="#2F1A45" d="M59.8,47.7l5.8-6.8l14.9,23.7c0,0,11,0.1,11,0.1L72.1,34.5l14-18.1h-11L59.8,37.5V0h-9.7v64.7h9.7V47.7
			L59.8,47.7z"/>
		<path fill="#2F1A45" d="M104.9,64.7h7.1c3.5,0,5.7-2.2,6.8-5.6l14.4-42.7h-9.5L111,54.1L99.4,16.3H88.9L104.9,64.7L104.9,64.7z"/>
		<path fill-rule="evenodd" clip-rule="evenodd" fill="#2F1A45" d="M175.6,41.3c0-17.1-6.8-26.4-20.5-26.4
			c-13.4,0-20.5,8.4-20.5,26.4c0,17.5,7,24.4,20.5,24.4C168,65.7,175.6,59,175.6,41.3L175.6,41.3z M145.1,40.9
			c0-13.4,3.1-18.4,10.1-18.4c6.8,0,10.1,5,10.1,18.4c0,12-2.9,16.6-10.1,16.6C148,57.5,145.1,53.1,145.1,40.9L145.1,40.9z"/>
	</g>
	<g>
		<path fill="#57C1E8" d="M184.1,65.4V17.1h9.9c0,0,0,8.1,0,11c1.9-7.1,6.8-12.1,13.2-12.1c8.1,0,13,4.3,13,10.9
			c0,2.7-0.8,6.6-2,9.3l-9,1.7c0.5-1.9,1.1-4.5,1.1-7c0-3.9-2.2-6.3-6.3-6.3c-6,0-9.8,6.2-9.8,14.6v26.2H184.1z"/>
		<path fill="#57C1E8" d="M234.6,48.7c-0.3,1.2-0.5,2.2-0.5,3.2c0,4,2.6,7.2,9,7.2c6.1,0,9.1-2.4,9.1-6.6c0-2.5-0.9-5.1-9.4-7.7
			l-6.7-2.1c-6.9-2.2-11.1-5.1-11.1-12.7c0-8.7,7.2-14.2,17.4-14.2c11.9,0,18.3,5.4,18.3,11.9c0,1.5-0.3,2.5-0.7,3.4l-9.8,0.7
			c0.3-0.8,0.6-2,0.6-3.2c0-2.9-2.7-5.5-8.2-5.5c-5.4,0-7.7,3.3-7.7,5.8c0,2.8,1.7,4.1,7.7,6l7.2,2.2c8.4,2.6,13,7.2,13,14.1
			c0,9.1-6.3,15.3-19.6,15.3c-12.2,0-18.8-5.5-18.8-12.4c0-2.1,0.6-4.3,1.2-6L234.6,48.7z"/>
		<path fill="#57C1E8" d="M271.2,65.4V17.1h9.9c0,0,0,8.1,0,11c1.9-7.1,6.8-12.1,13.2-12.1c8.1,0,13,4.3,13,10.9
			c0,2.7-0.8,6.6-2,9.3l-9,1.7c0.5-1.9,1.1-4.5,1.1-7c0-3.9-2.2-6.3-6.3-6.3c-6,0-9.8,6.2-9.8,14.6v26.2H271.2z"/>
	</g>
</g>
</svg>
