<?xml version="1.0" encoding="utf-8"?>
<!-- Generator: Adobe Illustrator 18.1.1, SVG Export Plug-In . SVG Version: 6.00 Build 0)  -->
<!DOCTYPE svg PUBLIC "-//W3C//DTD SVG 1.1//EN" "http://www.w3.org/Graphics/SVG/1.1/DTD/svg11.dtd">
<svg version="1.1" id="Layer_1" xmlns="http://www.w3.org/2000/svg" xmlns:xlink="http://www.w3.org/1999/xlink" x="0px" y="0px"
	 viewBox="0 0 1200 960" enable-background="new 0 0 1200 960" xml:space="preserve">
<path fill="#FFFFFF" d="M107.3,540.6c2.6,16.6,10.2,24.7,24.1,24.7c13.1,0,22.4-3.4,29.9-7.3v-16.5c0,0-3.2,0-4.6,0
	c-14.8,0-16.9-4.9-16.9-14v-86c0-34.5-23.2-50.2-63.3-50.2c-41.5,0-64.2,16.5-64.2,41.8c0,8.2,0.9,11.9,2.6,18.6l32.8-2
	c-1.2-5-2.6-7.8-2.6-13.7c0-10.2,4.6-21,29.7-21c22.4,0,31.9,11.1,31.9,31.9c-2.6,8.4-23.9,14.8-54.6,22.4
	c-25,6.1-45.9,20.3-45.9,47.1c0,29.9,15,50.2,50,50.2C77.1,566.8,96.9,559.5,107.3,540.6L107.3,540.6z M106.8,473.5l-1.5,31.6
	c-0.5,21.8-15.4,35.1-31.9,36.5c-22,2-31.6-9.2-31.6-23.9c0-16.6,11.3-25.6,38.4-31.6C90.2,484,103.2,479.1,106.8,473.5L106.8,473.5
	z M212.3,504.8v58.4h-33.4V340.3h33.4v129.2l52.9-72.9h38.1L255,458.9l66.6,104.3c0,0-38,0-38-0.1l-51.2-81.7L212.3,504.8
	L212.3,504.8z M368,563.2l-55.2-166.6h36l39.9,130.1l44-130.1h32.8l-49.7,147.3c-3.7,11.7-11.2,19.4-23.3,19.4H368L368,563.2z
	 M611.6,482.5c0-58.9-23.5-91.1-70.5-91.1c-46.1,0-70.5,29-70.5,91.1c0,60.4,24.1,84.2,70.5,84.2
	C585.2,566.8,611.6,543.5,611.6,482.5L611.6,482.5z M506.3,481.3c0-46.1,10.7-63.3,34.8-63.3c23.5,0,34.8,17.1,34.8,63.3
	c0,41.3-10.2,57.2-34.8,57.2C516.4,538.5,506.3,523.5,506.3,481.3L506.3,481.3z"/>
<path fill="#5ED1EC" d="M672.8,517.7c22.7,0,34.1,9.6,34.1,25.4c0,15.7-11.3,25.2-34.1,25.2c-22.7,0-34.1-9.5-34.1-25.2
	C638.6,527.5,650.5,517.7,672.8,517.7L672.8,517.7z M875.9,482.5c0,60.9-26.4,84.2-70.5,84.2c-46.4,0-70.5-23.9-70.5-84.2
	c0-62.1,24.4-91.1,70.5-91.1C852.5,391.4,875.9,423.6,875.9,482.5L875.9,482.5z M770.6,481.3c0,42.1,10.2,57.2,34.8,57.2
	s34.8-16,34.8-57.2c0-46.1-11.3-63.3-34.8-63.3C781.3,418,770.6,435.2,770.6,481.3L770.6,481.3z M934.7,563.2v-90.3
	c0-29,14.1-50.5,33-50.5c15.6,0,24.4,7.8,24.4,22.9c0,5.4-0.8,11.1-2.2,16.3l29.1-2.8c2-9,3-17.8,3-28.1c0-22.9-17.4-38-42.1-38
	c-22,0-39.6,17.4-46,41.8c0-10.2,0-38,0-38h-33.2v166.6h34V563.2z M1058.8,576.9c0,14.2,14,19.1,41.8,19.1
	c37.7,0,50.5-10.4,50.5-23.7c0-15.7-10.7-21.9-36.3-21.9c-12.1,0-19,2.8-33.1,4.7C1070.1,559.5,1058.8,567.5,1058.8,576.9
	L1058.8,576.9z M1073.3,447.4c0,24.1,11.6,32.8,29.3,32.8c19.8,0,29.7-8.7,29.7-32.8c0-21.8-10.2-33.4-29.7-33.4
	C1082.3,413.9,1073.3,425.7,1073.3,447.4L1073.3,447.4z M1064.9,493.6c-17.9-7.8-27-27.3-27-46.1c0-32.6,23.2-53.7,64.7-53.7
	c12.8,0,21.4,1.7,26.5,3.4c2.9-6.2,6.2-10.5,11.1-14.8c6.3-5.5,16.6-8.7,26.1-8.7c9.4,0,16.7,1.6,25.3,6.1l-7,28.6
	c-4.7-7.6-12.3-9.9-20.8-9.9c-7.9,0-14.4,2.4-17.5,7.4c11.3,6.7,21.2,19.8,21.2,41.5c0,31.1-22,53.7-58.4,53.7
	c-13.1,0-21.2-1.2-27.6-2.9c-11.3,1.2-19.5,5.5-19.5,12.8c0,7.8,3.4,10.4,30.7,9.4l27.8-1.7c38.4-2.4,58,13.3,58,47.6
	c0,32.2-22,51.7-79.5,51.7c-49.6,0-72.4-13.1-72.4-34.5c0-14.8,12-24.9,39.3-29c-27.6-0.5-34.8-15.7-34.8-27.8
	C1031.5,511.2,1041,497.9,1064.9,493.6L1064.9,493.6z"/>
</svg>
